<?xml version="1.0" encoding="UTF-8" standalone="no"?>
<!-- Generator: Adobe Illustrator 16.0.0, SVG Export Plug-In . SVG Version: 6.00 Build 0)  -->

<svg
   version="1.0"
   id="Layer_1"
   x="0px"
   y="0px"
   width="737.008px"
   height="737.008px"
   viewBox="0 0 737.008 737.008"
   enable-background="new 0 0 737.008 737.008"
   xml:space="preserve"
   sodipodi:docname="quarterback_071722.svg"
   inkscape:version="1.2.1 (9c6d41e4, 2022-07-14)"
   xmlns:inkscape="http://www.inkscape.org/namespaces/inkscape"
   xmlns:sodipodi="http://sodipodi.sourceforge.net/DTD/sodipodi-0.dtd"
   xmlns="http://www.w3.org/2000/svg"
   xmlns:svg="http://www.w3.org/2000/svg"><defs
   id="defs1370" /><sodipodi:namedview
   id="namedview1368"
   pagecolor="#ffffff"
   bordercolor="#000000"
   borderopacity="0.25"
   inkscape:showpageshadow="2"
   inkscape:pageopacity="0.0"
   inkscape:pagecheckerboard="0"
   inkscape:deskcolor="#d1d1d1"
   showgrid="false"
   inkscape:zoom="1.7553623"
   inkscape:cx="455.1767"
   inkscape:cy="228.44287"
   inkscape:window-width="1440"
   inkscape:window-height="762"
   inkscape:window-x="0"
   inkscape:window-y="25"
   inkscape:window-maximized="1"
   inkscape:current-layer="g535" />


<g
   id="g537"
   transform="matrix(2.4984776,0,0,2.270444,-809.58173,19.297447)">
	<g
   id="g331">
		<g
   id="g287">
			<path
   fill="#8d5323"
   d="m 378.813,66.554 c -0.073,-1.174 -0.208,-2.35 -0.395,-3.507 -1.266,0.985 -2.351,2.021 -3.191,3.063 -1.189,1.471 -1.839,2.899 -1.828,4.022 0.01,1.154 0.686,2.592 1.898,4.049 0.727,0.872 1.636,1.735 2.675,2.563 0.003,-0.01 0.008,-0.021 0.01,-0.032 0.763,-3.302 1.042,-6.719 0.831,-10.158 z"
   id="path271" />
			<path
   fill="#8d5323"
   d="m 413.107,59.252 c -1.387,-0.616 -2.827,-1.148 -4.286,-1.581 -3.303,-0.979 -6.679,-1.461 -10.035,-1.432 -3.368,0.03 -6.738,0.554 -10.014,1.559 -1.796,0.548 -3.558,1.249 -5.213,2.063 0.702,2.675 1.135,5.66 1.159,8.809 0.022,2.717 -0.254,5.555 -0.916,8.419 -0.222,0.962 -0.487,1.9 -0.784,2.817 1.874,0.927 3.896,1.711 5.966,2.3 3.287,0.932 6.669,1.39 10.045,1.36 3.393,-0.03 6.768,-0.53 10.027,-1.488 1.468,-0.431 2.909,-0.956 4.282,-1.561 0.688,-2.653 1.147,-5.506 1.26,-8.481 0.179,-4.7 -0.436,-9.037 -1.491,-12.784 z m -1.307,7.081 -0.625,-0.475 c -0.011,-0.008 -1.343,-0.745 -3.613,-1.464 -2.092,-0.661 -5.433,-1.442 -9.471,-1.406 -3.878,0.034 -7.731,0.804 -11.45,2.285 l -0.573,0.357 -0.203,-0.97 0.13,-0.892 0.052,-0.337 0.317,-0.116 c 0.059,-0.022 1.436,-0.519 3.673,-1.029 2.056,-0.471 5.259,-1.038 8.825,-1.07 4.798,-0.043 9.047,0.871 12.633,2.712 l 0.235,0.119 0.06,0.255 0.223,0.923 z"
   id="path273" />
			<path
   fill="#ffffff"
   d="m 383.892,66.764 c -0.138,-2.222 -0.49,-4.445 -1.027,-6.545 -0.775,0.404 -1.528,0.831 -2.242,1.281 -0.527,0.333 -1.033,0.678 -1.516,1.029 0.324,1.881 0.516,3.872 0.534,5.934 0.021,2.717 -0.255,5.556 -0.917,8.419 -0.03,0.124 -0.063,0.244 -0.092,0.368 0.667,0.495 1.382,0.976 2.14,1.433 0.501,0.304 1.023,0.594 1.558,0.874 0.278,-0.873 0.526,-1.752 0.729,-2.635 0.765,-3.303 1.043,-6.72 0.833,-10.158 z"
   id="path275" />
			<path
   fill="#ffffff"
   d="m 398.866,61.788 c -6.802,0.062 -12.307,2.064 -12.307,2.064 l -0.13,0.891 c 4.23,-1.686 8.19,-2.295 11.655,-2.326 7.998,-0.07 13.372,2.941 13.372,2.941 l -0.222,-0.921 c -4.01,-2.061 -8.408,-2.684 -12.368,-2.649 z"
   id="path277" />
			<path
   fill="#ffffff"
   d="m 418.245,62.107 c -0.39,-0.268 -0.791,-0.533 -1.206,-0.791 -0.961,-0.593 -1.982,-1.145 -3.038,-1.649 0.98,3.735 1.526,7.951 1.358,12.399 -0.104,2.787 -0.511,5.494 -1.136,8.046 1.045,-0.494 2.045,-1.034 2.979,-1.611 0.294,-0.181 0.579,-0.365 0.855,-0.552 0.454,-2.132 0.754,-4.373 0.84,-6.689 0.123,-3.252 -0.134,-6.326 -0.652,-9.153 z"
   id="path279" />
			<path
   fill="#8d5323"
   d="m 422.523,65.856 c -0.901,-1.065 -2.061,-2.124 -3.409,-3.128 0.443,2.702 0.657,5.578 0.546,8.561 -0.077,2.063 -0.325,4.082 -0.7,6.028 1.466,-1.073 2.701,-2.224 3.628,-3.388 1.209,-1.52 1.841,-2.99 1.83,-4.249 -0.009,-1.034 -0.683,-2.392 -1.895,-3.824 z"
   id="path281" />
			<path
   d="m 418.87,61.383 c -0.286,-0.199 -0.583,-0.396 -0.889,-0.591 -1.304,-0.835 -2.749,-1.627 -4.316,-2.333 -0.301,-0.136 -0.606,-0.266 -0.913,-0.394 -4.066,-1.698 -8.854,-2.821 -13.974,-2.776 -5.794,0.051 -11.138,1.534 -15.479,3.642 -0.235,0.115 -0.465,0.23 -0.692,0.347 -1.343,0.691 -2.58,1.439 -3.697,2.223 -0.229,0.162 -0.457,0.326 -0.678,0.49 -3.637,2.721 -5.807,5.776 -5.785,8.146 0.019,2.287 1.979,5.094 5.273,7.62 0.213,0.163 0.434,0.324 0.655,0.485 1.095,0.786 2.315,1.537 3.646,2.229 0.229,0.119 0.46,0.233 0.692,0.347 4.513,2.219 10.179,3.755 16.323,3.7 5.144,-0.045 9.932,-1.152 13.979,-2.829 0.304,-0.125 0.605,-0.253 0.899,-0.384 1.381,-0.617 2.666,-1.3 3.839,-2.027 0.315,-0.196 0.621,-0.395 0.919,-0.597 4.187,-2.826 6.721,-6.205 6.696,-9.011 -0.02,-2.319 -2.472,-5.503 -6.498,-8.287 z m -40.888,15.328 c -0.002,0.011 -0.007,0.022 -0.01,0.032 -1.039,-0.828 -1.948,-1.691 -2.675,-2.563 -1.213,-1.458 -1.889,-2.895 -1.898,-4.049 -0.011,-1.123 0.639,-2.551 1.828,-4.022 0.841,-1.041 1.926,-2.078 3.191,-3.063 0.187,1.157 0.321,2.333 0.395,3.507 0.211,3.44 -0.068,6.857 -0.831,10.158 z m 4.348,2.846 c -0.534,-0.28 -1.057,-0.569 -1.558,-0.874 -0.758,-0.457 -1.473,-0.938 -2.14,-1.433 0.028,-0.124 0.062,-0.244 0.092,-0.368 0.662,-2.863 0.938,-5.702 0.917,-8.419 -0.019,-2.062 -0.21,-4.053 -0.534,-5.934 0.482,-0.351 0.988,-0.696 1.516,-1.029 0.714,-0.451 1.467,-0.877 2.242,-1.281 0.537,2.1 0.89,4.323 1.027,6.545 0.21,3.438 -0.068,6.854 -0.833,10.157 -0.203,0.884 -0.451,1.763 -0.729,2.636 z m 31.008,0.964 c -1.373,0.604 -2.814,1.13 -4.282,1.561 -3.26,0.958 -6.635,1.458 -10.027,1.488 -3.376,0.03 -6.758,-0.429 -10.045,-1.36 -2.069,-0.589 -4.092,-1.373 -5.966,-2.3 0.297,-0.917 0.563,-1.855 0.784,-2.817 0.662,-2.865 0.938,-5.702 0.916,-8.419 -0.024,-3.149 -0.457,-6.134 -1.159,-8.809 1.655,-0.815 3.417,-1.515 5.213,-2.063 3.275,-1.005 6.646,-1.529 10.014,-1.559 3.356,-0.029 6.732,0.453 10.035,1.432 1.459,0.433 2.899,0.965 4.286,1.581 1.055,3.746 1.67,8.083 1.491,12.787 -0.112,2.971 -0.571,5.824 -1.26,8.478 z m 4.72,-2.571 c -0.276,0.188 -0.562,0.371 -0.855,0.552 -0.935,0.578 -1.935,1.117 -2.979,1.611 0.625,-2.553 1.032,-5.259 1.136,-8.046 0.168,-4.448 -0.378,-8.664 -1.358,-12.399 1.056,0.504 2.077,1.056 3.038,1.649 0.415,0.257 0.816,0.522 1.206,0.791 0.519,2.827 0.775,5.901 0.653,9.153 -0.087,2.316 -0.387,4.557 -0.841,6.689 z m 0.901,-0.633 c 0.375,-1.946 0.623,-3.965 0.7,-6.028 0.111,-2.983 -0.103,-5.859 -0.546,-8.561 1.349,1.004 2.508,2.063 3.409,3.128 1.212,1.432 1.886,2.789 1.895,3.824 0.011,1.259 -0.621,2.729 -1.83,4.249 -0.926,1.164 -2.162,2.315 -3.628,3.388 z"
   id="path283" />
			<path
   d="m 411.73,64.048 -0.235,-0.119 c -3.586,-1.842 -7.835,-2.755 -12.633,-2.712 -3.566,0.032 -6.77,0.599 -8.825,1.07 -2.237,0.51 -3.614,1.007 -3.673,1.029 l -0.317,0.116 -0.052,0.337 -0.13,0.892 0.203,0.97 0.573,-0.357 c 3.719,-1.481 7.572,-2.251 11.45,-2.285 4.038,-0.036 7.379,0.745 9.471,1.406 2.271,0.719 3.603,1.456 3.613,1.464 l 0.625,0.475 0.212,-1.106 -0.223,-0.923 z m -13.646,-1.631 c -3.465,0.03 -7.425,0.64 -11.655,2.326 l 0.13,-0.891 c 0,0 5.505,-2.003 12.307,-2.064 3.96,-0.034 8.358,0.589 12.369,2.649 l 0.222,0.921 c 0,0 -5.374,-3.011 -13.373,-2.941 z"
   id="path285" />
		</g>
		<g
   id="g293">
			<path
   fill-rule="evenodd"
   clip-rule="evenodd"
   fill="#ffffff"
   d="m 385.576,62.467 c 0.089,0.464 0.695,3.713 0.782,4.179 0.291,-0.055 0.68,-0.128 0.972,-0.18 -0.089,-0.467 -0.695,-3.715 -0.78,-4.182 -0.293,0.055 -0.682,0.128 -0.974,0.183 z"
   id="path289" />
			<path
   d="m 386.777,61.952 -1.532,0.286 0.104,0.561 v 0 0 0 l 0.78,4.181 0.972,-0.182 v 0 0 0 l 0.56,-0.104 z m -0.867,0.742 0.41,-0.076 0.676,3.619 -0.409,0.076 z"
   id="path291" />
		</g>
		<g
   id="g299">
			<path
   fill-rule="evenodd"
   clip-rule="evenodd"
   fill="#ffffff"
   d="m 390.094,61.288 c 0.1,0.462 0.799,3.692 0.897,4.155 0.289,-0.063 0.678,-0.146 0.967,-0.208 -0.102,-0.463 -0.799,-3.693 -0.897,-4.156 -0.291,0.061 -0.678,0.145 -0.967,0.209 z"
   id="path295" />
			<path
   d="m 391.279,60.739 -1.525,0.33 0.898,4.156 v 0 0 0 l 0.12,0.558 0.967,-0.208 h -10e-4 10e-4 v 0 l 0.56,-0.12 z m -0.846,0.767 0.406,-0.088 0.779,3.598 -0.408,0.088 z"
   id="path297" />
		</g>
		<g
   id="g305">
			<path
   fill-rule="evenodd"
   clip-rule="evenodd"
   fill="#ffffff"
   d="m 394.344,60.409 c 0.053,0.471 0.436,3.753 0.494,4.224 0.293,-0.034 0.687,-0.081 0.98,-0.115 -0.055,-0.47 -0.44,-3.752 -0.493,-4.222 -0.294,0.032 -0.689,0.079 -0.981,0.113 z"
   id="path301" />
			<path
   d="m 395.577,59.978 -1.55,0.181 0.065,0.568 v 0 0 0 l 0.493,4.223 0.983,-0.115 v 0 0 0 l 0.568,-0.064 z m -0.918,0.682 0.417,-0.049 0.427,3.656 -0.415,0.048 z"
   id="path303" />
		</g>
		<g
   id="g311">
			<path
   fill-rule="evenodd"
   clip-rule="evenodd"
   fill="#ffffff"
   d="m 398.784,64.365 c 0.299,0 0.695,-0.003 0.991,-0.006 -0.006,-0.474 -0.022,-3.778 -0.025,-4.252 -0.294,0.003 -0.691,0.004 -0.988,0.006 0.002,0.473 0.02,3.779 0.022,4.252 z"
   id="path307" />
			<path
   d="m 398.475,59.829 0.027,4.825 0.988,-0.006 v 0 0 0 l 0.569,-0.003 -0.002,-0.572 v 0 0 0 l -0.024,-4.251 z m 0.594,4.249 -0.02,-3.68 0.417,-0.003 0.021,3.681 z"
   id="path309" />
		</g>
		<g
   id="g317">
			<path
   fill-rule="evenodd"
   clip-rule="evenodd"
   fill="#ffffff"
   d="m 402.478,64.703 c 0.294,0.034 0.688,0.078 0.982,0.11 0.053,-0.47 0.422,-3.755 0.475,-4.225 -0.292,-0.033 -0.688,-0.077 -0.982,-0.11 -0.053,0.469 -0.421,3.754 -0.475,4.225 z"
   id="path313" />
			<path
   d="m 402.702,60.162 -0.54,4.792 0.567,0.064 v 0 0 0 l 0.983,0.111 0.062,-0.567 v 0 0 h 0.002 l 0.476,-4.226 z m 0.092,4.289 0.41,-3.657 0.415,0.046 -0.411,3.657 z"
   id="path315" />
		</g>
		<g
   id="g323">
			<path
   fill-rule="evenodd"
   clip-rule="evenodd"
   fill="#ffffff"
   d="m 406.6,65.499 c 0.29,0.052 0.68,0.125 0.971,0.179 0.087,-0.466 0.678,-3.718 0.765,-4.184 -0.29,-0.054 -0.681,-0.124 -0.973,-0.178 -0.084,0.465 -0.68,3.716 -0.763,4.183 z"
   id="path319" />
			<path
   d="m 407.131,60.984 -0.864,4.746 0.973,0.177 v 0 0 0 l 0.561,0.103 0.104,-0.561 v 0 0 0 l 0.763,-4.184 z m -0.201,4.286 0.661,-3.622 0.412,0.075 -0.662,3.621 z"
   id="path321" />
		</g>
		<g
   id="g329">
			<path
   fill-rule="evenodd"
   clip-rule="evenodd"
   fill="#ffffff"
   d="m 410.564,66.837 c 0.287,0.062 0.678,0.142 0.966,0.201 0.098,-0.464 0.766,-3.699 0.862,-4.164 -0.289,-0.059 -0.679,-0.141 -0.969,-0.2 -0.095,0.464 -0.765,3.7 -0.859,4.163 z"
   id="path325" />
			<path
   d="m 411.204,62.338 -0.978,4.722 0.967,0.201 v 0 0 0 l 0.558,0.117 0.979,-4.725 z m -0.304,4.279 0.745,-3.605 0.41,0.085 -0.746,3.605 z"
   id="path327" />
		</g>
	</g>
	<g
   id="g535">
		<path
   fill-rule="evenodd"
   clip-rule="evenodd"
   fill="#ed1c24"
   d="m 503.927,49.53 c 0.414,0.362 0.666,0.889 0.951,1.378 -4.971,0.867 -8.249,1.906 -13.771,2.542 -0.056,-0.937 0.19,-1.573 0.424,-2.223 3.802,-0.906 8.44,-1.085 12.396,-1.697 z"
   id="path333" />
		<path
   fill-rule="evenodd"
   clip-rule="evenodd"
   d="m 488.034,52.499 c -0.518,7.247 0.285,13.289 -1.377,19.916 -0.57,-0.22 -0.126,-0.568 -0.213,-1.271 -3.12,0.189 -7.615,1.518 -10.275,0.106 2.525,-6.727 6.873,-12.546 10.383,-18.647 0.56,-0.024 0.891,-0.267 1.482,-0.104 z m -10.065,17.903 c 1.441,0.11 2.774,0.113 3.603,0 -2.826,-6.308 7.137,-8.997 4.872,-15.149 -2.514,5.362 -5.931,9.817 -8.475,15.149 z m 5.086,-0.106 c 0.623,-0.01 1.988,-0.058 2.966,-0.317 -0.154,-2.395 0.774,-5.406 0.423,-8.051 -1.786,2.181 -5.217,4.866 -3.389,8.368 z"
   id="path335" />
		<path
   fill-rule="evenodd"
   clip-rule="evenodd"
   fill="#b7705b"
   d="m 501.808,52.814 c 0.676,5.008 -1.837,9.656 -4.24,13.35 1.354,-1.133 5.543,-4.899 7.311,-2.225 2.562,3.872 -2.688,7.883 -6.567,6.463 -0.022,-0.659 0.518,-0.754 0.632,-1.271 -0.705,-0.188 -1.247,0.542 -1.48,1.166 -3.032,-0.047 -4.813,-0.066 -7.415,-0.211 0.159,-4.735 0.622,-10.021 0.848,-14.938 3.537,-0.878 7.441,-1.387 10.911,-2.334 z m -8.688,6.676 c 1.084,-1.214 3.656,-2.791 5.615,-1.483 0.485,-0.29 0.702,-0.853 0.634,-1.696 -2.462,-0.257 -6.264,0.973 -6.249,3.179 z m 1.8,4.344 c 1.14,0.276 1.996,-0.853 1.482,-1.907 -1.242,-0.155 -1.845,0.798 -1.482,1.907 z"
   id="path337" />
		<path
   fill-rule="evenodd"
   clip-rule="evenodd"
   fill="#ed1c24"
   d="m 486.444,55.252 c 2.265,6.152 -7.698,8.842 -4.872,15.149 -0.828,0.113 -2.161,0.11 -3.603,0 2.544,-5.331 5.961,-9.786 8.475,-15.149 z"
   id="path339" />
		<path
   fill-rule="evenodd"
   clip-rule="evenodd"
   d="m 499.369,56.311 c 0.068,0.843 -0.148,1.406 -0.634,1.696 -1.959,-1.308 -4.531,0.269 -5.615,1.483 -0.015,-2.206 3.787,-3.436 6.249,-3.179 z"
   id="path341" />
		<path
   fill-rule="evenodd"
   clip-rule="evenodd"
   fill="#b7705b"
   d="m 486.444,61.927 c 0.352,2.646 -0.577,5.657 -0.423,8.051 -0.978,0.26 -2.343,0.308 -2.966,0.317 -1.828,-3.501 1.603,-6.186 3.389,-8.368 z"
   id="path343" />
		<path
   fill-rule="evenodd"
   clip-rule="evenodd"
   d="m 496.403,61.927 c 0.514,1.054 -0.343,2.184 -1.482,1.907 -0.364,-1.109 0.239,-2.062 1.482,-1.907 z"
   id="path345" />
		<path
   fill-rule="evenodd"
   clip-rule="evenodd"
   fill="#b7705b"
   d="m 473.624,70.19 c -1.691,1.858 -0.451,4.336 2.439,4.344 -1.972,3.313 -6.557,-0.311 -4.239,-3.497 1.006,0.145 0.858,-1.587 1.8,-0.847 z"
   id="path347" />
		<path
   fill-rule="evenodd"
   clip-rule="evenodd"
   fill="#2e3192"
   d="m 456.57,73.263 c -1.834,0.626 -3.612,0.702 -5.087,1.589 -0.013,-1.305 -0.821,-2.775 -1.272,-4.238 2.387,-0.384 5.317,1.274 6.359,2.649 z"
   id="path349" />
		<path
   fill-rule="evenodd"
   clip-rule="evenodd"
   fill="#b7705b"
   d="m 486.021,73.897 c -0.466,5.312 0.823,10.115 6.251,10.701 -1.368,0.354 -2.771,1.933 -4.342,1.59 -1.861,-0.407 -2.696,-4.013 -5.3,-3.285 -1.168,-1.162 -1.895,-2.766 -2.967,-4.026 1.399,-1.391 3.154,-2.427 3.921,-4.45 1.18,0.043 1.631,-0.111 2.437,-0.53 z"
   id="path351" />
		<path
   fill-rule="evenodd"
   clip-rule="evenodd"
   fill="#ffffff"
   d="m 413.978,74.004 c 0.972,2.018 0.872,4.951 2.647,6.357 -0.21,1.88 -0.321,3.813 -0.314,5.509 -1.632,2.179 -5.372,2.71 -5.723,5.827 -2.364,-0.231 -4.86,0.731 -5.826,2.544 -2.016,-1.341 -4.162,-4.245 -2.968,-7.207 -0.603,-0.846 -1.813,-1.645 -2.118,-2.436 2.547,-0.153 4.544,-0.161 6.886,-0.742 -1.937,0.633 -2.752,5.423 0.424,4.98 -2.792,-3.099 2.279,-6.438 5.723,-5.721 0.088,-0.619 -0.389,-0.672 -0.637,-0.956 0.311,-0.782 1.244,-0.944 1.694,-1.587 -2.422,-1.026 -2.267,-6.06 0.212,-6.568 z"
   id="path353" />
		<path
   fill-rule="evenodd"
   clip-rule="evenodd"
   fill="#b7705b"
   d="m 501.489,75.063 c 2.202,5.676 -6.926,1.438 -8.687,-0.211 3.301,-0.509 5.307,0.261 8.687,0.211 z"
   id="path355" />
		<path
   fill-rule="evenodd"
   clip-rule="evenodd"
   fill="#ffffff"
   d="m 508.48,75.063 c -0.365,2.842 -1.648,5.774 -2.328,8.371 -0.413,-0.154 -0.656,-0.474 -1.273,-0.424 0.59,-2.809 1.297,-5.096 1.589,-7.841 0.772,-0.023 1.662,0.06 2.012,-0.106 z"
   id="path357" />
		<path
   fill-rule="evenodd"
   clip-rule="evenodd"
   fill="#ffffff"
   d="m 478.607,79.301 c 0.748,1.547 1.753,2.836 2.859,4.027 -2.558,1.546 -3.526,-1.703 -4.77,-3.073 0.421,-0.537 1.46,-0.448 1.911,-0.954 z"
   id="path359" />
		<path
   fill-rule="evenodd"
   clip-rule="evenodd"
   fill="#2e3192"
   d="m 499.159,86.083 c 2.988,10.246 -4.786,15.628 -3.496,25.744 0.429,3.364 2.151,5.734 1.8,9.217 -0.601,5.963 -2.445,10.818 -3.92,16.738 0.773,-0.693 0.973,-0.43 1.378,-1.695 0.68,0.664 0.925,1.76 1.164,2.862 -3.576,1.39 -7.597,0.523 -12.5,0.211 -6.732,-0.43 -13.621,1.085 -18.645,3.603 0.3,-2.903 -2.678,-5.751 -1.273,-9.005 0.747,-1.734 1.542,-2.929 1.06,-4.768 -0.294,-1.122 -2.332,-2.934 -2.12,-4.132 0.25,-1.385 1.153,-3.224 0.85,-4.873 -0.969,-5.231 -6.393,-7.589 -7.312,-13.772 -0.984,-6.633 -3.066,-16.985 -9.748,-18.436 6.288,-1.143 13.288,2.177 18.011,-2.119 3.641,3.279 7.296,7.286 10.489,10.7 2.009,2.147 0.485,-2.283 0.319,-3.707 -0.302,-2.588 -0.124,-4.523 -1.167,-6.568 4.562,0.532 9.83,5.475 13.985,1.587 2.381,-0.167 4.992,-1.073 6.463,-2.753 1.508,0.652 3.107,0.924 4.662,1.166 z"
   id="path361"
   sodipodi:nodetypes="csccccccccccccccccccc" />
		<path
   fill-rule="evenodd"
   clip-rule="evenodd"
   fill="#ffffff"
   d="m 501.384,86.93 c 0.763,0.195 1.181,0.083 1.906,0.318 -0.803,0.61 -1.195,1.631 -2.226,2.013 0.246,-0.802 0.198,-1.63 0.32,-2.331 z"
   id="path363" />
		
		<path
   fill-rule="evenodd"
   clip-rule="evenodd"
   fill="#ffffff"
   d="m 454.875,111.827 c -1.818,-2.562 -3.085,-5.674 -5.615,-7.52 1.539,2.731 3.681,5.782 4.872,9.215 -1.202,-0.533 -2.142,-1.878 -3.39,-2.013 0.038,0.941 1.145,1.66 1.802,2.333 -0.919,0.674 -1.827,0.71 -2.649,1.481 -3.459,-4.637 -4.425,-11.543 -9.005,-14.832 1.312,-2.77 0.774,-13.342 5.403,-11.549 7.391,2.868 8.147,14.246 8.582,22.885 z m -12.926,-11.02 c 2.96,4.88 6.069,-0.713 6.78,-4.235 0.657,-3.264 -3.582,-6.903 -5.615,-4.875 0.74,3.279 -2.641,6.679 -1.165,9.11 z"
   id="path367" />
		
		
		
		<path
   fill-rule="evenodd"
   clip-rule="evenodd"
   fill="#ffffff"
   d="m 410.166,92.968 c 0.346,0.131 -0.096,1.803 0.316,2.438 -1.594,0.138 -3.439,0.935 -4.449,2.011 -0.413,-0.629 -0.706,-1.117 -0.74,-1.905 1.349,-1.306 3.291,-2.312 4.873,-2.544 z"
   id="path375" />
		
		
		<path
   fill-rule="evenodd"
   clip-rule="evenodd"
   fill="#ed1c24"
   d="m 514.52,96.994 c -1.428,1.641 -1.62,5.384 -2.543,7.946 -0.564,1.57 -1.386,4.729 -3.92,3.708 1.571,-1.942 2,-6.523 3.392,-9.216 0.472,-0.918 1.971,-3.576 3.071,-2.438 z"
   id="path381" />
		<path
   fill-rule="evenodd"
   clip-rule="evenodd"
   fill="#ffffff"
   d="m 517.17,97.522 c -1.378,2.019 -2.329,4.999 -2.015,7.841 -0.708,0.776 -1.705,1.261 -2.648,1.8 0.893,-3.027 0.908,-9.5 4.663,-9.641 z"
   id="path383" />
		
		
		
		
		<path
   fill-rule="evenodd"
   clip-rule="evenodd"
   fill="#ed1c24"
   d="m 440.36,101.656 c 4.454,3.326 5.821,10.147 8.157,14.726 -0.026,0.398 -0.431,0.417 -0.637,0.635 -2.876,-2.074 -3.015,-6.668 -4.873,-10.17 -1.074,-2.025 -3.858,-3.774 -2.647,-5.191 z"
   id="path393" />
		
		
		<path
   fill-rule="evenodd"
   clip-rule="evenodd"
   fill="#ffffff"
   d="m 446.081,117.546 c -0.954,0.253 -1.852,0.307 -2.756,0 -0.994,-5.15 -2.079,-9.849 -4.978,-13.24 0.1,-0.183 0.351,-0.215 0.424,-0.425 4.061,2.939 4.909,10.304 7.31,13.665 z"
   id="path399" />
		
		
		<path
   fill-rule="evenodd"
   clip-rule="evenodd"
   fill="#ed1c24"
   d="m 441.949,116.701 c -0.898,0.052 -0.936,-0.34 -1.589,-0.106 -1.182,-4.105 -1.846,-7.86 -4.451,-10.808 4.273,-0.245 5.207,7.023 6.04,10.914 z"
   id="path405" />
		<path
   fill-rule="evenodd"
   clip-rule="evenodd"
   fill="#ffffff"
   d="m 439.087,116.912 c -0.296,0.202 -0.756,0.672 -1.06,0.529 -0.091,-0.494 -0.136,-0.778 -0.104,-1.06 -1.725,-2.864 -1.41,-6.428 -4.346,-8.37 0,-0.566 0.331,-0.799 0.529,-1.165 2.814,1.908 4.702,5.592 4.981,10.066 z"
   id="path407" />
		
		
		<path
   fill-rule="evenodd"
   clip-rule="evenodd"
   fill="#ffffff"
   d="m 543.442,120.09 c 3.233,1.591 0.964,4.026 -2.012,4.345 -0.692,-0.58 -1.3,-1.245 -1.905,-1.907 1.649,-0.087 3.22,-1.06 3.917,-2.438 z"
   id="path413" />
		<path
   fill-rule="evenodd"
   clip-rule="evenodd"
   fill="#ffffff"
   d="m 551.496,137.465 c 1.271,0.305 1.828,0.684 2.967,1.06 -0.055,0.901 -1.597,1.187 -2.542,1.27 -0.582,-0.601 -0.845,-1.373 -0.425,-2.33 z"
   id="path415" />
		<path
   fill-rule="evenodd"
   clip-rule="evenodd"
   fill="#ffffff"
   d="m 555.519,139.056 c 0.818,0.027 1.381,0.313 2.119,0.422 1.124,4.345 -3.15,2.497 -2.119,-0.422 z"
   id="path417" />
		<path
   fill-rule="evenodd"
   clip-rule="evenodd"
   fill="#ffffff"
   d="m 558.594,139.9 c 1.348,0.209 2.271,0.836 3.495,1.167 0.251,0.671 0.876,1.523 0.849,2.121 -2.108,1.162 -3.842,-1.46 -4.344,-3.288 z"
   id="path419" />
		<path
   fill-rule="evenodd"
   clip-rule="evenodd"
   fill="#ed1c24"
   d="m 465.679,143.926 c -1.386,2.211 -2.382,4.261 -2.013,7.839 -3.432,0.519 -0.983,3.4 -3.178,4.557 -1.599,0.843 -3.011,2.661 -4.237,4.025 -6.888,7.667 -5.569,22.694 -12.503,29.666 -1.444,-2.956 1.887,-6.947 2.86,-10.594 1.223,-4.572 3.353,-10.104 4.979,-14.833 1.177,-3.414 2.979,-9.206 6.782,-9.321 -0.148,-2.051 0.229,-2.244 1.906,-3.286 2.308,-1.431 0.922,-8.45 5.404,-8.053 z"
   id="path421" />
		<path
   fill-rule="evenodd"
   clip-rule="evenodd"
   fill="#2e3192"
   d="m 520.134,190.332 c -0.312,1.641 -0.438,2.936 -0.635,4.66 -3.198,-0.979 -7.645,-1.526 -11.338,-0.105 0.444,-1.705 0.836,-3.118 1.062,-5.19 4.067,-0.929 7.467,-0.454 10.911,0.635 z"
   id="path423" />
		<path
   fill-rule="evenodd"
   clip-rule="evenodd"
   fill="#2e3192"
   d="m 442.266,190.226 c 1.666,2.973 4.433,5.811 7.944,6.675 -0.879,1.098 -2.03,1.921 -3.071,2.859 -4.393,-0.722 -8.721,-5.863 -4.873,-9.534 z"
   id="path425" />
		<path
   fill-rule="evenodd"
   clip-rule="evenodd"
   fill="#ffffff"
   d="m 439.087,194.57 c 1.308,3.19 3.576,5.938 6.993,6.673 -0.574,1.208 -1.134,1.874 -1.483,3.18 -4.639,-0.192 -11.094,-6.752 -5.51,-9.853 z"
   id="path427" />
		<path
   fill-rule="evenodd"
   clip-rule="evenodd"
   fill="#ffffff"
   d="m 519.607,197.006 c -0.261,1.445 0.1,1.865 0,3.494 -3.709,1.43 -8.498,0.668 -12.398,0.636 -0.008,-1.197 0.279,-2.853 0.424,-4.235 4.703,-1.743 7.574,-1.403 11.974,0.105 z"
   id="path429" />
		<path
   fill-rule="evenodd"
   clip-rule="evenodd"
   fill="#2e3192"
   d="m 443.749,206.011 c 0.035,0.815 -0.785,1.687 -1.058,2.544 -3.871,0.072 -7.021,-4.255 -8.159,-7.312 -0.419,-1.124 -0.701,-1.855 0.741,-2.543 1.784,3.412 3.965,6.986 8.476,7.311 z"
   id="path431" />
		<path
   fill-rule="evenodd"
   clip-rule="evenodd"
   fill="#2e3192"
   d="m 429.551,203.363 c 1.287,4.672 4.41,8.663 9.007,10.065 -1.828,2.896 -7.091,0.314 -8.686,-3.074 -1.033,-2.188 -3.072,-5.521 -0.321,-6.991 z"
   id="path433" />
		<path
   fill-rule="evenodd"
   clip-rule="evenodd"
   fill="#ffffff"
   d="m 519.393,206.011 c 0.521,0.09 0.21,1.301 0.318,1.485 -2.713,1.57 -7.412,2.655 -11.759,2.224 -0.438,-0.686 -0.663,-1.881 -0.53,-2.543 4.215,0.45 8.725,-0.152 11.971,-1.166 z"
   id="path435" />
		<path
   fill-rule="evenodd"
   clip-rule="evenodd"
   d="m 521.3,224.022 c 0.42,0.005 0.633,0.218 0.637,0.634 -0.097,-0.326 -0.536,-0.309 -0.637,-0.634 z"
   id="path437" />
		<path
   fill-rule="evenodd"
   clip-rule="evenodd"
   fill="#ffffff"
   d="m 416.311,227.413 c -0.632,2.513 -0.326,5.895 -1.167,8.369 -0.514,-0.773 -0.523,-1.501 -1.271,-2.12 0.002,-2.656 0.182,-5.356 2.438,-6.249 z"
   id="path439" />
		<path
   fill-rule="evenodd"
   clip-rule="evenodd"
   fill="#ffffff"
   d="m 424.255,230.271 c 1.758,2.644 -1.55,4.651 -1.483,7.099 0.047,1.677 1.369,3.134 0.425,4.663 -4.006,-2.782 0.408,-7.646 1.058,-11.762 z"
   id="path441" />
		<path
   fill-rule="evenodd"
   clip-rule="evenodd"
   fill="#ffffff"
   d="m 421.818,230.696 c 0.674,2.414 -0.737,5.173 -1.271,6.991 -1.807,-0.278 -3.383,0.467 -4.555,1.167 0.342,-4.035 1.619,-8.963 5.826,-8.158 z"
   id="path443" />
		<path
   fill-rule="evenodd"
   clip-rule="evenodd"
   fill="#ffffff"
   d="m 524.16,238.959 c -0.893,-0.163 -1.477,-0.639 -2.009,-1.164 -0.324,-5.1 5.43,-2.618 2.009,1.164 z"
   id="path445" />
		<path
   fill-rule="evenodd"
   clip-rule="evenodd"
   fill="#ed1c24"
   d="m 413.344,235.782 c 1.061,2.18 2.384,5.31 1.164,7.946 -0.888,-0.312 -1.604,-0.795 -2.543,-1.06 -0.267,-2.847 0.592,-4.631 1.379,-6.886 z"
   id="path447" />
		<path
   fill-rule="evenodd"
   clip-rule="evenodd"
   fill="#ffffff"
   d="m 521.3,238.644 c 0.727,0.438 0.696,1.634 2.014,1.481 -0.2,1.552 -0.241,3.173 0.741,4.027 -3.451,-0.777 -7.268,-0.776 -11.124,-0.531 -0.656,-1.285 -1.114,-4.701 0.742,-4.662 1.485,0.032 2.44,2.038 4.345,1.803 1.671,-0.211 1.978,-1.028 3.282,-2.118 z"
   id="path449" />
		<path
   fill-rule="evenodd"
   clip-rule="evenodd"
   fill="#ffffff"
   d="m 420.653,240.125 c -1.715,-0.066 -3.26,0.054 -4.342,0.849 -0.33,-1.778 3.989,-2.79 4.342,-0.849 z"
   id="path451" />
		<path
   fill-rule="evenodd"
   clip-rule="evenodd"
   fill="#ffffff"
   d="m 525.857,240.444 c 0.276,0.289 0.572,0.556 0.635,1.059 -0.646,0.482 -1.312,0.946 -1.482,1.908 -0.36,-0.523 -0.178,-1.59 -0.425,-2.226 0.32,-0.351 0.845,-0.496 1.272,-0.741 z"
   id="path453" />
		<path
   fill-rule="evenodd"
   clip-rule="evenodd"
   fill="#ffffff"
   d="m 420.865,241.185 c 0.399,-0.009 0.027,0.749 0.425,0.741 -2.401,0.095 -3.761,1.509 -5.827,2.437 -0.493,-2.54 3.438,-3.377 5.402,-3.178 z"
   id="path455" />
		<path
   fill-rule="evenodd"
   clip-rule="evenodd"
   fill="#ffffff"
   d="m 426.056,246.482 c -1.777,-2.492 -6.639,-1.528 -8.583,0.104 -0.315,-0.317 -0.715,-0.553 -1.058,-0.844 1.828,-2.302 8.988,-3.746 9.641,0.74 z"
   id="path457" />
		<path
   fill-rule="evenodd"
   clip-rule="evenodd"
   fill="#ffffff"
   d="m 411.861,244.045 c 3.714,0.826 5.402,4.885 4.659,8.688 -4.36,-0.283 -5.076,-4.752 -4.659,-8.688 z"
   id="path459" />
		<path
   fill-rule="evenodd"
   clip-rule="evenodd"
   fill="#ffffff"
   d="m 531.259,244.363 c -0.312,0.854 -1.198,1.696 -0.952,2.755 -0.495,0.103 -1.16,-0.534 -1.801,-0.636 0.429,-1.216 1.127,-2.737 2.753,-2.119 z"
   id="path461" />
		<path
   fill-rule="evenodd"
   clip-rule="evenodd"
   fill="#ed1c24"
   d="m 537.934,250.933 c -1.778,1.819 -4.162,3.848 -6.991,3.283 -2.222,-0.443 -2.327,-3.367 -4.557,-4.239 -1.26,-0.491 -2.181,0.48 -3.495,0.425 -3.296,-0.137 -6.232,-4.896 -9.642,-4.449 0.158,-0.638 -0.052,-0.809 0,-1.273 11.043,-1.891 15.75,5.757 24.685,6.253 z"
   id="path463" />
		<path
   fill-rule="evenodd"
   clip-rule="evenodd"
   fill="#ffffff"
   d="m 533.801,245.529 c -0.351,0.813 -1.206,1.123 -1.271,2.224 -0.794,0.179 -0.754,0.1 -1.375,-0.211 -0.119,-0.806 0.961,-1.095 0.953,-2.119 0.693,-0.481 1.08,-0.363 1.693,0.106 z"
   id="path465" />
		<path
   fill-rule="evenodd"
   clip-rule="evenodd"
   fill="#ffffff"
   d="m 424.892,247.329 c -1.631,1.54 -5.253,-0.335 -6.886,1.906 0.062,-0.626 -0.188,-0.943 -0.106,-1.588 2,-0.779 4.973,-2.036 6.992,-0.318 z"
   id="path467" />
		<path
   fill-rule="evenodd"
   clip-rule="evenodd"
   fill="#ffffff"
   d="m 535.18,246.8 c 0.408,0.086 0.392,0.597 0.74,0.742 -0.288,0.594 -0.688,1.078 -0.846,1.8 -0.557,-0.219 -1.005,-0.548 -1.591,-0.741 0.346,-0.82 1.238,-1.094 1.697,-1.801 z"
   id="path469" />
		<path
   fill-rule="evenodd"
   clip-rule="evenodd"
   fill="#ffffff"
   d="m 512.931,247.542 c 3.659,0.569 6.021,2.268 8.582,4.132 -3.156,4.293 -11.27,1.571 -8.582,-4.132 z"
   id="path471" />
		<path
   fill-rule="evenodd"
   clip-rule="evenodd"
   fill="#ffffff"
   d="m 428.493,251.779 c -1.495,-0.105 -4.693,-1.394 -3.495,-2.966 1.036,-1.362 2.875,2.125 3.495,2.966 z"
   id="path473" />
		<path
   fill-rule="evenodd"
   clip-rule="evenodd"
   fill="#ffffff"
   d="m 536.983,248.708 c 0.409,0.151 0.698,0.427 1.163,0.527 -0.541,0.308 -1.211,0.487 -2.119,0.425 0.103,-0.532 0.734,-0.536 0.956,-0.952 z"
   id="path475" />
		<path
   fill-rule="evenodd"
   clip-rule="evenodd"
   fill="#ffffff"
   d="m 424.042,250.72 c -2.808,-0.835 -6.171,4.494 -6.354,0.106 1.172,-1.879 5.349,-2.769 6.354,-0.106 z"
   id="path477" />
		<path
   fill-rule="evenodd"
   clip-rule="evenodd"
   fill="#bcbec0"
   d="m 410.801,249.025 c 1.03,1.747 1.144,4.108 2.859,4.979 3.038,1.543 5.318,-0.808 7.629,-1.695 2.97,-1.14 4.901,0.998 7.627,1.06 -0.256,2.331 -1.126,4.539 -3.073,4.555 -0.211,0.14 -0.235,0.471 -0.316,0.744 -3.731,0.162 -11.589,1.777 -14.303,-1.168 -2.042,-2.214 -1.598,-5.466 -0.423,-8.475 z"
   id="path479" />
		<path
   fill-rule="evenodd"
   clip-rule="evenodd"
   fill="#bcbec0"
   d="m 512.083,253.263 c 1.486,1.945 4.154,2.47 6.355,1.906 2.022,-0.516 2.8,-2.466 4.237,-3.178 3.996,-1.979 3.994,1.741 6.466,3.073 7.504,4.044 10.136,-7.485 17.057,-5.829 2.168,0.521 2.435,3.089 0.742,4.77 -2.134,2.114 -8.288,2.636 -11.656,2.966 -3.514,0.346 -7.453,-0.93 -10.593,-1.059 -4.867,-0.202 -14.727,4.023 -12.608,-2.649 z"
   id="path481" />
		<path
   fill-rule="evenodd"
   clip-rule="evenodd"
   fill="#ffffff"
   d="m 542.279,257.183 c -0.199,0.794 -0.154,1.49 -0.213,2.223 -0.469,0.298 -0.844,-0.12 -1.377,-0.317 -0.045,-0.847 -0.111,-1.128 0,-1.695 0.613,0.014 1,-0.2 1.59,-0.211 z"
   id="path483" />
		<path
   fill-rule="evenodd"
   clip-rule="evenodd"
   fill="#ffffff"
   d="m 517.802,258.242 c 0.136,0.463 0.136,1.018 0,1.482 -1.053,0.619 -2.037,0.195 -2.223,-1.057 0.687,-0.197 1.457,-0.311 2.223,-0.425 z"
   id="path485" />
		<path
   fill-rule="evenodd"
   clip-rule="evenodd"
   fill="#ffffff"
   d="m 425.421,260.043 c 0.23,2.437 -2.59,2.625 -2.118,0.531 0.799,0.041 1.219,-0.422 2.118,-0.531 z"
   id="path487" />
		<path
   fill-rule="evenodd"
   clip-rule="evenodd"
   fill="#ffffff"
   d="m 413.131,260.15 c 0.999,0.041 1.311,0.213 2.226,0.212 -0.293,0.587 -0.261,1.581 -0.742,2.225 -0.502,0.039 -0.885,-0.036 -1.271,-0.107 -0.071,-0.872 -0.329,-1.116 -0.213,-2.33 z"
   id="path489" />
		<path
   fill-rule="evenodd"
   clip-rule="evenodd"
   d="m 452.225,75.701 c 3.603,-0.554 7.425,-1.564 11.23,-2.756 0.556,4.411 -2.072,8.437 -5.299,10.594 1.254,-1.68 0.725,-3.874 1.802,-5.932 -0.538,-0.273 -0.359,-1.266 -0.848,-1.59 -0.778,3.277 -3.261,6.382 -6.886,6.781 1.116,-1.353 2.466,-2.919 1.693,-5.297 -1.36,1.333 -3.509,2.194 -5.296,0.635 1.142,0.116 3.787,-0.067 3.604,-2.435 z"
   id="path491" />
		<path
   fill-rule="evenodd"
   clip-rule="evenodd"
   fill="#b7705b"
   d="m 499.688,78.985 c -0.457,0.777 -1.225,1.245 -1.907,1.799 -2.205,-0.619 -4.233,-1.416 -6.568,-1.906 0.173,-1.458 -0.293,-2.576 0,-3.709 2.253,2.184 4.576,3.243 8.475,3.816 z"
   id="path493" />
		<path
   fill-rule="evenodd"
   clip-rule="evenodd"
   fill="#b7705b"
   d="m 463.348,80.148 c 0.697,-1.048 1.201,-3.153 1.483,-4.555 2.112,3.586 6.326,6.226 10.702,4.768 0.536,1.757 1.928,2.663 2.966,3.92 -0.132,0.644 -0.975,0.581 -0.956,1.376 -1.743,0.109 -9.873,-5.12 -6.884,-2.33 2.081,2.486 3.271,6.596 3.497,10.275 -3.236,-4.426 -8.962,-7.281 -10.808,-13.454 z"
   id="path495" />
		<path
   fill-rule="evenodd"
   clip-rule="evenodd"
   fill="#ffffff"
   d="m 512.613,95.617 c -3.559,2.079 -3.042,12.531 -7.627,12.29 1.599,-1.719 2.18,-4.811 3.285,-7.944 0.677,-1.926 3.354,-6.977 4.342,-4.346 z"
   id="path497" />
		<path
   fill-rule="evenodd"
   clip-rule="evenodd"
   fill="#ed1c24"
   d="m 503.396,107.8 c -0.417,-0.181 -0.896,-0.307 -1.482,-0.318 2.898,-3.846 3.44,-10.049 7.735,-12.5 -2.642,2.871 -3.174,9.682 -6.253,12.818 z"
   id="path499" />
		<path
   fill-rule="evenodd"
   clip-rule="evenodd"
   d="m 527.871,101.763 c -0.695,-0.683 -1.653,-2.003 -2.755,-2.438 -1.063,-0.419 -6.168,-0.979 -6.677,-0.847 -1.972,0.513 -1.521,5.01 -1.907,6.779 1.923,1.066 5.808,0.607 7.312,1.59 1.528,0.998 3.015,4.547 4.448,6.356 2.771,3.493 10.725,11.15 13.987,5.51 -3.143,-7.839 -10.543,-11.989 -15.787,-17.374 0.585,-0.051 1.027,0.591 1.379,0.424 z M 485.809,26.435 c -19.58,-4.592 -40.023,7.642 -40.471,26.063 -0.154,6.4 2.763,10.563 4.239,16.208 2.404,0.159 4.646,0.674 6.46,1.695 0.851,0.479 1.764,2.197 2.649,2.331 2.262,0.34 3.947,-2.516 6.57,-2.225 1.223,2.991 1.729,6.167 4.133,7.84 3.949,2.752 10.669,-0.42 11.969,-3.708 -2.499,-0.921 -3.907,1.66 -5.615,2.437 -6.531,2.969 -7.86,-8.939 -1.587,-8.581 3.144,-6.916 7.08,-13.572 11.228,-19.282 2.82,-3.882 13.149,-2.519 17.377,-3.92 -2.234,-8.566 -8.178,-16.799 -16.952,-18.858 z m 4.026,27.335 c -0.056,-1.476 -0.407,-2.069 0,-2.968 0.729,-1.614 11.264,-2.713 13.243,-2.754 1.216,-0.026 4.19,0.336 4.661,-0.318 0.396,-0.55 -0.257,-1.542 -0.742,-1.484 -6.528,0.818 -13.893,1.634 -19.704,2.968 -2.571,3.618 -5.031,6.811 -7.102,11.017 -1.736,1.639 -2.075,3.866 -3.704,6.675 -0.813,1.396 -3.225,4.36 -2.227,5.615 2.075,2.608 9.181,0.184 12.396,0.107 0.202,0.293 0.694,0.296 0.849,0.636 -0.061,2.231 -0.154,5.446 0.528,7.84 3.958,2.129 7.934,3.386 12.927,4.131 1.045,0.157 5.432,2.021 6.248,1.483 2.075,-1.358 -3.152,-2.406 -3.493,-2.542 -3.688,-1.481 -9.275,-3.049 -13.455,-4.133 -0.947,-2.083 -0.899,-5.489 -0.318,-7.203 3.904,1.1 9.02,0.43 13.349,0.741 2.958,0.212 6.699,1.413 8.371,-0.636 -0.53,-0.408 -0.876,-0.824 -1.485,-0.953 -7.434,-1.579 -13.904,0.479 -20.765,-0.848 -1.435,-4.917 0.616,-12.328 0.423,-17.374 z m 1.697,-2.542 c -0.233,0.65 -0.479,1.286 -0.424,2.223 5.521,-0.636 8.8,-1.676 13.771,-2.542 -0.285,-0.489 -0.537,-1.016 -0.951,-1.378 -3.957,0.611 -8.595,0.79 -12.396,1.697 z m -0.637,3.918 c -0.226,4.917 -0.688,10.204 -0.848,14.938 2.602,0.145 4.383,0.165 7.415,0.211 0.233,-0.624 0.775,-1.354 1.48,-1.166 -0.114,0.518 -0.654,0.613 -0.632,1.271 3.879,1.42 9.129,-2.591 6.567,-6.463 -1.768,-2.674 -5.957,1.092 -7.311,2.225 2.403,-3.693 4.916,-8.342 4.24,-13.35 -3.468,0.949 -7.372,1.458 -10.911,2.334 z m -93.019,28.393 c 3.488,1.08 8.768,-0.546 12.395,-1.483 0.322,-0.702 0.872,-1.174 1.272,-1.801 -2.012,-1.057 -0.578,-7.831 1.801,-7.841 2.415,-0.008 3.045,4.577 4.237,6.252 l 0.212,0.742 c -0.114,2.762 1.215,5.449 -0.53,7.946 -1.047,1.498 -4.168,1.587 -5.086,2.965 -1.41,2.12 -0.33,4.754 0.531,6.252 2.998,5.219 9.422,8.298 11.971,14.513 2.32,-2.553 7.268,-2.479 8.582,-6.039 2.945,0.083 4.146,-2.301 5.721,-3.921 2.076,-5.805 1.327,-15.074 9.324,-15.042 5.414,0.021 11.511,1.604 15.573,-1.801 -0.383,-1.032 -0.944,-1.882 -1.378,-2.86 -1.868,1.815 -4.042,3.925 -7.204,3.813 0.787,-1.051 2.516,-2.442 2.755,-4.024 -2.389,3.011 -8.064,5.146 -10.277,0.635 1.678,0.659 3.569,0.289 4.556,-1.484 -3.752,0.351 -7.509,-2.65 -6.144,-6.463 0.326,1.719 2.903,4.252 4.447,2.12 -0.09,-0.311 -0.266,0.138 -0.528,0 -0.533,-8.079 -8.36,-16.844 -6.145,-26.38 3.029,-13.055 13.06,-24.693 28.286,-25.639 16.061,-0.999 29.081,6.095 31.994,21.189 4.944,-2.831 7.224,4.961 2.014,4.873 0.071,0.322 0.238,1.131 0.212,1.695 -0.727,0.631 -2.044,0.941 -2.965,1.059 0.133,3.557 -0.432,6.458 -2.118,9.006 5.288,-1.362 7.134,5.924 3.708,8.581 4.18,-1.573 11.507,2.856 4.872,4.98 0.442,2.748 -2.942,5.957 -2.332,8.475 0.174,0.717 1.288,1.274 1.378,2.226 0.138,1.399 -1.465,2.571 -2.966,2.118 -0.007,0.761 1.66317,2.064873 1.43817,3.124873 1.463,-0.101 0.85083,1.355127 1.31583,2.597127 4.447,-3.454 5.781,3.05 10.277,2.435 0.286,0.41 0.13,0.625 0.211,1.165 5.192,-0.488 7.927,1.415 10.597,5.404 1.992,2.98 6.269,4.283 8.793,7.734 2.216,3.028 3.827,7.339 6.673,9.747 5.624,4.756 12.828,7.711 15.363,15.258 2.351,0.607 5.92,2.958 3.814,5.401 -0.41,0.022 -0.78,0.004 -1.062,-0.106 0.231,0.814 1.353,2.295 0.531,3.604 -1.565,1.106 -4.211,-0.032 -5.086,-1.696 -1.821,1.638 -4.441,0.308 -4.661,-2.013 -2.277,1.554 -5.044,-1.125 -4.556,-3.814 -0.706,-0.89 -1.543,-0.995 -2.753,-1.376 -0.212,3.293 -2.3,8.739 -6.464,6.672 0.196,-2.039 -1.253,-5.791 -1.063,-8.791 0.158,-2.415 1.946,-4.746 1.592,-6.783 -0.554,-3.172 -4.602,-4.091 -6.146,-6.568 -5.917,-2.285 -8.608,-8.216 -12.71,-12.608 -2.373,0.058 -4.15,-0.332 -5.936,-1.059 -2.459,0.712 -3.806,3.722 -6.251,4.131 -2.756,0.461 -5.795,-3.117 -9.004,-1.588 -3.323,2.715 -1.553,7.414 -1.908,12.396 -0.326,4.539 -2.07,8.793 -3.178,12.608 0.887,1.338 2.32,4.399 1.059,6.356 -0.136,0.357 -0.685,0.304 -1.059,0.424 1.149,2.935 3.137,5.884 4.873,8.581 8.864,1.56 14.814,10.524 14.729,20.023 -0.013,1.226 -0.64,2.393 -0.425,3.816 0.757,5.072 7.979,6.629 7.944,11.969 -0.012,1.821 -1.361,3.66 -1.905,5.404 -1.373,4.382 0.119,11.957 -0.212,16.422 -0.673,9.021 -0.602,17.872 1.272,26.805 3.144,-2.114 6.652,2.433 3.706,4.979 2.37,-0.482 2.362,3.153 3.917,3.814 2.768,1.172 5.236,0.883 6.994,3.285 0.306,0.421 0.267,0.994 0.741,1.376 2.935,2.358 8.316,-1.57 11.444,1.484 2.923,2.854 -1.68,7.856 -5.193,7.84 1.354,4.147 -5.064,5.4 -4.872,1.164 -0.578,-0.047 -0.871,0.189 -1.484,0.106 0,1.014 -0.153,3.095 -0.952,3.815 -1.93,0.565 -4.401,-0.563 -3.814,-3.391 -4.176,-0.51 -8.601,-1.743 -13.244,-0.424 1.64,3.767 -5.505,4.485 -4.98,0.744 -3.584,0.378 -5.483,-3.84 -3.071,-6.466 -0.387,-2.741 -0.19,-5 0.107,-7.838 -1.638,-2.035 -1.537,-6.144 1.377,-6.78 0.976,-13.025 -10.827,-25.563 -6.887,-38.564 0.18,-0.594 0.079,-1.892 0.213,-2.648 0.522,-2.971 2.44,-6.399 0.951,-8.369 -0.744,-0.988 -2.985,-2.528 -4.237,-3.391 -6.118,-4.22 -13.63,-7.066 -15.997,-14.726 -1.603,-0.909 -3.78,-1.797 -4.344,-3.392 -3.845,0.536 -5.59,3.167 -8.053,5.085 -1.397,4.96 -4.387,9.147 -8.263,11.762 -1.887,1.271 -2.903,3.086 -5.084,3.918 -1.635,0.622 -2.169,1.408 -2.969,3.073 -0.635,3.388 -3.131,4.853 -5.721,6.78 -6.954,5.179 -8.39,15.592 -16.42,20.236 -5.174,2.99 -8.327,6.33 -11.124,11.441 3.213,2.722 -0.148,5.434 -0.425,8.158 -0.201,1.982 1.779,3.15 0.425,4.979 1.938,1.124 2.512,2.688 2.647,5.192 0.111,2.043 2.966,3.219 2.968,5.722 0.002,2.651 -1.116,5.675 -3.816,6.565 1.387,3.688 -4.572,5.306 -4.766,1.378 -2.04,-0.075 -3.555,-0.104 -5.192,-0.316 0.558,4.987 -6.612,3.672 -4.768,-0.638 -4.817,-2.32 -3.802,-7.182 -2.223,-12.288 0.732,-2.373 0.423,-5.167 0.634,-7.629 0.184,-2.127 1.525,-3.768 2.013,-5.296 1.103,-3.458 -0.266,-8.439 3.813,-9.005 2.836,-13.109 10.778,-21.59 19.918,-29.77 0.988,-0.885 2.467,-2.474 3.178,-3.603 1.905,-3.014 4.744,-7.986 5.827,-12.079 2.421,-9.137 5.032,-21.933 11.655,-26.908 0.792,-1.115 1.169,-2.647 2.861,-2.861 0.202,-1.916 0.718,-3.519 1.587,-4.767 -0.81,0.034 -1.241,-0.313 -2.118,-0.212 1.636,-5.182 -1.773,-9.569 0.848,-14.835 -0.704,-1.94 -1.894,-2.723 -2.119,-4.872 -0.186,-1.78 1.05,-2.882 1.167,-4.45 0.266,-3.611 -3.883,-3.514 -5.403,-5.932 -3.075,1.689 -6.147,4.694 -10.065,3.92 -0.872,-0.173 -1.579,-1.023 -2.437,-1.06 -1.838,-0.075 -4.193,2.33 -4.98,-0.212 -5.874,-0.545 -10.408,7.431 -16.422,5.299 -2.067,-0.734 -2.163,-3.577 -3.073,-5.617 -0.374,-0.841 -2.241,-2.644 -3.178,-3.601 -2.752,-2.821 -4.239,-6.918 -6.249,-10.808 -1.174,-2.269 -2.041,-5.176 -3.284,-7.204 -1.169,-1.905 -2.756,-2.803 -3.497,-4.767 -0.977,-2.59 -0.896,-5.288 -2.966,-6.781 z m 73.948,-12.502 c -2.317,3.186 2.268,6.81 4.239,3.497 -2.891,-0.008 -4.131,-2.485 -2.439,-4.344 -0.942,-0.74 -0.794,0.992 -1.8,0.847 z M 450.21,70.614 c 0.451,1.463 1.26,2.934 1.272,4.238 1.475,-0.888 3.253,-0.963 5.087,-1.589 -1.041,-1.375 -3.971,-3.033 -6.359,-2.649 z m -1.587,7.521 c 1.787,1.56 3.936,0.698 5.296,-0.635 0.772,2.378 -0.577,3.945 -1.693,5.297 3.625,-0.398 6.107,-3.504 6.886,-6.781 0.488,0.324 0.31,1.316 0.848,1.59 -1.077,2.058 -0.548,4.252 -1.802,5.932 3.227,-2.157 5.854,-6.183 5.299,-10.594 -3.806,1.191 -7.628,2.202 -11.23,2.756 0.181,2.369 -2.464,2.552 -3.604,2.435 z m 34.961,-3.707 c -0.767,2.023 -2.521,3.06 -3.921,4.45 1.072,1.26 1.799,2.864 2.967,4.026 2.604,-0.728 3.438,2.877 5.3,3.285 1.57,0.343 2.974,-1.235 4.342,-1.59 -5.428,-0.586 -6.717,-5.389 -6.251,-10.701 -0.806,0.418 -1.257,0.572 -2.437,0.53 z m -69.818,6.146 c -0.45,0.643 -1.384,0.805 -1.694,1.587 0.248,0.283 0.725,0.336 0.637,0.956 -3.443,-0.717 -8.515,2.622 -5.723,5.721 -3.176,0.443 -2.36,-4.347 -0.424,-4.98 -2.342,0.581 -4.339,0.589 -6.886,0.742 0.305,0.791 1.516,1.59 2.118,2.436 -1.194,2.961 0.952,5.865 2.968,7.207 0.966,-1.813 3.462,-2.775 5.826,-2.544 0.351,-3.117 4.091,-3.648 5.723,-5.827 -0.007,-1.695 0.104,-3.629 0.314,-5.509 -1.775,-1.406 -1.676,-4.339 -2.647,-6.357 -2.479,0.506 -2.634,5.54 -0.212,6.568 z m 79.036,-5.722 c 1.761,1.649 10.889,5.888 8.687,0.211 -3.38,0.05 -5.386,-0.72 -8.687,-0.211 z m 6.567,6.463 c 1.101,0.174 2.63,0.832 3.922,1.166 1.081,-2.397 1.086,-5.141 1.802,-7.417 -0.891,0.043 -1.7,-0.075 -2.331,0 0.816,1.934 0.549,4.744 -1.801,4.237 -0.071,1.061 -1.346,1.477 -1.592,2.014 z m 7.098,-6.146 c -0.292,2.745 -0.999,5.032 -1.589,7.841 0.617,-0.05 0.86,0.27 1.273,0.424 0.68,-2.596 1.963,-5.528 2.328,-8.371 -0.349,0.166 -1.239,0.083 -2.012,0.106 z m -15.255,0 c -0.293,1.133 0.173,2.251 0,3.709 2.335,0.49 4.363,1.287 6.568,1.906 0.683,-0.554 1.45,-1.022 1.907,-1.799 -3.898,-0.573 -6.221,-1.632 -8.475,-3.816 z m -17.055,18.434 c -0.227,-3.68 -1.416,-7.789 -3.497,-10.275 -2.989,-2.79 5.141,2.439 6.884,2.33 -0.019,-0.796 0.824,-0.732 0.956,-1.376 -1.038,-1.257 -2.43,-2.163 -2.966,-3.92 -4.376,1.458 -8.59,-1.181 -10.702,-4.768 -0.282,1.402 -0.786,3.507 -1.483,4.555 1.845,6.172 7.571,9.027 10.808,13.454 z m 2.54,-13.348 c 1.243,1.37 2.212,4.619 4.77,3.073 -1.106,-1.191 -2.111,-2.479 -2.859,-4.027 -0.452,0.506 -1.491,0.417 -1.911,0.954 z m 2.439,5.828 c 1.872,1.296 4.929,2.333 7.415,1.059 -1.742,-2.64 -4.661,-2.963 -7.415,-1.059 z m 15.361,-1.166 c -1.471,1.681 -4.082,2.586 -6.463,2.753 -4.155,3.888 -9.424,-1.056 -13.985,-1.587 1.043,2.045 0.865,3.979 1.167,6.568 0.166,1.424 1.689,5.854 -0.319,3.707 -3.193,-3.414 -6.849,-7.421 -10.489,-10.7 -4.723,4.296 -11.723,0.976 -18.011,2.119 6.682,1.45 8.764,11.802 9.748,18.436 0.919,6.184 6.343,8.542 7.312,13.772 0.304,1.649 -0.6,3.488 -0.85,4.873 -0.212,1.199 1.826,3.011 2.12,4.132 0.482,1.839 -0.313,3.034 -1.06,4.768 -1.404,3.253 1.573,6.102 1.273,9.005 5.023,-2.518 11.912,-4.032 18.645,-3.603 4.903,0.313 8.924,1.179 12.5,-0.211 -0.239,-1.102 -0.484,-2.198 -1.164,-2.862 -0.405,1.265 -0.604,1.001 -1.378,1.695 1.475,-5.92 3.319,-10.775 3.92,-16.738 0.352,-3.483 -1.371,-5.854 -1.8,-9.217 -1.29,-10.116 6.484,-15.499 3.496,-25.744 -1.555,-0.242 -3.154,-0.514 -4.662,-1.166 z m -48.205,4.024 c -4.629,-1.793 -4.092,8.779 -5.403,11.549 4.58,3.289 5.546,10.195 9.005,14.832 0.822,-0.771 1.73,-0.807 2.649,-1.481 -0.657,-0.672 -1.764,-1.391 -1.802,-2.333 1.248,0.135 2.188,1.48 3.39,2.013 -1.191,-3.433 -3.333,-6.484 -4.872,-9.215 2.53,1.846 3.797,4.958 5.615,7.52 -0.434,-8.638 -1.19,-20.016 -8.582,-22.885 z m 51.276,15.893 c 1.042,-1.454 1.674,-2.667 2.968,-3.815 -1.828,3.419 -3.643,7.397 -2.968,11.443 1.366,-4.79 8.81501,-13.909328 9.92501,-19.153324 -2.08813,-4.842614 -1.95565,-4.444279 -4.5878,-5.65452 C 500.0308,85.961094 498.455,99.78 497.568,104.834 Z m -92.276,-9.322 c 0.034,0.789 0.327,1.276 0.74,1.905 1.01,-1.076 2.855,-1.873 4.449,-2.011 -0.412,-0.635 0.029,-2.306 -0.316,-2.438 -1.581,0.232 -3.523,1.238 -4.873,2.544 z m 102.979,4.45 c -1.105,3.134 -1.687,6.226 -3.285,7.944 4.585,0.241 4.068,-10.211 7.627,-12.29 -0.988,-2.63 -3.665,2.421 -4.342,4.346 z m 1.378,-4.98 c -4.295,2.451 -4.837,8.654 -7.735,12.5 0.587,0.011 1.065,0.137 1.482,0.318 3.079,-3.136 3.611,-9.947 6.253,-12.818 z m 1.8,4.449 c -1.392,2.693 -1.82,7.274 -3.392,9.216 2.534,1.021 3.355,-2.137 3.92,-3.708 0.923,-2.562 1.115,-6.306 2.543,-7.946 -1.1,-1.137 -2.599,1.521 -3.071,2.438 z M 406.774,99.325 c 2.362,6.723 7.149,12.513 10.913,17.376 0.436,0.56 0.289,1.034 0.319,1.269 1.196,9.776 12.716,-1.447 17.796,-1.375 -1.013,-2.896 -1.438,-7.609 -4.767,-7.628 -3.015,-0.018 -4.926,5.472 -8.475,3.496 0.037,-0.419 0.54,-0.377 0.848,-0.529 -2.946,-6.096 -9.162,-8.923 -12.291,-14.833 -2.408,-0.407 -3.036,1.201 -4.343,2.224 z m 105.733,7.839 c 0.943,-0.54 1.94,-1.024 2.648,-1.8 -0.314,-2.843 0.637,-5.822 2.015,-7.841 -3.755,0.14 -3.77,6.613 -4.663,9.641 z m -69.5,-0.317 c 1.858,3.502 1.997,8.096 4.873,10.17 0.206,-0.218 0.61,-0.237 0.637,-0.635 -2.336,-4.578 -3.703,-11.399 -8.157,-14.726 -1.211,1.417 1.573,3.166 2.647,5.191 z m -4.236,-2.966 c -0.073,0.21 -0.324,0.242 -0.424,0.425 2.898,3.391 3.983,8.09 4.978,13.24 0.904,0.307 1.802,0.253 2.756,0 -2.401,-3.361 -3.249,-10.726 -7.31,-13.665 z m -2.862,1.906 c 2.605,2.947 3.27,6.702 4.451,10.808 0.653,-0.234 0.69,0.158 1.589,0.106 -0.833,-3.891 -1.767,-11.159 -6.04,-10.914 z m -1.802,1.06 c -0.198,0.366 -0.529,0.599 -0.529,1.165 2.936,1.942 2.621,5.506 4.346,8.37 -0.031,0.282 0.014,0.566 0.104,1.06 0.304,0.143 0.764,-0.327 1.06,-0.529 -0.28,-4.475 -2.168,-8.159 -4.981,-10.066 z m 23.732,9.005 h 0.848 c 0.746,1.619 1.812,2.453 2.226,4.026 0.5,1.915 -1.584,2.971 -1.378,4.979 0.219,2.134 1.418,3.099 2.331,5.086 -2.829,4.311 0.253,9.806 -0.637,14.09 4.565,-1.333 0.146,-6.662 0.955,-10.381 0.27,-1.246 1.467,-2.589 1.06,-4.239 -0.237,-0.957 -1.784,-2.2 -2.015,-3.602 -0.26,-1.593 0.832,-2.531 1.061,-4.026 0.808,-5.303 -5.697,-6.933 -6.038,-10.489 0.415,1.632 0.877,3.219 1.587,4.556 z m 81.686,6.675 c 0.605,0.663 1.213,1.328 1.905,1.907 2.976,-0.319 5.245,-2.754 2.012,-4.345 -0.697,1.379 -2.268,2.352 -3.917,2.438 z m 19.492,12.395 c -2.076,-5.784 -7.711,-8.158 -12.5,-11.866 -0.951,1.616 -2.111,2.595 -4.238,2.862 -1.141,4.315 -1.144,10.693 -0.742,15.679 4.642,0.968 2.449,-6.854 5.297,-7.417 1.08,-0.212 2.431,0.631 3.284,0.848 3.712,0.957 8.75,4.891 12.926,4.873 0.434,-0.001 0.582,-0.161 0.847,-0.74 -2.457,-2.651 -7.734,-3.156 -10.274,-5.826 1.5,0.332 3.985,1.267 5.4,1.587 z m -7.097,4.873 c 0.945,-0.083 2.487,-0.369 2.542,-1.27 -1.139,-0.376 -1.696,-0.755 -2.967,-1.06 -0.419,0.957 -0.156,1.729 0.425,2.33 z m 5.718,-0.317 c -0.738,-0.109 -1.301,-0.396 -2.119,-0.422 -1.031,2.919 3.243,4.767 2.119,0.422 z m 5.3,3.71 c 0.027,-0.598 -0.598,-1.45 -0.849,-2.121 -1.225,-0.331 -2.147,-0.958 -3.495,-1.167 0.502,1.828 2.236,4.45 4.344,3.288 z m -95.881,0.104 c -0.126,0.703 0.291,0.766 0.104,1.272 -3.633,2.394 0.187,8.279 -4.342,9.322 0.567,0.605 0.422,1.588 0.316,2.436 -4.479,3.424 -10.764,9.804 -11.653,16.529 -0.937,7.061 -2.124,13.996 -6.673,18.538 1.929,1.789 4.061,4.655 7.521,4.028 3.143,-0.573 4.401,-5.261 5.509,-8.264 -3.41,-2.464 -0.264,-7.674 1.803,-9.535 -1.535,1.977 -2.7,5.316 -1.803,7.733 0.997,0.5 1.875,0.588 2.649,0.212 6.239,-3.025 12.829,-9.585 12.925,-18.646 -1.152,0.147 -2.156,0.809 -3.177,1.377 0.723,-3.105 5.964,-3.225 4.555,0.951 1.469,-1.591 3.854,-3.673 6.354,-4.234 4.114,0.643 6.374,-3.58 8.901,-5.193 -1.208,1.829 -2.803,3.272 -3.918,5.193 2.467,-0.192 4.571,-1.036 6.143,-1.273 -2.142,1.329 -4.229,2.878 -7.629,2.648 1.724,2.799 6.213,2.83 9.535,4.026 -1.233,0.828 -3.911,0.107 -5.827,0.106 3.047,5.532 9.241,9.485 15.045,12.183 2.09,0.971 4.5,5.981 7.207,5.721 3.502,-0.336 7.537,-0.848 10.063,0.211 1.618,-2.651 0.045,-5.384 -1.38,-6.886 -5.624,-5.941 -7.381,-14.495 -11.229,-21.294 0.429,-0.154 0.127,-0.484 0.317,-0.742 1.926,3.226 3.91,6.609 5.51,9.852 0.723,-4.036 -1.561,-8.854 -4.13,-12.501 -2.021,-2.866 -4.539,-5.635 -7.946,-6.144 1.093,1.271 2.074,2.656 3.07,4.025 -5.503,-2.69 -7.539,-8.846 -10.593,-13.985 -9.073,-0.793 -18.776,-1.194 -27.227,2.334 z m -6.78,8.687 c -1.677,1.042 -2.055,1.234 -1.906,3.286 -3.803,0.115 -5.605,5.908 -6.782,9.321 -1.627,4.729 -3.757,10.261 -4.979,14.833 -0.974,3.647 -4.305,7.638 -2.86,10.594 6.934,-6.971 5.615,-21.999 12.503,-29.666 1.227,-1.365 2.639,-3.183 4.237,-4.025 2.194,-1.157 -0.254,-4.039 3.178,-4.557 -0.369,-3.578 0.627,-5.628 2.013,-7.839 -4.484,-0.397 -3.098,6.622 -5.404,8.053 z m 48.946,37.717 c -0.226,2.072 -0.617,3.486 -1.062,5.19 3.693,-1.421 8.14,-0.875 11.338,0.105 0.196,-1.724 0.323,-3.019 0.635,-4.66 -3.444,-1.088 -6.844,-1.563 -10.911,-0.635 z m -62.084,10.064 c 1.041,-0.938 2.192,-1.761 3.071,-2.859 -3.512,-0.864 -6.278,-3.703 -7.944,-6.675 -3.848,3.671 0.48,8.812 4.873,9.534 z m -2.542,4.662 c 0.35,-1.306 0.909,-1.972 1.483,-3.18 -3.417,-0.734 -5.686,-3.482 -6.993,-6.673 -5.584,3.102 0.871,9.662 5.51,9.853 z m 63.035,-7.521 c -0.145,1.382 -0.432,3.038 -0.424,4.235 3.9,0.033 8.689,0.794 12.398,-0.636 0.1,-1.629 -0.261,-2.049 0,-3.494 -4.399,-1.508 -7.27,-1.848 -11.974,-0.105 z m -72.359,1.798 c -1.442,0.688 -1.16,1.42 -0.741,2.543 1.138,3.057 4.288,7.384 8.159,7.312 0.272,-0.857 1.093,-1.729 1.058,-2.544 -4.511,-0.324 -6.692,-3.898 -8.476,-7.311 z m -3.071,2.332 c -0.411,0.522 -1.229,0.808 -1.271,1.59 -0.221,4.131 5.156,8.163 8.898,9.429 0.627,-0.646 1.27,-1.274 1.695,-2.119 -4.783,-0.807 -7.133,-4.91 -9.322,-8.9 z m 74.901,2.121 c 0.018,1.171 -0.289,1.706 0.214,2.646 3.933,-0.388 12.646,0.85 12.29,-3.917 -3.629,1.185 -8.138,0.737 -12.504,1.271 z m -77.23,7.202 c 1.595,3.388 6.857,5.969 8.686,3.074 -4.597,-1.402 -7.72,-5.393 -9.007,-10.065 -2.752,1.47 -0.713,4.803 0.321,6.991 z m 77.549,-3.177 c -0.133,0.662 0.093,1.857 0.53,2.543 4.347,0.431 9.046,-0.654 11.759,-2.224 -0.108,-0.184 0.203,-1.395 -0.318,-1.485 -3.246,1.014 -7.756,1.616 -11.971,1.166 z m -88.675,15.573 c -1.098,2.539 -1.888,4.664 -1.273,7.627 1.476,-0.573 4.669,-2.424 5.83,0 2.207,-6.479 6.246,-11.127 11.97,-14.088 -5.233,-0.814 -6.65,-5.49 -8.582,-9.324 -3.309,3.998 -5.571,10.291 -7.945,15.785 z m 89.945,-9.218 c 3.283,1.201 8.216,0.063 10.915,-1.481 -0.081,-1.132 0.224,-1.699 0,-2.542 -3.57,0.899 -6.895,1.932 -11.445,1.483 0.344,0.68 0.366,1.683 0.53,2.54 z m 0.425,1.907 c 1.814,6.883 5.605,13.52 4.98,22.46 2.589,2.475 6.442,1.114 6.993,-2.225 0.223,-1.371 -0.629,-2.968 -0.847,-4.238 -0.921,-5.315 -1.122,-11.076 -1.168,-16.951 -3.101,0.496 -6.637,1.622 -9.958,0.954 z m -95.243,18.223 c 0.747,0.619 0.757,1.347 1.271,2.12 0.841,-2.475 0.535,-5.856 1.167,-8.369 -2.257,0.893 -2.437,3.593 -2.438,6.249 z m 9.323,8.371 c 0.944,-1.529 -0.378,-2.985 -0.425,-4.663 -0.066,-2.448 3.241,-4.455 1.483,-7.099 -0.65,4.116 -5.064,8.98 -1.058,11.762 z m -7.205,-3.179 c 1.172,-0.7 2.748,-1.445 4.555,-1.167 0.534,-1.818 1.945,-4.578 1.271,-6.991 -4.207,-0.805 -5.484,4.123 -5.826,8.158 z m 106.159,-1.059 c 0.532,0.525 1.116,1.001 2.009,1.164 3.421,-3.782 -2.333,-6.264 -2.009,-1.164 z m -110.186,4.873 c 0.938,0.264 1.655,0.748 2.543,1.06 1.22,-2.636 -0.104,-5.766 -1.164,-7.946 -0.787,2.255 -1.646,4.039 -1.379,6.886 z m 106.053,-1.906 c -1.904,0.234 -2.859,-1.771 -4.345,-1.803 -1.856,-0.039 -1.398,3.377 -0.742,4.662 3.856,-0.246 7.673,-0.247 11.124,0.531 -0.982,-0.854 -0.941,-2.476 -0.741,-4.027 -1.317,0.153 -1.287,-1.043 -2.014,-1.481 -1.304,1.09 -1.611,1.907 -3.282,2.118 z m -101.707,0.211 c 1.082,-0.795 2.627,-0.915 4.342,-0.849 -0.353,-1.94 -4.672,-0.928 -4.342,0.849 z m 108.273,0.212 c 0.247,0.636 0.064,1.703 0.425,2.226 0.171,-0.961 0.837,-1.426 1.482,-1.908 -0.063,-0.503 -0.358,-0.77 -0.635,-1.059 -0.426,0.245 -0.951,0.39 -1.272,0.741 z m -109.122,3.178 c 2.066,-0.928 3.426,-2.342 5.827,-2.437 -0.397,0.008 -0.025,-0.75 -0.425,-0.741 -1.963,-0.199 -5.894,0.638 -5.402,3.178 z m 110.818,0.847 c 0.479,0.157 0.745,0.527 1.167,0.743 -0.062,-1.367 0.885,-1.727 1.271,-2.65 -0.576,-0.124 -1.016,-0.734 -1.165,-0.952 -0.874,0.646 -1.11,1.744 -1.273,2.859 z m -109.864,0.533 c 0.343,0.291 0.742,0.527 1.058,0.844 1.944,-1.633 6.806,-2.597 8.583,-0.104 -0.654,-4.487 -7.814,-3.043 -9.641,-0.74 z m 0.104,6.99 c 0.743,-3.803 -0.945,-7.862 -4.659,-8.688 -0.417,3.936 0.299,8.405 4.659,8.688 z m 111.986,-6.251 c 0.641,0.103 1.306,0.739 1.801,0.636 -0.246,-1.06 0.641,-1.901 0.952,-2.755 -1.626,-0.618 -2.324,0.903 -2.753,2.119 z M 513.25,244.68 c -0.052,0.464 0.158,0.635 0,1.273 3.409,-0.447 6.346,4.312 9.642,4.449 1.314,0.055 2.235,-0.917 3.495,-0.425 2.229,0.872 2.335,3.796 4.557,4.239 2.829,0.564 5.213,-1.464 6.991,-3.283 -8.936,-0.496 -13.643,-8.144 -24.685,-6.253 z m 18.858,0.743 c 0.008,1.024 -1.072,1.313 -0.953,2.119 0.621,0.311 0.581,0.39 1.375,0.211 0.065,-1.102 0.921,-1.411 1.271,-2.224 -0.613,-0.469 -1,-0.587 -1.693,-0.106 z M 417.9,247.647 c -0.082,0.645 0.168,0.961 0.106,1.588 1.633,-2.241 5.255,-0.366 6.886,-1.906 -2.019,-1.718 -4.992,-0.461 -6.992,0.318 z m 115.584,0.954 c 0.586,0.193 1.034,0.522 1.591,0.741 0.158,-0.723 0.558,-1.207 0.846,-1.8 -0.349,-0.145 -0.332,-0.656 -0.74,-0.742 -0.46,0.707 -1.352,0.981 -1.697,1.801 z m -11.971,3.073 c -2.562,-1.864 -4.923,-3.563 -8.582,-4.132 -2.688,5.703 5.426,8.425 8.582,4.132 z m -96.515,-2.861 c -1.198,1.572 2,2.861 3.495,2.966 -0.62,-0.841 -2.459,-4.328 -3.495,-2.966 z m 111.029,0.847 c 0.908,0.063 1.578,-0.117 2.119,-0.425 -0.465,-0.1 -0.754,-0.375 -1.163,-0.527 -0.222,0.416 -0.853,0.42 -0.956,0.952 z m -118.34,1.166 c 0.184,4.387 3.547,-0.941 6.354,-0.106 -1.004,-2.663 -5.181,-1.773 -6.354,0.106 z m -6.463,6.673 c 2.714,2.946 10.571,1.33 14.303,1.168 0.081,-0.273 0.105,-0.604 0.316,-0.744 1.947,-0.016 2.817,-2.224 3.073,-4.555 -2.726,-0.062 -4.657,-2.2 -7.627,-1.06 -2.311,0.888 -4.591,3.238 -7.629,1.695 -1.716,-0.871 -1.829,-3.232 -2.859,-4.979 -1.175,3.01 -1.619,6.262 0.423,8.475 z m 113.468,-1.587 c 3.14,0.129 7.079,1.404 10.593,1.059 3.368,-0.33 9.522,-0.852 11.656,-2.966 1.692,-1.68 1.426,-4.249 -0.742,-4.77 -6.921,-1.656 -9.553,9.874 -17.057,5.829 -2.472,-1.332 -2.47,-5.052 -6.466,-3.073 -1.438,0.712 -2.215,2.663 -4.237,3.178 -2.201,0.564 -4.869,0.04 -6.355,-1.906 -2.12,6.672 7.74,2.447 12.608,2.649 z m 15.997,1.482 c -0.111,0.567 -0.045,0.848 0,1.695 0.533,0.197 0.908,0.616 1.377,0.317 0.059,-0.733 0.014,-1.429 0.213,-2.223 -0.59,0.011 -0.977,0.225 -1.59,0.211 z m -6.782,0.742 c 0.262,0.749 0.167,0.862 0.318,1.801 0.446,0.086 0.772,0.288 1.167,0.425 0.274,-0.592 0.585,-1.601 0.211,-2.332 -0.406,0.086 -1.055,0.185 -1.696,0.106 z m -18.327,0.531 c 0.186,1.251 1.17,1.675 2.223,1.057 0.136,-0.464 0.136,-1.019 0,-1.482 -0.767,0.114 -1.537,0.228 -2.223,0.425 z m -92.277,1.907 c -0.472,2.095 2.349,1.906 2.118,-0.531 -0.899,0.109 -1.319,0.572 -2.118,0.531 z m -9.959,1.906 c 0.386,0.071 0.769,0.146 1.271,0.107 0.481,-0.645 0.449,-1.638 0.742,-2.225 -0.915,10e-4 -1.227,-0.171 -2.226,-0.212 -0.116,1.214 0.142,1.458 0.213,2.33 z"
   id="path501"
   sodipodi:nodetypes="ccccccccccccsccccccccccccccccccccccccccccccccccccccccccccccccccccccccccccccccccccccccccccccccccccccccccccccccccccscccccccccccccccccccccccccccscccccccccccccccccccccccccccccccccccccccccccccccccccccccccccccccccccccccccccccccccccccccccccccccccccccccccccccccccccccccccsccccccccccccccccccccccccccccccccccccccccccccccccccccccccccccccccccccccccccccccccccccccccccccccccccccccccccccccccccccccccccccccccccccccccccccccccccccccccccccccccccccccccccccccccccccccccccccccccccccccccccccccccccccccccccccccccccccccccccccccccccccccccccccccccccccccccccccccccccccccscccccccccccccccccccccccccccccccccccccccccccccccccccccccccccccccccccc" />
		<path
   fill-rule="evenodd"
   clip-rule="evenodd"
   fill="#b7705b"
   d="m 526.492,101.339 c 5.244,5.385 12.645,9.535 15.787,17.374 -3.263,5.64 -11.217,-2.017 -13.987,-5.51 -1.434,-1.809 -2.92,-5.358 -4.448,-6.356 -1.504,-0.982 -5.389,-0.524 -7.312,-1.59 0.387,-1.769 -0.064,-6.266 1.907,-6.779 0.509,-0.133 5.613,0.427 6.677,0.847 1.102,0.435 2.06,1.755 2.755,2.438 -0.352,0.167 -0.794,-0.475 -1.379,-0.424 z"
   id="path503" />
		<path
   fill-rule="evenodd"
   clip-rule="evenodd"
   fill="#ffffff"
   d="m 456.251,111.296 c 0.341,3.557 6.846,5.186 6.038,10.489 -0.229,1.495 -1.32,2.433 -1.061,4.026 0.23,1.401 1.777,2.645 2.015,3.602 0.407,1.65 -0.79,2.993 -1.06,4.239 -0.809,3.72 3.61,9.049 -0.955,10.381 0.89,-4.284 -2.192,-9.78 0.637,-14.09 -0.913,-1.987 -2.112,-2.952 -2.331,-5.086 -0.206,-2.008 1.878,-3.064 1.378,-4.979 -0.414,-1.573 -1.479,-2.407 -2.226,-4.026 -0.282,0 -0.565,0 -0.848,0 -0.709,-1.337 -1.171,-2.924 -1.587,-4.556 z"
   id="path505" />
		<path
   fill-rule="evenodd"
   clip-rule="evenodd"
   fill="#ffffff"
   d="m 553.616,133.334 c 2.54,2.669 7.817,3.175 10.274,5.826 -0.265,0.579 -0.413,0.738 -0.847,0.74 -4.176,0.018 -9.214,-3.916 -12.926,-4.873 -0.854,-0.216 -2.204,-1.06 -3.284,-0.848 -2.848,0.563 -0.655,8.386 -5.297,7.417 -0.401,-4.985 -0.398,-11.364 0.742,-15.679 2.127,-0.267 3.287,-1.246 4.238,-2.862 4.789,3.708 10.424,6.082 12.5,11.866 -1.414,-0.319 -3.899,-1.254 -5.4,-1.587 z"
   id="path507" />
		<path
   fill-rule="evenodd"
   clip-rule="evenodd"
   fill="#2e3192"
   d="m 519.607,201.881 c 0.356,4.768 -8.357,3.529 -12.29,3.917 -0.503,-0.941 -0.196,-1.475 -0.214,-2.646 4.366,-0.534 8.875,-0.086 12.504,-1.271 z"
   id="path509" />
		<path
   fill-rule="evenodd"
   clip-rule="evenodd"
   fill="#2e3192"
   d="m 508.162,210.991 c 4.551,0.449 7.875,-0.583 11.445,-1.483 0.224,0.844 -0.081,1.411 0,2.542 -2.699,1.544 -7.632,2.683 -10.915,1.481 -0.164,-0.856 -0.186,-1.859 -0.53,-2.54 z"
   id="path511" />
		<path
   fill-rule="evenodd"
   clip-rule="evenodd"
   fill="#ffffff"
   d="m 527.552,242.351 c 0.149,0.218 0.589,0.829 1.165,0.952 -0.386,0.923 -1.332,1.283 -1.271,2.65 -0.422,-0.216 -0.688,-0.586 -1.167,-0.743 0.164,-1.115 0.4,-2.213 1.273,-2.859 z"
   id="path513" />
		<path
   fill-rule="evenodd"
   clip-rule="evenodd"
   fill="#ed1c24"
   d="m 502.761,45.293 c -4.228,1.401 -14.557,0.038 -17.377,3.92 -4.147,5.71 -8.084,12.366 -11.228,19.282 -6.273,-0.358 -4.944,11.55 1.587,8.581 1.708,-0.777 3.116,-3.358 5.615,-2.437 -1.3,3.287 -8.02,6.459 -11.969,3.708 -2.404,-1.672 -2.91,-4.849 -4.133,-7.84 -2.623,-0.291 -4.309,2.565 -6.57,2.225 -0.886,-0.134 -1.799,-1.853 -2.649,-2.331 -1.813,-1.021 -4.056,-1.537 -6.46,-1.695 -1.477,-5.646 -4.394,-9.808 -4.239,-16.208 0.447,-18.421 20.891,-30.656 40.471,-26.063 8.774,2.059 14.718,10.292 16.952,18.858 z"
   id="path515" />
		<path
   fill-rule="evenodd"
   clip-rule="evenodd"
   fill="#ffffff"
   d="m 489.412,71.144 c 6.86,1.327 13.331,-0.73 20.765,0.848 0.609,0.129 0.955,0.545 1.485,0.953 -1.672,2.049 -5.413,0.848 -8.371,0.636 -4.329,-0.312 -9.444,0.358 -13.349,-0.741 -0.581,1.714 -0.629,5.12 0.318,7.203 4.18,1.083 9.768,2.652 13.455,4.133 0.341,0.136 5.568,1.184 3.493,2.542 -0.816,0.538 -5.203,-1.327 -6.248,-1.483 -4.993,-0.746 -8.969,-2.002 -12.927,-4.131 -0.683,-2.394 -0.589,-5.609 -0.528,-7.84 -0.154,-0.34 -0.646,-0.343 -0.849,-0.636 -3.215,0.077 -10.32,2.501 -12.396,-0.107 -0.998,-1.254 1.414,-4.219 2.227,-5.615 1.629,-2.81 1.968,-5.037 3.704,-6.675 2.07,-4.206 4.53,-7.398 7.102,-11.017 5.812,-1.334 13.176,-2.15 19.704,-2.968 0.485,-0.059 1.138,0.934 0.742,1.484 -0.471,0.654 -3.445,0.292 -4.661,0.318 -1.979,0.042 -12.514,1.141 -13.243,2.754 -0.407,0.899 -0.056,1.492 0,2.968 0.193,5.046 -1.858,12.457 -0.423,17.374 z m -2.861,-18.541 c -3.51,6.101 -7.857,11.92 -10.383,18.647 2.66,1.411 7.155,0.083 10.275,-0.106 0.087,0.702 -0.357,1.051 0.213,1.271 1.662,-6.627 0.859,-12.669 1.377,-19.916 -0.59,-0.163 -0.921,0.08 -1.482,0.104 z"
   id="path517" />
		<path
   fill-rule="evenodd"
   clip-rule="evenodd"
   fill="#bcbec0"
   d="m 486.551,87.142 c -2.486,1.273 -5.543,0.237 -7.415,-1.059 2.754,-1.904 5.673,-1.581 7.415,1.059 z"
   id="path519" />
		<path
   fill-rule="evenodd"
   clip-rule="evenodd"
   fill="#b7705b"
   d="m 411.118,97.1 c 3.129,5.911 9.345,8.738 12.291,14.833 -0.308,0.152 -0.811,0.109 -0.848,0.529 3.549,1.976 5.46,-3.514 8.475,-3.496 3.328,0.019 3.754,4.733 4.767,7.628 -5.08,-0.072 -16.6,11.151 -17.796,1.375 -0.03,-0.235 0.116,-0.709 -0.319,-1.269 -3.764,-4.863 -8.551,-10.654 -10.913,-17.376 1.306,-1.022 1.934,-2.63 4.343,-2.224 z"
   id="path521" />
		<path
   fill-rule="evenodd"
   clip-rule="evenodd"
   fill="#ffffff"
   d="m 504.138,99.325 c -1.11,5.245 -5.204,8.347 -6.57,13.137 -0.70984,-5.57849 -0.63481,-3.70086 0,-7.628 4.41407,-14.221489 0.65136,-13.593864 6.57,-5.509 z"
   id="path523"
   sodipodi:nodetypes="cccc" />
		<path
   fill-rule="evenodd"
   clip-rule="evenodd"
   fill="#ffffff"
   d="m 494.286,140.96 c 3.054,5.139 5.09,11.295 10.593,13.985 -0.996,-1.37 -1.978,-2.754 -3.07,-4.025 3.407,0.509 5.925,3.278 7.946,6.144 2.569,3.647 4.853,8.466 4.13,12.501 -1.6,-3.243 -3.584,-6.626 -5.51,-9.852 -0.19,0.258 0.111,0.588 -0.317,0.742 3.849,6.799 5.605,15.353 11.229,21.294 1.425,1.502 2.998,4.235 1.38,6.886 -2.526,-1.059 -6.562,-0.547 -10.063,-0.211 -2.707,0.26 -5.117,-4.75 -7.207,-5.721 -5.804,-2.698 -11.998,-6.651 -15.045,-12.183 1.916,10e-4 4.594,0.722 5.827,-0.106 -3.322,-1.197 -7.812,-1.228 -9.535,-4.026 3.4,0.23 5.487,-1.319 7.629,-2.648 -1.571,0.237 -3.676,1.081 -6.143,1.273 1.115,-1.921 2.71,-3.364 3.918,-5.193 -2.527,1.614 -4.787,5.836 -8.901,5.193 -2.501,0.561 -4.886,2.643 -6.354,4.234 1.409,-4.175 -3.832,-4.056 -4.555,-0.951 1.021,-0.568 2.024,-1.23 3.177,-1.377 -0.096,9.061 -6.686,15.621 -12.925,18.646 -0.774,0.376 -1.652,0.288 -2.649,-0.212 -0.897,-2.417 0.268,-5.757 1.803,-7.733 -2.066,1.86 -5.213,7.071 -1.803,9.535 -1.107,3.003 -2.366,7.691 -5.509,8.264 -3.46,0.627 -5.592,-2.239 -7.521,-4.028 4.549,-4.542 5.736,-11.478 6.673,-18.538 0.89,-6.725 7.174,-13.104 11.653,-16.529 0.105,-0.848 0.251,-1.831 -0.316,-2.436 4.528,-1.043 0.709,-6.929 4.342,-9.322 0.187,-0.506 -0.23,-0.569 -0.104,-1.272 8.449,-3.53 18.152,-3.129 27.227,-2.334 z"
   id="path525" />
		<path
   fill-rule="evenodd"
   clip-rule="evenodd"
   fill="#ffffff"
   d="m 441.525,209.931 c -0.426,0.845 -1.068,1.473 -1.695,2.119 -3.742,-1.266 -9.119,-5.298 -8.898,-9.429 0.041,-0.783 0.859,-1.068 1.271,-1.59 2.188,3.99 4.538,8.093 9.322,8.9 z"
   id="path527" />
		<path
   fill-rule="evenodd"
   clip-rule="evenodd"
   fill="#ffffff"
   d="m 426.691,206.966 c 1.932,3.833 3.349,8.509 8.582,9.324 -5.724,2.961 -9.763,7.609 -11.97,14.088 -1.161,-2.424 -4.354,-0.573 -5.83,0 -0.614,-2.963 0.176,-5.088 1.273,-7.627 2.375,-5.495 4.637,-11.788 7.945,-15.785 z"
   id="path529" />
		<path
   fill-rule="evenodd"
   clip-rule="evenodd"
   fill="#ffffff"
   d="m 519.076,214.487 c 0.046,5.875 0.247,11.636 1.168,16.951 0.218,1.27 1.069,2.867 0.847,4.238 -0.551,3.338 -4.404,4.7 -6.993,2.225 0.625,-8.941 -3.166,-15.578 -4.98,-22.46 3.32,0.666 6.856,-0.46 9.958,-0.954 z"
   id="path531" />
		<path
   fill-rule="evenodd"
   clip-rule="evenodd"
   fill="#ffffff"
   d="m 535.603,258.03 c 0.374,0.731 0.063,1.74 -0.211,2.332 -0.395,-0.137 -0.721,-0.339 -1.167,-0.425 -0.151,-0.939 -0.057,-1.052 -0.318,-1.801 0.641,0.079 1.29,-0.02 1.696,-0.106 z"
   id="path533" />
	</g>
</g>









</svg>
