<?xml version="1.0" encoding="utf-8"?>
<!-- Generator: Adobe Illustrator 25.2.3, SVG Export Plug-In . SVG Version: 6.00 Build 0)  -->
<svg version="1.1" id="Layer_1" xmlns="http://www.w3.org/2000/svg" xmlns:xlink="http://www.w3.org/1999/xlink" x="0px" y="0px"
	 viewBox="0 0 1000 1000" style="enable-background:new 0 0 1000 1000;" xml:space="preserve">
<style type="text/css">
	.st0{fill:#FFFFFF;}
	.st1{fill:#2E3192;}
	.st2{fill:#ED1C24;}
</style>
<g>
	<path d="M666.8,850.3c-0.4,0.7-0.7,1.3-0.8,1.7c-1.5,0.4-3.2,0.8-4.4,0.9c-0.5,0-1.1,0-1.6,0c-1-0.4-2.3-0.9-3.6-1.3
		c-2.4-0.8-6.4-1.8-8.6-2.4c-2.2-0.5-7.6-1-7.6-2.7c-0.1-1.7,7.2-3.4,9.4-2.6c2.2,0.7,8.5,2.9,11.2,2.9c1.6,0,3.6-0.2,5-0.4
		c0.1,0.1,0.1,0.3,0.1,0.5c0,0.8,1,1.3,0.3,2.4C666,849.8,666.3,850.1,666.8,850.3z M668.8,853.5c-0.1-0.6-0.2-1.1-0.4-1.3
		c-0.7,1.9-1.7,5.3-2.5,7.7c-0.3,0.7-0.3,1.2-0.3,1.4l0.9-0.2c0.3-0.2,0.7-0.5,1.1-0.8c0.9-0.5,1.7-3.1,2.4-5.3
		C669.4,854.6,668.9,854.2,668.8,853.5z M846.7,311.9c-0.5,3.3-3.5,10.1-4.5,15.8c-1,5.7-7.7,15.2-10.7,20.2c-3,5-4.3,9.7-4.5,11.6
		c-0.3,1.9,0.8,3.9,0,5.2c-0.8,1.3-1.3,2.8-1.6,4.2c-0.3,1.4-1.1,1.8-2.4,3.1c-1.3,1.3-1.8,7-2.2,9.6c-0.4,2.6-1.1,2.8-2.4,6.2
		c-1.3,3.4-2.6,5.9-2.7,11.9c-0.1,6-1.3,6.6-3.9,13.3c-2.6,6.7-4.5,12.5-5.6,14.8c-1.1,2.4-3.2,7-5.3,10.3c-2.1,3.4-1.5,6.3-1.7,7.8
		c-0.2,1.5-2.1,3.6-2.4,5.7c-0.3,2.1,0,7.3-0.3,11.1c-0.4,3.9-0.3,5.2-0.9,10.3c-0.6,5.1-1.7,7.6-2.1,13.9c-0.4,6.2-1.3,11-2.9,15.5
		c-1.6,4.6,0.2,5.3,0,10c-0.2,4.7-0.9,8.7-0.6,10.5c0.3,1.8-0.4,2.6-1.3,5.9c-0.8,3.3,1.7,18.7,1.8,25.3c0.1,6.6-1.9,17.7-2.7,27.4
		c-0.8,9.7,1.1,26.9,0,29.9c-1.1,2.9-5.9,17.8-6.5,22.4c-0.6,4.6-8.8,17.8-11.3,21.9s-12.9,23.3-14.4,25.9
		c-1.5,2.6-6.8,11.8-7.6,16.2c-0.8,4.4-3.4,13.9-6.9,18.7c-3.5,4.8-17.9,29.9-20.3,35.7c-2.4,5.7-8.9,21.5-10.9,26.5
		c-2,5-12.2,23.9-15.1,28c-2.9,4.1-12.6,18.5-13.5,20.6c-0.9,2.1-0.1,7.7,0.2,9.5c0.4,1.8-0.2,4.5-1.3,7.4c-1.1,2.9-2.1,5-1.9,8.2
		c0.1,3.2,0.2,9.5,0.3,14.1s1.8,15.7,2.4,18.8c0.7,3.2,2.1,8.2,2.1,12.2c0.1,4,0,13.2-0.1,15s-0.8,4-2.4,6.7c-1.6,2.7-7,1.5-7.2,1.6
		c-0.2,0.1-0.4,1-0.6,1.8c-0.2,0.8-0.3,0.3-1.9,0.3s-1.3-0.7-1.3-1.4c0-0.7-2.1-0.8-3.9-1.4c-1.8-0.6-3-1-3.2-1
		c-0.2,0-0.4,1.5-1,1.8s-0.9,0-1.9-0.1c-1-0.1-1.1-2.5-1.1-3.1c0-0.5-5.2-5.8-5.2-5.8s0.9,2.1,1.7,3.8s0.3,6.9,0.5,10.3
		c0.2,3.4,0.4,4.5,0.6,9.2c0.2,4.7-0.3,4.7,1.2,10c1.5,5.3,7.3,18.1,4.7,23c-2.5,4.9-9,3.5-9.4,3.4c-0.4-0.1-1.5,1.9-2.1,2.3
		c-0.6,0.4-3.3-1-3.6-1.6c-0.3-0.6,0.9-2.5,1-3c0.1-0.5-2.2-1.8-2.7-1.9c-0.6-0.1-2.5,2-3.3,2.2c-0.8,0.2-2.5-0.9-3.4-2.2
		c-0.8-1.3,1-3.4,1.3-4c0.3-0.6-2-2.7-3.1-3.6c-1.2-0.9-3.7,2-4.2,1.8c-0.5-0.2-3.2-2.2-3.4-3.1c-0.2-1,1.3-2.7,1.7-3.6
		s0.5-0.7-0.4-1.5c-1-0.8-2.5-3.2-3-3.8c-0.5-0.5-1.9,0.9-3.5,0.9c-1.6,0-2.1-2-2.6-3.1c-0.5-1.2,2.1-3.2,1.8-3.6
		c-0.2-0.4-1.4-3.1-1.4-3.1s-1,0.2-2,0.3c-1,0.1-1.2-0.2-1.9-1.2c-0.7-1-1.1-2.1-0.5-3.5c0.6-1.4,2.5-4.5,2.5-4.5s0-2.5-2.1-7
		c-2.1-4.5-10.7-18-11.3-18.4s-2.5,0.8-3.1,0.9c-0.6,0.1-1.8-2.1-2.1-3c-0.3-0.9,0.1-1.5,0.6-2.4c0.5-0.9,1.5-1.1,1-1.9
		c-0.5-0.9-4.1-6.6-4.1-6.6s-2.7,1.5-3.5,1.5c-0.8-0.1-1.3-1.1-1.7-1.3c-0.4-0.3-1.3-2-1-3.1c0.3-1.2,2.4-3.2,2.4-3.2
		c-0.2-0.9,0.3-3.7,0.3-3.7c2.8-10.7,14.7-16.2,17.4-17.4c2.7-1.3,3.1-2.6,1.8-5.8c-1.3-3.2,6-2.1,6.9-3.9c0.9-1.8,3.4-2,3.8-2.6
		c0.4-0.6,15.1-37.8,19.2-46.9c4.1-9,4.1-16.3,4.1-16.3c3.9-41,16.7-40.4,20-51c3.3-10.6,17.5-22.9,18.4-24.5
		c1-1.6,2.5-10.8,2.5-16.7c0-5.9,0.8-31,0-38c-0.8-7.1-11.6-20-15.3-27.5c-3.7-7.5-3.9-14.7-5.5-22.9c-1.6-8.2-3.3-9.6-9.8-25.5
		c-6.5-15.9-5.7-38.2-5.9-41.8c-0.2-3.5-1.6-2.5-3.7-16.9s16-33.6,19-38.4c3-4.8,1.5-5.2,1.7-9.3c0.2-4.1,2.7-9.5,1.9-13.8
		c-0.8-4.3-2.2-13.6-2.7-18.3c-0.6-4.7,2-5.8,0.2-9.5c-1.8-3.7-7.9-15.8-7.9-22.6c0-6.9-3.7-18.1-5.5-23.2
		c-1.8-5.1-3.5-15.9-3.5-21.6c0-5.7-1.4-10.8-2.4-12.5c-1-1.8-2.7-3.7-2.2-6.5c0.6-2.7-0.2-3.7-3.1-7.6
		c-2.9-3.9-12.2-18.4-14.7-22.2c-2.5-3.7-2-25.3-2-25.3s-0.2-3.5-0.2-12.2c0-8.6-0.8-14.5-1.4-25.7c-0.6-11.2,4.1-25.3,8-35.7
		c3.9-10.4,16.3-34.1,18-37.5c1.8-3.3,4.5-14.5,4.5-14.5s0.9-1.1,1-2.2c0-1.1,1.1-1.1,1.5-2.1c0.4-1,1-1.5,1.6-2.4
		c0.6-0.9,1.1-1.2,1.5-2.3c0.4-1.1,1.4-4.1,1.8-6.3c0.4-2.3,2.3-4.1,3.2-6.1c1-2.1,1.2-5.7,1.3-7.8c0.1-2.1-0.4-4.1-1.5-6.4
		s-5.7-8.6-7.2-11.8c-1.5-3.2-1.9-7.4,0-8.8c1.9-1.4,5.5,0.2,7.6,5.1c2.1,5,8,11.4,8,11.1c0-0.3,0-3.3-0.1-6.2
		c-0.1-2.9-0.9-9.8-0.9-12.7c0-3-2.5-12,2.1-14.3c4.5-2.3,5.7,3.9,6.3,6.6c0.6,2.7,0.8,5.5,1.3,10.1c0.5,4.6,0.4,12.1,0.4,12.6
		s0.1-0.3,0.5-1.5c0.4-1.2,1.3-6.4,1.3-8.5s1.6-4.9,2.4-8.1c0.8-3.2,1.6-5.8,2.6-10.7c1-4.9,5.7-4.7,7-4.1c1.3,0.6,1.7,3.2,1.4,5
		s-1.3,7.8-1.8,11.2s-2.9,11.1-3.9,13.8c-1,2.7-0.6,4.6,0.5,4.9c1.1,0.3,1.4,0.3,2.5-0.1c1.1-0.4,6.5-8.1,7.7-10.5
		c1.2-2.4,2.9-6.6,4.6-9.2c1.6-2.6,3.5-4.7,4.9-4.9c1.4-0.2,3.3,0.6,3.7,3.3s-1.4,8.8-5.1,14.4c-3.7,5.5-8.6,12.5-9,13.4
		c-0.4,1-1,4.6-1,7.1c0,2.5-0.1,6.1-0.2,7.8c-0.1,1.7,1.4,4,3.1,5.4c1.7,1.4,1.3,1.9,7.8,0.2c6.5-1.7,14.2,1.7,15.8,3.9
		c1.6,2.2,2,4.4,1.4,6.2s-1.8,2.7-4.2,2.2c-2.4-0.5-5.6-2.7-9-2.6c-3.3,0.1-7.5,0.6-10.7,2.5s-7.7,3.1-11.1,3.9
		c-3.3,0.8-9.1,3.2-10.3,4.1c-1.2,0.9-2.7,3-3.9,5.1c-1.2,2.1-2.7,2.8-2.7,3.6s-3.8,9-5.1,15.2c-1.3,6.2-5,15.7-5,21.2
		c0,5.5-1.9,19.1-3,24.8c-1.2,5.7-2.9,9.4-3.4,11.8c-0.5,2.4-0.7,5,0.4,5.5c1.1,0.5,1.8,2.2,1.8,2.2s12.2,0.6,15,1.9
		c2.8,1.3,12.9,4.7,17.4,7.7c1.2,0.8,2.2,1.4,3.2,1.9c0,0-4.6-6-4.9-12.7c-0.4-6.7-2.4-7-2.3-10.2c0.1-3.2,1.6-5.8,0-7.1
		c-1.6-1.4-3.2-2.5-3.2-4.8c0-2.2,1.4-4.1,2-5c0.6-0.9-1.2-6.1-2-7.4c-0.7-1.3-1.9-0.3-2.1-3.5c-0.1-3.2-1.6-6.7,1-8
		c2.6-1.3,4.3-1.9,4.9-2.4c0.6-0.5,8-31.1,46.7-31.1c0,0,36.3,2.5,40.6,35.1c0,0,2.6,3.7,3.5,4.1c0.9,0.4,1.9-0.2,1.6,3.5
		c-0.3,3.8,1.4,5.8,0.1,8.5s-1.1,8.6-2.7,12c-1.6,3.4-5.1,6.8-6,8.1c-0.9,1.3,2.1-0.3,0.1,5.3c-1.9,5.6-4.9,5.5-5.4,9.4
		c-0.4,2.9-0.2,6.2-0.6,8.4c5.1-2.2,10.8-4.4,12.6-5c3.1-1.1,13.9-3.5,13.9-3.5s-1.5-3.8-3.7-8.7c-2.2-5-2.5-13.3-2.3-14.3
		s1.7-1,1.7-1c-1.8-4-4.5-23.4-5.7-28.9c-1.2-5.4-7-21.7-7.6-22.9c-0.6-1.2-2.9-7.4-5.3-11.6c-2.4-4.2-7.3-7.6-10.4-10
		c-3.1-2.4-2.7-4.6-3.9-6.5c-1.1-1.9-4.2-4.9-6.2-7.9s-1.7-3.5-3.7-5.4c-2-2-4.3-3.9-6.2-6.2c-1.9-2.4-5.7-4.1-4.7-6.8
		c1-2.7,7.2-2.1,9.9-1.5c2.7,0.5,6.9,3.9,8.9,6.4c2,2.5,3.8,4.3,4.9,5.3c1.1,1,1.6,0.5,3.3-0.1c1.8-0.7,4.9-4.9,6.4-7.1
		c1.6-2.2,2.1-6.6,2-9.6c-0.1-3,0.8-15.6,0.6-17.9c-0.1-2.3,0.4-10,4.4-13.1s5.4-0.4,5.4,1.7s-1.6,12.3-1.6,14.5
		c0,2.3,0.5,7.9,0.5,7.9s1.9-1.1,2.6-3.4s0.8-7.8,1.7-11.6c0.8-3.8,2.5-6.4,4.7-9.5c2.2-3.1,5.4-1.9,5.7-0.6
		c0.2,1.3-0.5,4.5-1.1,7.2c-0.6,2.6-1.3,7.8-1.3,7.8c0.7-1.8,3.1-2.9,5.1-2.5s2.2,2,2.2,2c0.6,1.4-0.8,6.1-2.3,8.6
		c-1.5,2.5-2.5,8.6-2.5,9c0,0.4,1.3,0.4,1.6,3.2c0.3,2.8,2.3,6.5,1.1,10.6c-1.2,4.1-5,6.5-6.1,9.4c-1.1,2.9-0.9,14.9-0.4,17.4
		c0.5,2.5,1.5,2.2,2.4,4.6c0.9,2.4,1.8,4.3,2.6,5.7c0.8,1.4-0.1,1.7,0.5,3.5s8.8,16.5,12.4,21.7c3.6,5.2,9.9,19,10.4,19.9
		c0.5,0.9,1.1-1,3.2-0.4c2.1,0.6,4,1.5,4.9,3.8c0.9,2.2,4.8,11.6,5.3,13.8c0.5,2.2,0.5,3.1-0.3,5.1c-0.8,2.1-0.2,4.6,1.5,10.4
		c1.8,5.7,1.4,27,1.8,29.9c0.4,2.9,2.7,4.8,4.6,8.6C847.4,303.6,847.2,308.5,846.7,311.9z M781.9,173.7c0.4-1-0.2-4.6,1-6.6
		c1.2-2,4.7-5.3,7.4-9.7s4.1-5.9,4.7-8c0.6-2.2,0.8-4.5-0.4-4.7c-1.2-0.2-4.2-4.6-2.2-7.8c2.1-3.2,5-12.6,4.6-12.3
		c-0.4,0.4-2.5,0.4-4.4,5.8c-1.9,5.4-5.7,12.9-4.2,6c1.5-7,3.3-11.7,3.8-15.6c0.5-3.9,2.5-10.2,0.8-7.5c-1.8,2.7-1.6-0.1-3.3,7.5
		c-1.8,7.5-5.2,17.2-6.1,14.5c-0.9-2.6-2.5-11.3-2.3-14.5c0.3-3.2,0.7-8.5-0.5-5.5c-1.2,3-1.5,3-1.4,9.4c0.2,6.4,0,11.7-2.9,16.5
		c-2.8,4.8-1.9,10-8.2,10c-6.4,0-7.2,1.2-10.1-2.9c-2.9-4.1-7.8-9.7-10.7-9.9c-2.8-0.2-7.2,1.7-3.7,2.8c1.3,0.4,6.5,1.8,8.3,5.6
		c1.9,3.8,2.7,7.3,6.2,10.6c3.4,3.3,3.6,5.2,10.6,9.8C776,171.8,781.6,174.7,781.9,173.7z M796.4,190.4c1.4-0.5,2-1,2.2-1.4
		c0,0,0,0,0,0c0.6,1.6,1.6,3.2,3.2,7.1c1.7,3.8,2,4.8,6,11.9c4,7.1,5.1,10.4,8.8,15.5c3.7,5.1,3.4,9.8,4.3,10.9
		c0.9,1.1,0.5,3.6,0.5,3.6s-0.6,1.1-3.6,2.5c-3,1.5-7.9,5.1-11.8,5.9c-3.8,0.8-6.3,2.9-6.3,2.9s6.2-1,9.6-1.5s10.1-5.3,14.3-7.9
		s1.5-2.1,1-4.7c-0.4-2.6-1.9-3.4-3.7-7.8c-1.8-4.4-2.9-7.8-6.9-13.5c-4-5.7-9.1-17.6-11.9-22.8c-2.8-5.1-6.9-12.5-6.9-12.5
		s-2.4,2.8-6.8,4.1c-4.4,1.3-6.7,1.5-7.2,1.6c-2.3,0.4-1.7,1.1-1.7,1.1s2.7,0.1,6-0.5c3.2-0.6,7.8-2.5,9.1-3s-0.2,2.2-4.5,4.4
		c-4.3,2.3-2.7,1.8-2.9,2.2c-0.2,0.4,9.2-2.8,9.9-2.3c0.7,0.6,0.1,1.5-1.7,2.5s-6.2,2.5-8.7,3.1c-2.5,0.7-5,1.1-5,1.1
		s2.3,0.5,5.8,0.3C791.1,193,792.4,191.8,796.4,190.4z M800.7,266c1.5,1.5-0.1,3,2.7,3.6c2.9,0.6,12.1-1.3,18-4.6
		c5.9-3.3,10.1-7.4,11.6-9.6c1.5-2.2,3.5-4.6,3.5-6.1c0-1.5-0.4-2.8-0.9-3.3c-0.4-0.5,0.4-2-0.4-3.2c-0.7-1.3-1.7-0.8-1.8-2.3
		s0.7-1.7-0.4-2.9c-1.2-1.2-1.4-1.3-1.7-2.6c-0.3-1.4-0.2-2.4-1.2-3.3c-1-1-3.5-2.4-3.2-2.1c0.3,0.4,2.4,3.7,2.1,5.5
		c-0.3,1.8-2.4,5.5-5.9,8.5c-3.5,2.9-10.8,8.8-14.3,9.6c-3.2,0.7-10.4-0.5-11.6-0.8c-1.4-0.4-2.8-0.8-2.9-0.7l0.1,0
		c-0.4,0.7-0.6,2.2,0.5,2.9c1.1,0.7,0,2.5,1,4c1,1.5,1-0.1,2.3,2.9C799.6,264.6,799.2,264.4,800.7,266z M812,286.7
		c-0.8-5.1-5.3-11-5.6-12c0,0-0.5,2.7-2.5,6.7c-2,3.9-3.5,10.4-5.7,20.6c-2.2,10.2,4.4,20.8,4.4,20.8s1.3-2.7,1.3-6.7
		c0-3.9,7.5-11.2,6.5-18.4C809.5,290.4,812.8,291.8,812,286.7z M768.7,282.9c-10.6,3.9-18.5,12-24.4,15.1
		c-1.4,0.7-13.5,0.8-13.8,0.8c-0.3,0,4.9,1.7,7.3,1.9c2.4,0.2,8.8,0,11.8,0s5.6-0.9,12.4-2.6c6.8-1.8,10.5-4.1,15.4-6
		c4.9-1.9,14.7-3.7,15.9-4c1.2-0.3-2.9,0-9.3,0s-8.2,0.5-17.9,4.4c-9.7,3.9-15.4,5.4-11.5,2.6c3.9-2.7,8.9-6,18.7-9.9
		c9.8-3.9,12.2-4.9,16-7.4c3.8-2.5,10.4-3.7,11.1-4.3s-4.6,1.3-13.4,3.1C777.9,278.4,779.3,278.9,768.7,282.9z M715.1,272.1
		c-0.1-2.1,1.1-5.2,1.5-6.4c0.4-1.2,38.4-0.8,39.5-0.5c1.1,0.3,0,3.1,0,5.1c0,2,0.8,3.6,0.9,3.7c0.1,0.1,0.3-4.3,0.5-6.6
		s1-3.9,1-3.9s-11.6-0.2-19.4,0c-7.7,0.2-23.4,0.1-23.9,0.4c0,0-0.7,1.2-0.9,2.3c-0.2,1.1-0.8,2.9-0.2,6.9c0.5,3.6,1.3,3.4,1.5,3.6
		c0,0.1,0,0.1,0,0.1c0,0,0-0.1,0-0.1C715.4,276.2,715.2,273.8,715.1,272.1z M710.5,250.3c0,1.1,3.8,8.1,5,8.8
		c1.2,0.7,7.5,0.4,7.5,0.4l-4.2-25.2c0,0-9.1,2.1-10.7,2.9c0,0,2.1,1.3,2.5,2.6C711,241.1,710.5,249.2,710.5,250.3z M709.1,248.6
		c0.1,0.3,0.1-3.5,0.4-5.2s-0.7-3.2-1.5-3.5c-0.7-0.3-4,1.5-5,2.1C703,242.1,708.9,248.3,709.1,248.6z M702.1,249.7
		c0,0.4-0.6,5.1,1,7.3c1.5,2.1,5,2.3,5,2C708,258.7,702.1,249.7,702.1,249.7z M722.7,234.1l3.2,25.6h21.7l4.4-24.5
		C752,235.2,739.1,231.7,722.7,234.1z M746.9,232c8.8,0.3,22,6.6,22,6.6s-7.7-5.1-13.2-6.1c-5.4-1-24.6-2.8-33.4-1.7
		c-8.8,1.1-17.1,3.5-18.5,4.1c0,0,13.1-2.9,17.9-3.2C726.4,231.5,738,231.7,746.9,232z M750,259.7c0.2-0.1,6.5,0.4,6.5,0.4l10.3-13
		c0,0-3.6,0.2-4.6-2.1c-1-2.2-1.5-4.6-0.9-5.8c0.6-1.2,0.6-1.2,0.6-1.2l-6.5-2C755.4,236,749.8,259.7,750,259.7z M760.6,261.9
		c0.3,0,5-0.5,6.9-1.8c1.9-1.3,3.6-7.8,3.6-7.8l-1.6,1.6c-0.9,0.8-5.1,4.7-6.7,6.2C761.3,261.5,760.3,261.9,760.6,261.9z
		 M774.4,230.1c-13.8-12.6-23.7-14.2-23.7-14.2c-30.9-8.4-49.3,10.4-49.3,10.4l2.8,7c31.5-13.4,65.3,2.7,65.3,2.7L774.4,230.1z
		 M748.1,268.6h-0.2c-0.7,0-1.3,0.6-1.3,1.3v6.5c0,0.7,0.6,1.3,1.3,1.3h0.2c0.7,0,1.3-0.6,1.3-1.3v-6.5
		C749.4,269.2,748.8,268.6,748.1,268.6z M740.5,268.7h-0.2c-0.7,0-1.3,0.6-1.3,1.3v8c0,0.7,0.6,1.3,1.3,1.3h0.2
		c0.7,0,1.3-0.6,1.3-1.3v-8C741.8,269.3,741.2,268.7,740.5,268.7z M731,268.7h-0.2c-0.7,0-1.3,0.6-1.3,1.3v8c0,0.7,0.6,1.3,1.3,1.3
		h0.2c0.7,0,1.3-0.6,1.3-1.3v-8C732.3,269.3,731.7,268.7,731,268.7z M724.2,268.8c-0.7,0-1.3,0.5-1.4,1.2l-0.3,6.5
		c0,0.7,0.5,1.3,1.2,1.4c0.7,0,1.3-0.5,1.4-1.2l0.3-6.5C725.5,269.4,724.9,268.8,724.2,268.8z M717.6,278.9c0,0,6.8,6.5,19.7,6
		c12.9-0.5,16.8-6.8,16.8-6.8C738.4,288.9,717.9,279,717.6,278.9z M773.8,258.3c0,0-2.3,3.5-3.7,5.1c-1.5,1.6-4.9,2.8-7.3,2.9
		c0,0,0.6,9,0.8,9.5c0.2,0.5,5.3,3.4,6.7,1.9c1.4-1.5,0.5-5.5,0.7-8c0.2-2.5,0.9-3.2,1.4-4.4C772.9,264.1,773.8,258.3,773.8,258.3z
		 M770.2,214.9c-2.1-1.5-5.3-3.3-5.3-3.3s2.2,2.1,5.3,4.4c3.1,2.4,5.9,4.4,7.4,5.5c1.5,1.1,3.6,3.6,3.6,3.6s-10.5-9-15.1-9.6
		c-0.2,0,6.2,3.1,9.2,6.1c3,3,4.2,5.4,4.3,5.6c0.1,0.2-1.4,1.5-0.9,2.8c0.5,1.3,3.5,4,0.5,5.1c-3,1.1-4.7,1.8-3.3,3.5
		c1.3,1.8,2.5,3.9,2.2,5.3c-0.3,1.4-1.8,4-3,4.6c-1.3,0.6-3.1,1.4-2.6,1.4c0.5,0,1.8,0.6,4.3-0.8c2.5-1.4,4.7-5.2,4.7-5.2
		s-0.9,3.4-1,3.6c-0.1,0.2-2.5,2.5-1.4,2.1c1-0.4,2.7-1,4-3.6c1.3-2.6,0-3.8-0.7-5c-0.7-1.2-2.2-2.4,0.3-4.5
		c2.5-2.2,1.5-2.9,1.4-4.3c-0.1-1.4,0.5-3.4,0.9-4.8s0.7-2.5-1.5-3.9C780.9,222.2,772.3,216.4,770.2,214.9z M699.1,207.1
		c21-21.9,36.8-19.8,36.8-19.8s-1.3,0.2-5.7,1.4c-4.5,1.2-10.6,5.4-10.8,5.7c-0.2,0.3,12.9-5.1,20.4-3.8c7.5,1.3,18.7,4.1,18.7,4.1
		s-2.1-1.8-6.4-3.9c-4.3-2.1-6.6-2.8-6.6-2.8c14.6,1.6,24.1,14.3,26.8,16.6c2.6,2.3,4.7,4.3,4.7,4.3l-1.9-3.6c0,0-12.8-20-37-20.6
		C713.7,184.2,698,208.3,699.1,207.1z M694.6,222.3c0,0.2,1-1.1,3.5-3.4c2.5-2.3,18.1-9.1,22.4-10c4.3-0.8,12.9-1,18.2-0.9
		s11.4,0.1,11.2,0c-0.1-0.1-5.9-1.3-12.1-2c-6.1-0.7-8.3-0.5-8.8-1c-0.5-0.5,0.5-2.2,2.5-2.2c1.9-0.1,6.8-1.1,10.7-1.1
		c3.9,0,4.5-1.3,4.5-1.3s-12.5,0.1-15.4,0.1c-2.9,0-1.4-2.2-3.1-2.8c-1.8-0.6-5.3,0.9-5.8,3.4c-0.4,1.8-0.2,4.4-0.1,5.8
		c-2.4,0.6-5.7,1.4-6.9,1.9c-1.8,0.7-6.9,3.1-5.8,1.8c1-1.3,2.5-3.5,2.8-4.3c0.3-0.8-1.5,0.9-3.5,2.4c-2,1.4-2.7,2.6-5,4.2
		c-2.3,1.6-4.4,3.3-6.2,4.9C695.7,219.4,694.6,222.1,694.6,222.3z M697.8,244.3c0.4-0.4,1.2-0.6,1.1-0.8c0-0.1-0.5-0.8-2.5-0.3
		c-2,0.5-2.8,0.8-3.4-0.3c-0.6-1.1-1.4-2.4-0.4-3.4c1-1,2.3-0.6,4.3-1.4c2.1-0.8,3.3-1.9,4.2-2.6c0.9-0.8,1.7-2.2,0.8-2
		c-0.9,0.1-2.6,0.1-2.5-1.1c0-1.2-0.7-0.8-1.6-3.7c-0.8-2.9,0.8-4.6,1.8-5.2c1-0.6,6.3-3.8,8.3-5.6c2.1-1.8,9.3-5.2,13-5.9
		c3.7-0.7,7.5-1.1,13.2-0.9c5.7,0.1,12.9,1.5,12.9,1.5s-8.8-4.3-23.7-2.4c-9.3,1.2-17.2,5.9-21.9,9.4c-2.2,1.2-4.6,2.6-5.5,3.5
		c-1.9,1.7-0.7,4.1,0,5.6s-0.5,2.6,0,3.7c0.4,1,3,2.3,1.6,3.8c-1.4,1.5-2.7,1.8-3.8,1.6c-1.1-0.2-4.5,3.4-2.2,5.6
		C693.9,245.5,697.4,244.7,697.8,244.3z M704.2,274.8c2.5,0.5,5.9-0.8,5.9-0.8s0.4-3.5,0.9-4.3s1.7-5,1.7-5.1s-1.5-1.4-2.3-1.6
		c-0.8-0.2-5.2,0.5-7.6-0.4c-2.4-0.9-3.9-5-3.9-5c0.1,0.3-0.6,6.4-0.3,9.4C698.8,270.1,701.6,274.3,704.2,274.8z M671.3,268.5
		c4.7,0.9,14.7,3.4,22.8,9.5c4.8,3.6,7.7,6.7,10.2,9.3c-3.7-2.1-8-4.6-9.4-5.6c-2.5-1.7-9.4-6.4-21.9-10.3h-0.5
		c0,0,7.3,4.5,10.6,6.6c3.3,2.1,6.8,4.7,10.6,7.4s9.4,4.8,11.1,5.3c0.8,0.2,2.2,0.3,3.4,0.3c0.5,0.4,1,0.7,1.5,1.1
		c5,3.3,17.1,6.8,16.8,6.7c-0.3-0.1-6.5-2-13.2-8.5s-9.6-8.9-15-12.9c-5.4-4-17.5-7.6-20.9-8.7C674,267.5,671.3,268.5,671.3,268.5z
		 M661.5,262c0,0,0.4,3.7-4.7,12.4c-5.1,8.6-11.4,18.2-11.4,18.2s9.6-9.8,13.1-15.3s3.5-9.2,5.3-8c1.8,1.2,4.1,3.3,4.9,8
		c0.8,4.7,1,6.3,2.9,11.4c2,5.1,0,20.2,0,20.2s3.1-11.6,2.9-18s-2.3-8.8-3-12.2c-0.8-3.3-0.9-8.2-2.5-9.7c-1.7-1.5-3.2-1.7-4.7-3.2
		C662.8,264.1,661.5,262,661.5,262z M671.1,163.2c0.5-0.5,1.6,1.1,3.5-3.8s2.7-7.3,4.8-7.3c2.1,0-2.5,9.7,2.2,10
		c4.7,0.3,6.6,0.4,12.2,0.3c5.6-0.1,12.5-1.2,15.2-1.8c2.6-0.6,7.5,0.3,6.9-0.9c-0.7-1.2-1.8-1.6-6.3-2.6c-4.5-1.1-7.4-1.9-7.8-5.2
		c-0.5-3.3-1.9-8.3-3-9.7c-1.2-1.4,4-11.1,4.3-12.1c0.3-1,0-1.5-2.4,1.1s-6.8,6.3-8,7.9c-1.3,1.7-1-5.3-1-7.6c0-2.4-1.2-4.5-1.7-2.2
		c-0.5,2.4-1.7,7.6-2.7,7.9c-1.1,0.3-2.4-0.8-3.3-3.1c-1-2.4-1.1-5.6-2.5-2.4c-1.4,3.2,2.1,6.9-2,6.6c-4-0.3-4.3-8.4-7.1-5.4
		c-1.2,1.3,1.5,8,0.4,12.6c-1.1,4.6-1.6,9.1-1.7,12.6S670.6,163.7,671.1,163.2z M632.2,255.1c0.4,3.3,1.4,10,1.4,7.3
		c0-2.7-0.4-10,1.2-12s7.5-1.2,8.6-2.2c1.2-1-5.7-1.6-2-8.4c3.7-6.9,3.9-12.4,4.9-16.1c1-3.7,7.8-3.3,8.8-4.1c1-0.8-0.1,0.4-1-5.5
		c-0.9-5.9-1.6-5.1,0-12c1.6-6.9,2-14.5,3.8-18c1.8-3.5,3.5-3.9,7.1-2.5c3.5,1.4,9.6,2.5,9.6,2.5s-1.3-1-3.5-2.4
		c-2.2-1.3-4.9-0.9-6.9-3.3c-2.1-2.4-4.7-3.9-5.3-5c-0.6-1.2-0.9-2.2-0.9-2.2s-1.2,6.3-0.1,7.3c0,0-6.5,13.3-8.6,21
		s-4.1,13.1-6.5,19.2c-2.4,6.1-6.7,16.1-8.6,22.4C632.2,247.3,631.8,251.8,632.2,255.1z M654.1,348.3c0,0-0.7-2.9-2.3-7.8
		c-1.6-4.9-4.3-7.8-4.7-12.7c-0.4-4.9-4.3-5.9,0.8-8c5.1-2.2,10-3.3,3.3-5.6c-6.7-2.3-7.5,0.3-9.2-3.2s-2-2.4-2.4-8.8
		c-0.4-6.5-2.7-9.8-2.9-13.7c-0.2-3.9-3.5-8.4-3.5-8.4c0,2.9,0,12.4,0,20.6c0,8.2,0.6,13.1,3.9,17.8c3.3,4.7,7.1,10.2,9.6,16.7
		C649.3,341.4,654.1,348.3,654.1,348.3z M670.6,428.1c-0.2,0.2-0.3,0.3-0.3,0.3s-2-22.2-2.3-26.4c-0.3-4.3,0-9.4-2.8-11.6
		c-2.8-2.2,0.6-17.6,2-22.5c1.5-4.9-2.2-0.4-6-0.7s12.6-26.7,12.6-26.7l0,0c0.8-1.9,1.6-3.8,2.2-5.5c2.4-6.6,4-11.9,5.4-18.7
		c1.5-6.8-0.1-24-3.6-32.6c-3.5-8.7-4.9-7.6-4.9-7.6s3.4,8.2,4.6,13.7s-0.6,25.6-6,39.6c-5.4,14-16.9,25.3-17.4,26
		c-0.4,0.7,1.5,6.5,1.9,12.2c0.4,5.7,1.5,4.1,2.8,10.4c1.3,6.3,1.2,7.1,2.1,12.6c0.9,5.6,1.6,4.7,1.9,11.3
		c0.3,6.6,4.3,15.9,4.9,17.5c0,0,2.4,7.9,2.6,9.1C670.4,428.6,670.5,428.5,670.6,428.1z M659.9,528.8c6.5,3.5,12.7,6.2,27.3,0.8
		c14.5-5.4,45.5-7.5,45.5-7.5s-9.2-3.3-30,0.8c-20.8,4.1-34,6.1-31,4.1c2.9-2,31-7.1,31-7.1l-27.7-0.2c0,0-2.4-7.6,7.3-10.2
		c9.6-2.5,13.3-2.7,19.2-1.6c5.9,1.2,12,1.6,4.7-2.7s-18-24.3-18-24.3s-1.2-5.3-2.9-15.3c-1.8-10-2.7-6.3-5.1-14.3
		c-2.4-8-4.7-19.6-4.7-19.6s-3.1,8.6,0.6,13.3c2.3,2.9-2,11.2-0.4,14.9c1.6,3.7,3.1,1.6,1.8,12.9c-1.4,11.4-0.8,14.9-4.7,20.4
		c-3.9,5.5-10.6,6.3-13.3,17.1C656.6,521.2,653.4,525.3,659.9,528.8z M691.2,650.6c6.3,9.4,10.3,20.9,10.3,20.9s2.3-6.8,0-11.5
		c-2.3-4.7-11.8-18.2-13.4-23.8c-1.6-5.6-3.3-8.5-3.9-15.3c-0.6-6.8-5.9-14.1-5.3-17.6c0.6-3.5,4.9-10,9.2-12.1
		c4.3-2.1,11.1-5,11.1-5s-1.9,0-11.1,0s-13.3-1.2-13.6-4.4c-0.3-3.2,3.6-4.3,1.9-10c-1.8-5.7-7.1-6.1-6.3-11.8
		c0.8-5.7-1.6-9.8,1.8-10.4s-1.8,2.5,7.5-0.8c9.3-3.3,8.3-5.8,14.9-8.4s11.6-5.9,19.9-6.5c8.3-0.6,8.2-1.4,16.5,0.3
		c8.2,1.7,22.3,2.6,22.3,2.6s-6.2-3-13.2-4.6c-6.9-1.6-15.5-2.6-25.2-2.5c-9.7,0.2-21.7,4.5-24,6.8c-2.4,2.3-9.7,9.9-17.1,9.5
		c-7.4-0.4-10.9-1.2-11.4-2.1c-0.5-0.9,2.1-0.6,5.7-1.1c3.6-0.5,11.3-2.8,11.3-2.8s-4.2,0-11.8-0.7c-7.5-0.7-13.1-3.8-13.1-3.8
		l-1.8-2.6c0,0-0.3,4,0.9,5.4c1.2,1.4,2.9,3,4,3.8s0.5,2.6,0.5,2.6l-1,1.3c0,0-2.6,18,3,27.2c5.6,9.1,8.5,16.8,10.8,25.6
		c2.4,8.8,6.8,30.3,10,35.6C683.9,639.7,684.9,641.2,691.2,650.6z M697.6,696.4c-0.3,0-2.8-1.6-4.1-2.9s-2.4-0.8-2.4-0.8
		s2.5,2.8,3.4,4c1,1.2,4.5,3,6.2,3.2c1.7,0.2,0-1.9,0-5c0-3.1-0.2-6.8-1.3-11.4c-1.1-4.6-1.5-5.8-3.1-9.1
		c-1.7-3.3-3.6-10.6-3.6-10.6s-0.3,8.7,1.8,12.5c2.1,3.8,1,2.5,1.8,6.1c0.9,3.6,0.6,7.4,1.2,10.2
		C698.1,695.5,697.9,696.4,697.6,696.4z M653,790.3c-0.1-1.1-0.6-8.3,1.1-14.2c1.8-6.5,13.1-28.1,13.1-28.1s-6.3,8.2-7.1,10.1
		c-0.8,1.9-6.2,11.2-7.1,15.6C652,777.8,652.9,788.9,653,790.3z M637.3,831.4c0,0,3.8-1.6,5.6-3.1s2.7-3.9,5-7c2.3-3,2.7-4.4,4-6.5
		c1.3-2.1,4.2-6.1,3.5-10.4c-0.7-4.3-1-4.6-1.6-7.8c-0.5-2.5-0.7-4.6-0.9-6.2c0,0,0,0,0,0c0-0.4-0.1-0.8-0.1-1.2
		c-0.2-1.6-0.7-8.4-0.7-8.4s-1.4,5-0.2,11.5c0.1,0.3,0,7.9,0,12.7c0,4.8-5.7,15.7-6.7,17.4C644.3,824.1,637.3,831.4,637.3,831.4z
		 M630.3,855c0.9,2.2,1.1,1.4,2,1.4c0.9,0,1.1,1.2,1.6,2.3c0.5,1.2-0.9,1.9-1.3,2.8c-0.4,0.9,0.7,2.6,1.3,4c0.6,1.4,2.2,0.1,2.4,0.8
		c0.2,0.6,0.8,2.4,0.8,5.1c0,2.7,1.8,8.6,1.8,8.6s-0.4-12-0.6-13.7c-0.1-1.7-1-1.6-1.6-1.6c-0.7,0-1.2-1.3-1.5-2.2s0.6-3.7,0.4-4.8
		c-0.2-1-1.7-2.3-2.4-2.4s-0.9-2-0.6-2.8c0.4-0.8,0.8-1.4,0.4-2.7c-0.4-1.3-0.4-6.8-0.4-6.8s-0.8,3.9-0.8,5.8c0,1.9-1,2.1-1.8,2.9
		C629.1,852.5,629.4,852.8,630.3,855z M606.6,888.4c8.7,6,8.3,8.8,11.6,16.8c3.3,8,7.3,15.9,7.3,15.9s-0.1-3.3-1.3-11.1
		c-1.2-7.8-0.9-10-2.2-13.5c-1.3-3.5-2.8-6.5-1-8.8c1.8-2.4,3.5-3.8,1-7.4c-2.5-3.5-5.7-8.6-3.9-10.5c1.8-1.9,1.7-4.5,1.7-5
		s-0.1-2.6,0.6,0c0.8,2.7,1.9,6.6,3.3,8.7c1.4,2.1,8.6,6.9,10.2,7.5c1.6,0.7,5.3,2.6,5,2.2c-0.3-0.5-2.6-2.7-6.3-5
		c-3.6-2.3-6-4-7.4-6.7c-1.3-2.6-1.9-3.7-2.4-7.4c-0.5-3.7,1.1-6.1,1.1-7.2c0-1-1.5-1.7-1.9,0c-0.4,1.7,0.1,2.5-1.1,2.3
		s-1.8-0.6-2.3,0.4c-0.4,0.9-1,0-1.8,0.1c-0.8,0.1-1.8,0.5-0.3,1.7c0,0,2.1,1,1.7,2.6c-0.4,1.7-5.2,3.6-6.5,4.4
		c-1.3,0.8-8.6,3.9-12.2,9.9C599.3,878.5,597.9,882.4,606.6,888.4z M659.8,965c-0.4,0.8-1.5,3-1.9,3.2c-0.4,0.2-1.4-0.5-2.5-0.6
		c-1-0.1-5.8-3.8-8.3-5.6c-2.5-1.8-5.5-3.3-8.2-6.3s-7-8.7-8.4-10.1c-1.4-1.5-4-4.7-5.3-8.8c-1.3-4-4.1-8.3-4.6-12.4
		c-0.6-4-3.1-9.8-4.8-13.5s-6.7-10.2-9.6-13.8s-6.2-8.1-7.5-9.9c-1.3-1.8-1.7-2.2-1.5-3.4c0.3-1.2-0.3-1.7,0.4-3.6c0,0-2.5,4-1,6.9
		c1.4,2.9,7.3,10,11.1,15.4s8.2,13.1,10,17.2s5.2,20.5,9.2,24.9c4,4.4,16.4,17.6,20.7,20.7c4.3,3.2,8.2,5.1,9.3,4.6
		c1-0.4,3.5-2.6,4.1-3.9c0.7-1.3,0.7-4.6,0-7.1c-0.7-2.5-5.8-12.7-5.8-12.7s-0.3,1.7,0.3,3.1c0.6,1.4,1.4,2.4,2.1,4.9
		c0.7,2.5,1.3,3.3,1.9,5.4C660.2,961.9,660.2,964.2,659.8,965z M643.1,915.4c0,0-1.9,1.3-2.4,2.2c-0.5,1-0.5,2.8,1.6,2.8
		c2.1,0,4.3-0.8,5.1-2.2c0.8-1.4,1.3-2.9,1.3-4.3c0-1.4,0.1-3.5-1-5.3c-0.1-0.1,0.7,2.1,0.1,5.1c-0.6,3-1.1,5-4.5,5.4
		C639.7,919.5,643.1,915.4,643.1,915.4z M650.2,910.6c0,0,0-0.2-0.1-0.6s-0.4-2-0.6-2.6c-0.3-0.6-2.3-2.2-2.6-2.2
		c-0.2,0-1.3,0-2.1,0.1c-0.7-0.2-1.6-0.4-2.3-0.5c-1.4-0.2-2.6,0.9-3.1,1.7c-0.5,0.7-0.3,2.2,0.6,2.8c1,0.6,2.6,0.8,2.6,0.8
		s-2.6-0.8-2.2-2.7c0.3-1.3,2.2-1.7,3.6-1.7c-0.1,0.5,2.1,0.8,2.1,1.5c0,0-0.2-0.1-2,2.1c-1.8,2.2-5.8,5.1-5.3,6
		c0.6,0.9,2,0.4,3.7-0.7c1.7-1.1,3.2-3.1,3.2-3.1s-2.2,1-3.2,1.7s-2.1,2.5-2,1.3c0.1-1.2,2-2.7,3.1-3.4c0.8-0.5,1.9-2.1,2.4-2.9
		c0,0,0,0,0,0c0.6,0.5,1.3,0,2.2-0.1c0.9-0.1,0.4,1.3,0.2,1.7c-0.2,0.4-0.3,0.7-0.1,1.5c0.2,0.8,1.5,0.4,1.7,0.9
		c0.2,0.5,0.6,1.3,1.4,2.4c0.7,1.1,0.1,1.3-0.2,1.8c-0.4,0.5-1,0.6-0.9,0.9c0.1,0.3,2.5-0.1,2.8,0.3c0.2,0.4,0.4,1.5,0.4,2.6
		c0,1.1-0.5,2.8-0.5,5.1c0,2.3,0.3,3.4,0,4.2s-0.4,1.5-0.4,1.5s1.3-1.1,1.3-1.6c0-0.5-0.3-2.8,0-4.3c0.3-1.5,1.1-6.8-0.4-9
		S650.2,910.6,650.2,910.6z M678,911.2c-1.2,2.5-2,6.5-10.1,3.8c-8.1-2.7-7.1-4.6-10.8-7.6c-3.7-3-8.2-6.8-9.4-8.8
		c-1.3-2-2.8-1-2.6-8c0.1-7-1.1-4.8-1.8-15.8c-0.7-11-2.2-15.7-4-20.1c-1.8-4.4-2.1-4.9-2.4-9.5c-0.3-4.6-0.4-6.6-0.4-8.7
		c0-2.1-0.2-4.1-0.2-4.1c-0.2,0.3-2.8,4.5-1.7,13c1.2,8.5,2.7,11,4.2,15.9c1.5,4.9,1.5,11.9,2.7,18c1.3,6.2,1.1,13.4,2.3,17
		c1.2,3.5,12.5,15.7,16.8,18.6c4.2,2.9,10,4.6,13.1,3.7s6.4-4.5,6.9-5.5c0.5-1,0.8-6.8,0.8-6.8S679.2,908.8,678,911.2z M668.6,870.6
		c1.2-0.5,2.1-0.9,2.6-1c0.9-0.2,2.3-0.8,2.7-2c0.4-1.2,0-1.2,0-1.2s-0.8,0.4-1.3,0.7c-0.5,0.2-2.7,1.3-3.2,1.6
		c-0.2,0.1-1.6,0.6-3,1c-0.5-0.2-0.9-0.4-1.5-0.6c-3.1-1.2-6.6-2.2-6.8-2.3c-0.5-0.2-1.7,0-1.7,0s0.3,0.4,1.3,1.1
		c0.9,0.6,1.7,0.7,3.9,1.7c0.6,0.3,1.4,0.6,2.1,1l-2,1.5c-1.7,0.7-2.8,1.1-3.1,1.8c-0.3,1.1,0.2,0.9,1.6,0.7
		c1.4-0.2,2.3-1.2,4.5-2.2c0.5-0.2,1-0.4,1.5-0.7c1.2,0.5,2.3,1.1,3.5,1.6c2.9,1.3,3.4,0.7,4.3,0.9c0.9,0.2,0.5-0.6,0.5-0.9
		s-1.6-0.8-3-1.3C670.9,871.7,669.8,871.2,668.6,870.6z M666.1,879.8c-0.1,0.1-0.3,0.2-0.4,0.2c-2.5,1.5-5.8,2.8-5.9,2.9
		c-0.7,1.5,0.1,0.9,1,0.9s2.2-1.3,3.6-1.8c1.1-0.4,2-1.1,3.5-1.8c0.1,0,0.2,0,0.3,0.1c2,0.5,5.1,2,5.9,2.3c0.8,0.3,1.8-0.2,1.8-0.2
		s-1.1-0.7-2.4-1.2c-1.1-0.5-2.4-0.8-4.5-1.4c2.1-1,3.5-1.9,4.3-2.3c0.8-0.4,0.7-0.9,0.7-1.2c0-0.3-0.9-0.5-1.9,0
		c-0.8,0.4-2.9,1.7-4.9,2.9c-2.8-0.8-7-1.7-7.2-1.7c-0.3,0-0.8,0-0.8,0.5c0,0.5,1.1,0.5,3.6,1.1
		C664.2,879.4,665.2,879.6,666.1,879.8z M678.9,843.5c-0.2-0.2-2.4,2.5-3,3.1c-0.7,0.6-2.1,0.7-1.8-0.1c0.2-0.8-0.7-1.3-2.9-2
		c-2.2-0.7-2.5,0.7-4.3,1c-0.9,0.2-1.1,0.3-1.2,0.4l-2.2-0.2c-2.8,0-6.6-1.8-9.9-3c-3.3-1.2-9.3-0.7-11.8,0c-2.4,0.7-4.6,3.2-3,4.9
		s7.4,2.6,9.9,3.1c2.5,0.4,7.6,2.1,9,2.4c0.4,0.1,0.8,0.1,1.2,0.2c0,0,0,0,0,0c1.3,0.1,2.7,0.3,4.1,0.2c-1.5,0.6-3.5,1.3-5.3,2.1
		c-3.3,1.4-4.8,3-4.8,3s2.6-0.7,5.2-1.9c2.6-1.1,8.4-3.1,8.9-3.4c0,0,0,0,0,0c-0.3,0.7-0.6,1.5-0.9,2.2c-0.2,0.7-0.4,1.3-0.6,1.8
		c-0.3,0.5-0.7,1-1.1,1.6c-1,1.7-3.2,2.5-4.4,2.5c-1.2,0-4-0.8-4-0.8s1.2,1.6,3.2,1.8c2,0.2,2.5,0.2,2.8,0.3
		c0.3,0.1,1.6-0.4,2.4-1.2c0.1,0.2,0.2,0.4,0.5,0.6c0.4,0.3,1,0.3,1.5,0.2c0.9,0.6,2,1.2,2.6,1.4c1.3,0.5,5.2,1.1,5.4,0.7
		c0.1-0.4-0.3-0.7-0.8-0.8c-0.5-0.1-1.9-0.4-3-0.8c-0.8-0.3-2.1-0.8-2.8-1.1c0.1-0.1,0.3-0.2,0.4-0.4c0.1,0,0.1,0,0.2,0
		c0.9-0.1,2.3,0.4,3.8,0.6s3,0.4,2.8-0.1c-0.2-0.4-1.3-0.8-2-0.8c-0.7,0-3.4-0.9-3.9-0.8c0,0,0,0,0,0c0-0.1,0.1-0.1,0.1-0.2
		c0.3-0.7,0.8-2.6,1.3-4.5c0,0,0,0,0,0c0.7,0.8,0.7,1.3,1.3,2.1c0.5,0.8,3.4,1.5,3.9,1.8c0.6,0.3,2,0.7,2,0.3c0-0.4-2.6-2.5-4.6-3.7
		c-2-1.2,0-1.8-0.1-3s1.1-0.7,1.8-0.9c0.7-0.2,2.1-0.5,2.2-1c0.1-0.4-1-0.4-2.6-0.5c-1.6-0.1-0.7-0.2-0.6-0.6c0.1-0.3,3.4-2.9,4.3-4
		S679.1,843.7,678.9,843.5z M679,833.1c-1.5-0.2-4-0.2-5.6-0.2c-1.7,0-6.1-1.8-8.2-2.3c-2.1-0.4-6-1.5-8.2-0.4
		c-2.3,1.1-3,4.3-4.1,4.7c-1,0.4-3.9-2.3-5-3.4c-1-1.1-3.2-1.1-2.9-0.8c0.2,0.2,6.5,6.8,6.8,7c0.3,0.2,0.9,0.7,2-1.3
		c1.1-2,3.5-4.2,4.2-4.4c0.7-0.2,5.2-0.5,8.3,0.4c3,0.9,5.2,1.7,6,1.9c0.9,0.2,3.4-0.2,4.1-0.2s3.5-0.1,3.5-0.1
		S680.5,833.3,679,833.1z M680.7,815.9c-0.1-2.2-3.7,1.5-10.4,1.1s-8.5-4.1-8.3-3.8c2.2,4.3,4.9,4.7,7.9,5.3
		c3.1,0.6,6.3-0.7,7.3-0.6c1,0.1,0.3,1.3,0,2.1c-0.3,0.8-0.3,1.7-0.2,2.6c0.1,1-0.7,0.6-1.8,0.7c-1.1,0.1-3.2,0.1-6.8-1
		c-3.5-1.1-4.1-1.9-4.7-2c-0.6-0.1,1,1.3,2.4,2c1.4,0.8,3.5,2.1,7.6,3.2c4.1,1.1,2.9,0.1,3.1,1c0.1,0.9,0.2,2.3-1,2.8
		c-1.2,0.5-2.7-0.4-5.1-1c-2.4-0.5-6-1.7-7.4-2.9c-1.4-1.2-4.3-3.2-4.3-3.2s4.6,5.3,7.5,6.8c2.9,1.5,9.8,2.8,11.6,2.3
		c1.8-0.5,0.7-0.5,0.8-1.7c0-1.2-0.3-3.2,0-4.1c0.3-0.9,1-2.6,1-5.4S680.8,818.1,680.7,815.9z M712.2,768.4l-2.5,1.7
		c0,0-9.3,10.3-13.4,17.2c-4.1,6.9-8.8,16.6-10.4,20.1c-1.6,3.5-4.1,13.7-4.1,13.7s3.4-7.4,4.3-9.4c0.9-2.1,3.1-7.1,5.7-11.2
		c2.6-4.1,8.7-16.1,11.2-19.1C705.5,778.5,712.2,768.4,712.2,768.4z M703.6,734.7c-8.6-5.7-11.9-17.2-12-16.1
		c-0.4,5.9,4.9,16.5,10,19.4c5.1,2.9,6.1,4.3,6.1,5.9c0,1.6-3.1,4.7-5.1,4c-2-0.7-7.3-3.2-11.8-6.8c-4.5-3.5-9.6-6.9-9.6-6.9
		s10.8,16.5,17.8,18.6c7.1,2.2,3.5,3.9,2.7,6.7c-0.8,2.7-2.9,5.3-3.9,7.6c-1,2.3-9.6,5.3-16.7,1.9c-7.1-3.4-14.1-12.7-14.1-12.7
		s2.2,5.7,4.8,10.8c2.6,5.1,11.7,7.3,13.8,9.6c2.2,2.4,0.8,3.5,2.3,8.6c1.6,5.1-2.5,4.7-9.1,11.8c-6.6,7.1-2.8,9.4-1.9,12.4
		c1,2.9-4.5,2.5-9,1.8c-4.5-0.8-8.3-4.3-8.3-4.3c8.8,14.1,18.7,7.5,20.2,5.5c1.5-2,2.2-3.9,3.2-6.5c1-2.5,1.8-5.5,2.5-8.4
		c0.8-2.9,4.7-6.7,5.9-10.6s3.7-7.1,7.5-13.3c3.7-6.3,7.1-6.7,8.8-11c1.8-4.3,5.1-8.2,5.5-13.3c0.4-5.1,2.4-3.9,2.9-6.3
		C716.9,740.8,712.2,740.4,703.6,734.7z M744.2,684.1c0,0-3.3-1.8-5.3-2.6s-10.1-2.7-14.2-3.6c-4.1-0.9-13.8,1.3-13.8,1.3
		s4.1,1.4,6.8,2c2.6,0.6,2.5,2.1,1.7,4.1c-0.9,2.1,0.1,3.5,2.6,6.8c2.5,3.2,0.8,6.4,1.1,9.1c0.3,2.7,2.9,4.4,6.7,4.8
		c3.7,0.4,3.9-2.5,4.6-5.3c0.7-2.7,1.6-3,4.9-6.3c3.3-3.2-1.4-2.7-0.9-3.7c0.5-1,1.1-2.3,2-4.3C741.2,684.2,744.2,684.1,744.2,684.1
		z M749.3,679.1c0,0,2.4-10.7,0-22.6c-2.4-12-3.2-12.7-4.4-20.6c-0.3-2.1-0.7-4.3-1-6.6c0,0,6.5-10.5,9.5-16
		c2.9-5.5,9.6-12.2,12-16.7c2.4-4.5,5.7-11.2,5.7-12c0-0.8-8.8,6.1-8.8,6.1s0-1.8,2.2-5.1c2.2-3.3,4.9-15.9,5.1-25.1
		c0.2-9.2-1.6-14.5-1.6-14.5s0,5.9,0,9.5s-0.4,16.4-7.5,27.4c-5.8,9-13.8,7.9-17.4,7.7c-0.6-6.1-1.8-13.9-2.7-18.6
		c-1.5-6.9-3.5-16.5-3.5-16.5s-0.6,5.3,0.4,8.5c1,3.2,1.2,7.2,1.2,7.2l-6.3-7.6c0,0-1.2,1.2,2.2,6.5c3.4,5.3,4.7,11.6,4.9,19.6
		c0.1,5.1,1.1,10.7,1.4,14.6l-0.3,4.6c0,0.1-0.1,0.1-0.1,0.2c-1.5,2.2-5.9,1-11.9,1c-6,0-15.7,2.2-15.7,2.2s2.2,0.4,10.3,0.3
		c8.1-0.1,13.7-0.3,14.7,0.4c1,0.7,2.2,2.4,2.2,4.3c-0.1,0.8,0,1.5,0,2.3c0.1,3.4,0.4,9.3,1.1,14.2c1,6.3,2.5,12.1,3.8,16.6
		c1.3,4.6,1.9,8.7,1.9,15.1c0,6.5,0.4,9.1-1,10.2c-1.5,1.1-3.8,0.8-8.6-0.4c-4.8-1.2-8.7-2.5-11.9-2.7c-3.1-0.2-8.4-0.6-12.7,1.2
		s-9.3,5.3-9.3,5.3s12.6-4.1,19-4c6.3,0.1,8.8,1.2,14.6,2.6C742.4,679.3,749.3,679.1,749.3,679.1z M786.5,537.2
		c-0.4-2.3-0.3-2.3,0.1-3.7c0.4-1.5,0.4-3.1,0.4-3.7s-1.9,1.5-2.8,2c-1,0.5-6.4,3.5-9.2,4.8c-2.8,1.3-13,3.2-18.9,3.4
		c-5.9,0.2-11.1,0.4-11.1,0.4s0,0,10.5,1.2c10.5,1.2,25.4-4.5,26-5c0.7-0.5,0.3,13.2,0.3,18.5c0,5.3,0,7,0,14.4s1,22.5,1,26
		c0,3.5,0.5,11.7-2,19.2c-2.5,7.5-4.4,20.8-6.8,24.6c-2.4,3.8-4,6.9-5.7,9.8c-1.7,2.9-3,2-4.8,2.3c-1.8,0.3-4.3-1.4-8.6-3.8
		c-4.3-2.5-6.3-2.3-6.3-2.3s7.4,6.7,10.7,8.1c3.2,1.5,4.4,0.5,4.9,1.1c0.5,0.6-2.8,4.8-3.8,6.7c-1,1.9-3.7,7.5-5,10.3
		c-1.2,2.8-2.3,8.2-3.2,9.5c-0.9,1.3-2.5,4.5-2.5,4s-0.6-1.9-1-2.5c-0.4-0.6,0,8.8,0,9.2c0,0.4,3.1-6.4,4.7-10.1
		c1.6-3.7,2-5.6,5.8-12c3.8-6.4,5.9-10.9,8.6-15.4s3.3-5.6,6.5-10.5c3.1-4.9,4.1-5.2,5.6-11.3c1.5-6.1,4.8-21.1,4.8-28.7
		s0.3-12.4,0-30.6c-0.1-8.6-0.1-16.7-0.1-22.8c0.2-0.7,0.3-1.4,0.3-1.9c0-1.6,1.1-3.3,2-6.1C787.8,539.7,786.9,539.4,786.5,537.2z
		 M796.4,430.8c0-5.7-1.6-13.5-1.6-13.5s-1.6,10.6-1.8,13.3c-0.2,2.7-2.2,5.5-3.5,12.5c-1.4,7.1-2.2,4.5-4.7,15.7
		c-2.5,11.2-3.7,17.5-8.6,14.3c-4.9-3.1-15.3-12.2-17.8-13.9s10.8,14.9,18.2,25.5c7.5,10.6,3.9,5.4,2.7,11.5
		c-1.2,6.1-1.8,13.9-1.8,14.5c0,0.6-4.7-3.9-11.4-12.2s-24.4-37.8-24.4-37.8s3.1,6.7,12.4,28.4s18.2,29.2,22.7,31.6
		c4.5,2.4-0.6,4.1-5.7,4.1s-18.8-2-28.2-6.7c-9.4-4.7-19.2-5.5-19.2-5.5s11.6,4.3,21.3,9.8c9.7,5.5,12.6,6.3,19.7,7.1
		c7.1,0.8,18.4-0.7,20-2.4c1.6-1.8-1-14.7-1-19s0.8-8.4,1-13.1c0.2-4.7,1.4-4.1,2.7-8.6c1.3-4.5,0.4-5.9,1.2-8c0.8-2.2,2-6.3,1-13.1
		c-1-6.9,0.8-1.8,0.6-6.9c-0.2-5.1-0.2-4.3,1.4-7.3c1.6-2.9,1.4-10.4,1.6-11.6C793,439.6,796.4,436.5,796.4,430.8z M819.1,359
		c0,0-2.4,0.8-5.1-4.3c-2.7-5.1-2.4-5.9-5.1-10.4c-2.7-4.5-4.7-13.9-7.6-20.4c-2.9-6.5-3.3-8.2-3.3-12.5s-2.7-10.2-2.2-14.1
		c0.6-3.9,0.8-7.1,0.8-7.1s-2,4.3-1.8,10.8c0,1.4-0.4,1.4,0,15.7c0.4,14.3,1.2,17.5,1.6,27.6c0.4,10.2-3.7,30.6-3.7,30.6
		s2.5-6.3,5.1-15.1c2.5-8.8,2-20.6,2.2-19.2c0.2,1.4,4.7,9.2,9,16.3c4.3,7.1,3.3,16.3,3.1,18c-0.2,1.8-13.3,0.6-11.4,3.1
		c2,2.5,5.3,4.7,3.3,8.6c-2,3.9-4.1,5.9-1.5,7.3c2.5,1.4,1.6,5.9,0,7.8c-1.6,2-4.5,2.9-3,10c1.6,7.1,0.4,19.8,2,17.6
		c1.6-2.2,6.3-12.9,7.6-19.2c1.4-6.3,0.1-10.4,3.2-18s3.9-10.2,4.9-14.9c1-4.7,2.2-9.4,2.9-11.9C820.9,362.8,819.1,359,819.1,359z
		 M840.3,301.6c-1.4-6.9-2.4-7.3-2.4-14.7c0-7.5-1.4-22.9-1.4-22.9s-2.9,20-3.1,24.7c-0.2,4.7,2,7.8,1.4,12.4
		c-0.6,4.5-2.2,8.2-2.7,15.7c-0.6,7.5-1,1.8-7.3,8.6c-6.3,6.9,1.2,12.2-2.2,17.1c-3.3,4.9-5.5,2.5-7.3-0.8c-1.8-3.3-4.9-5.7-4.9-5.7
		s2.5,10,3.5,13.7c1,3.7,9,8,10.4,10.3c1.4,2.3,0.8 -4.2,1.5-8c0.7-3.7,3.4-6.9,6.4-13.5c2.9-6.7,7.1-8.2,7.5-11s-0.7-7.1,2.1-13.3
		C844.6,307.9,841.7,308.4,840.3,301.6z M811.6,259.5c-2.3,0.7-3.8,1.1-4.8,1.2c0.7,0.4,1.8,0.8,3.4,1.1c4,0.6-1.8,1.4-4.4,2.6
		c-2.6,1.3,0.4,1,3.2,0.1c2.7-0.8,7.2-2.7,14.3-6.5c7.1-3.8,9.3-6.8,9.9-9.3c0.7-2.6-3.4,1.9-4.9,3.4
		C826.9,253.5,820.3,256.8,811.6,259.5z M806.3,258.3c2.6-0.9,6.5-2.1,9.1-3c4.5-1.5,9.6-5.4,12.2-8.4c2.6-3,0.4-3,0.4-3
		s-7.9,6.5-10.9,7.9c-2.6,1.2-8.9,3.4-12.2,3.9c-0.2,0.3-0.3,0.7-0.2,1C805,257.4,806.1,257.8,806.3,258.3z M708,222.3l6,6.7
		c2.9-0.6,12.5-1.9,12.5-1.9l-7.9-10.1C716.4,217.5,708,222.3,708,222.3z M721.4,216.4l7.6,10.8l5.9-0.5l-5.5-11.8
		C729.5,214.9,721.9,216.4,721.4,216.4z M731.7,214.9l5,11.8l4.2,0.5l-3.6-12.7L731.7,214.9z M702.3,71.3
		c-1.8-15.7,3.5-26.9,9.6-32.7c6.1-5.9,22.4-10.2,36.5-6.9c14.1,3.3,23.3,15.1,24.3,20.6c1,5.5,6.1,18.2-12.2,38.6
		c0,0-21.1,11.8-40.7,1.9C719.8,92.8,704,87,702.3,71.3z M714.4,38.3c0,0,6-1.3,10.1-0.4c4.1,0.9,2.8,2.1,6.6,2.2
		c3.7,0.1,6.6-1.5,13-0.8c6.5,0.7,4.7-0.4,9.8,1.6c5.1,2,10.4,1.7,10.4,1.7s-14.6-9.1-25.8-10.8c-11.2-1.7-21.5,4.6-21.8,4.9
		L714.4,38.3z M706.1,76.7c0,0,0.2,1.2,1.4,4.1c1.2,2.9,11.4,10.7,15.2,12c3.8,1.2,11,2.5,11,2.5s-3.4-2.5-6.7-4
		c-3.2-1.5-6.2-1.7-7.6-4c-1.5-2.4-2.5-4-2.9-5.2c-0.4-1.2,0.3-3.6-0.2-5.4c-0.5-1.9-2.1-3.7-2.1-4.4c0-0.5,1.7-1.9,2.8-2.8
		c5.8,10.9,21.1,21.1,21.1,21.1s-13.8-14.8-15.2-19.3l-0.9-2.3c0,0,28.8-19.5,43.5-20.8c0,0-18-2.2-45,16.6c0,0-5.7-4-6.7-24
		c0,0-2.3,15,2,26C713.7,68.5,708.4,72.9,706.1,76.7z"/>
	<path d="M666.8,850.3c-0.4,0.7-0.7,1.3-0.8,1.7c-1.5,0.4-3.2,0.8-4.4,0.9c-0.5,0-1.1,0-1.6,0c-1-0.4-2.3-0.9-3.6-1.3
		c-2.4-0.8-6.4-1.8-8.6-2.4c-2.2-0.5-7.6-1-7.6-2.7c-0.1-1.7,7.2-3.4,9.4-2.6c2.2,0.7,8.5,2.9,11.2,2.9c1.6,0,3.6-0.2,5-0.4
		c0.1,0.1,0.1,0.3,0.1,0.5c0,0.8,1,1.3,0.3,2.4C666,849.8,666.3,850.1,666.8,850.3z M668.8,853.5c-0.1-0.6-0.2-1.1-0.4-1.3
		c-0.7,1.9-1.7,5.3-2.5,7.7c-0.3,0.7-0.3,1.2-0.3,1.4l0.9-0.2c0.3-0.2,0.7-0.5,1.1-0.8c0.9-0.5,1.7-3.1,2.4-5.3
		C669.4,854.6,668.9,854.2,668.8,853.5z M846.7,311.9c-0.5,3.3-3.5,10.1-4.5,15.8c-1,5.7-7.7,15.2-10.7,20.2c-3,5-4.3,9.7-4.5,11.6
		c-0.3,1.9,0.8,3.9,0,5.2c-0.8,1.3-1.3,2.8-1.6,4.2c-0.3,1.4-1.1,1.8-2.4,3.1c-1.3,1.3-1.8,7-2.2,9.6c-0.4,2.6-1.1,2.8-2.4,6.2
		c-1.3,3.4-2.6,5.9-2.7,11.9c-0.1,6-1.3,6.6-3.9,13.3c-2.6,6.7-4.5,12.5-5.6,14.8c-1.1,2.4-3.2,7-5.3,10.3c-2.1,3.4-1.5,6.3-1.7,7.8
		c-0.2,1.5-2.1,3.6-2.4,5.7c-0.3,2.1,0,7.3-0.3,11.1c-0.4,3.9-0.3,5.2-0.9,10.3c-0.6,5.1-1.7,7.6-2.1,13.9c-0.4,6.2-1.3,11-2.9,15.5
		c-1.6,4.6,0.2,5.3,0,10c-0.2,4.7-0.9,8.7-0.6,10.5c0.3,1.8-0.4,2.6-1.3,5.9c-0.8,3.3,1.7,18.7,1.8,25.3c0.1,6.6-1.9,17.7-2.7,27.4
		c-0.8,9.7,1.1,26.9,0,29.9c-1.1,2.9-5.9,17.8-6.5,22.4c-0.6,4.6-8.8,17.8-11.3,21.9s-12.9,23.3-14.4,25.9
		c-1.5,2.6-6.8,11.8-7.6,16.2c-0.8,4.4-3.4,13.9-6.9,18.7c-3.5,4.8-17.9,29.9-20.3,35.7c-2.4,5.7-8.9,21.5-10.9,26.5
		c-2,5-12.2,23.9-15.1,28c-2.9,4.1-12.6,18.5-13.5,20.6c-0.9,2.1-0.1,7.7,0.2,9.5c0.4,1.8-0.2,4.5-1.3,7.4c-1.1,2.9-2.1,5-1.9,8.2
		c0.1,3.2,0.2,9.5,0.3,14.1s1.8,15.7,2.4,18.8c0.7,3.2,2.1,8.2,2.1,12.2c0.1,4,0,13.2-0.1,15s-0.8,4-2.4,6.7c-1.6,2.7-7,1.5-7.2,1.6
		c-0.2,0.1-0.4,1-0.6,1.8c-0.2,0.8-0.3,0.3-1.9,0.3s-1.3-0.7-1.3-1.4c0-0.7-2.1-0.8-3.9-1.4c-1.8-0.6-3-1-3.2-1
		c-0.2,0-0.4,1.5-1,1.8s-0.9,0-1.9-0.1c-1-0.1-1.1-2.5-1.1-3.1c0-0.5-5.2-5.8-5.2-5.8s0.9,2.1,1.7,3.8s0.3,6.9,0.5,10.3
		c0.2,3.4,0.4,4.5,0.6,9.2c0.2,4.7-0.3,4.7,1.2,10c1.5,5.3,7.3,18.1,4.7,23c-2.5,4.9-9,3.5-9.4,3.4c-0.4-0.1-1.5,1.9-2.1,2.3
		c-0.6,0.4-3.3-1-3.6-1.6c-0.3-0.6,0.9-2.5,1-3c0.1-0.5-2.2-1.8-2.7-1.9c-0.6-0.1-2.5,2-3.3,2.2c-0.8,0.2-2.5-0.9-3.4-2.2
		c-0.8-1.3,1-3.4,1.3-4c0.3-0.6-2-2.7-3.1-3.6c-1.2-0.9-3.7,2-4.2,1.8c-0.5-0.2-3.2-2.2-3.4-3.1c-0.2-1,1.3-2.7,1.7-3.6
		s0.5-0.7-0.4-1.5c-1-0.8-2.5-3.2-3-3.8c-0.5-0.5-1.9,0.9-3.5,0.9c-1.6,0-2.1-2-2.6-3.1c-0.5-1.2,2.1-3.2,1.8-3.6
		c-0.2-0.4-1.4-3.1-1.4-3.1s-1,0.2-2,0.3c-1,0.1-1.2-0.2-1.9-1.2c-0.7-1-1.1-2.1-0.5-3.5c0.6-1.4,2.5-4.5,2.5-4.5s0-2.5-2.1-7
		c-2.1-4.5-10.7-18-11.3-18.4s-2.5,0.8-3.1,0.9c-0.6,0.1-1.8-2.1-2.1-3c-0.3-0.9,0.1-1.5,0.6-2.4c0.5-0.9,1.5-1.1,1-1.9
		c-0.5-0.9-4.1-6.6-4.1-6.6s-2.7,1.5-3.5,1.5c-0.8-0.1-1.3-1.1-1.7-1.3c-0.4-0.3-1.3-2-1-3.1c0.3-1.2,2.4-3.2,2.4-3.2
		c-0.2-0.9,0.3-3.7,0.3-3.7c2.8-10.7,14.7-16.2,17.4-17.4c2.7-1.3,3.1-2.6,1.8-5.8c-1.3-3.2,6-2.1,6.9-3.9c0.9-1.8,3.4-2,3.8-2.6
		c0.4-0.6,15.1-37.8,19.2-46.9c4.1-9,4.1-16.3,4.1-16.3c3.9-41,16.7-40.4,20-51c3.3-10.6,17.5-22.9,18.4-24.5
		c1-1.6,2.5-10.8,2.5-16.7c0-5.9,0.8-31,0-38c-0.8-7.1-11.6-20-15.3-27.5c-3.7-7.5-3.9-14.7-5.5-22.9c-1.6-8.2-3.3-9.6-9.8-25.5
		c-6.5-15.9-5.7-38.2-5.9-41.8c-0.2-3.5-1.6-2.5-3.7-16.9s16-33.6,19-38.4c3-4.8,1.5-5.2,1.7-9.3c0.2-4.1,2.7-9.5,1.9-13.8
		c-0.8-4.3-2.2-13.6-2.7-18.3c-0.6-4.7,2-5.8,0.2-9.5c-1.8-3.7-7.9-15.8-7.9-22.6c0-6.9-3.7-18.1-5.5-23.2
		c-1.8-5.1-3.5-15.9-3.5-21.6c0-5.7-1.4-10.8-2.4-12.5c-1-1.8-2.7-3.7-2.2-6.5c0.6-2.7-0.2-3.7-3.1-7.6
		c-2.9-3.9-12.2-18.4-14.7-22.2c-2.5-3.7-2-25.3-2-25.3s-0.2-3.5-0.2-12.2c0-8.6-0.8-14.5-1.4-25.7c-0.6-11.2,4.1-25.3,8-35.7
		c3.9-10.4,16.3-34.1,18-37.5c1.8-3.3,4.5-14.5,4.5-14.5s0.9-1.1,1-2.2c0-1.1,1.1-1.1,1.5-2.1c0.4-1,1-1.5,1.6-2.4
		c0.6-0.9,1.1-1.2,1.5-2.3c0.4-1.1,1.4-4.1,1.8-6.3c0.4-2.3,2.3-4.1,3.2-6.1c1-2.1,1.2-5.7,1.3-7.8c0.1-2.1-0.4-4.1-1.5-6.4
		s-5.7-8.6-7.2-11.8c-1.5-3.2-1.9-7.4,0-8.8c1.9-1.4,5.5,0.2,7.6,5.1c2.1,5,8,11.4,8,11.1c0-0.3,0-3.3-0.1-6.2
		c-0.1-2.9-0.9-9.8-0.9-12.7c0-3-2.5-12,2.1-14.3c4.5-2.3,5.7,3.9,6.3,6.6c0.6,2.7,0.8,5.5,1.3,10.1c0.5,4.6,0.4,12.1,0.4,12.6
		s0.1-0.3,0.5-1.5c0.4-1.2,1.3-6.4,1.3-8.5s1.6-4.9,2.4-8.1c0.8-3.2,1.6-5.8,2.6-10.7c1-4.9,5.7-4.7,7-4.1c1.3,0.6,1.7,3.2,1.4,5
		s-1.3,7.8-1.8,11.2s-2.9,11.1-3.9,13.8c-1,2.7-0.6,4.6,0.5,4.9c1.1,0.3,1.4,0.3,2.5-0.1c1.1-0.4,6.5-8.1,7.7-10.5
		c1.2-2.4,2.9-6.6,4.6-9.2c1.6-2.6,3.5-4.7,4.9-4.9c1.4-0.2,3.3,0.6,3.7,3.3s-1.4,8.8-5.1,14.4c-3.7,5.5-8.6,12.5-9,13.4
		c-0.4,1-1,4.6-1,7.1c0,2.5-0.1,6.1-0.2,7.8c-0.1,1.7,1.4,4,3.1,5.4c1.7,1.4,1.3,1.9,7.8,0.2c6.5-1.7,14.2,1.7,15.8,3.9
		c1.6,2.2,2,4.4,1.4,6.2s-1.8,2.7-4.2,2.2c-2.4-0.5-5.6-2.7-9-2.6c-3.3,0.1-7.5,0.6-10.7,2.5s-7.7,3.1-11.1,3.9
		c-3.3,0.8-9.1,3.2-10.3,4.1c-1.2,0.9-2.7,3-3.9,5.1c-1.2,2.1-2.7,2.8-2.7,3.6s-3.8,9-5.1,15.2c-1.3,6.2-5,15.7-5,21.2
		c0,5.5-1.9,19.1-3,24.8c-1.2,5.7-2.9,9.4-3.4,11.8c-0.5,2.4-0.7,5,0.4,5.5c1.1,0.5,1.8,2.2,1.8,2.2s12.2,0.6,15,1.9
		c2.8,1.3,12.9,4.7,17.4,7.7c1.2,0.8,2.2,1.4,3.2,1.9c0,0-4.6-6-4.9-12.7c-0.4-6.7-2.4-7-2.3-10.2c0.1-3.2,1.6-5.8,0-7.1
		c-1.6-1.4-3.2-2.5-3.2-4.8c0-2.2,1.4-4.1,2-5c0.6-0.9-1.2-6.1-2-7.4c-0.7-1.3-1.9-0.3-2.1-3.5c-0.1-3.2-1.6-6.7,1-8
		c2.6-1.3,4.3-1.9,4.9-2.4c0.6-0.5,8-31.1,46.7-31.1c0,0,36.3,2.5,40.6,35.1c0,0,2.6,3.7,3.5,4.1c0.9,0.4,1.9-0.2,1.6,3.5
		c-0.3,3.8,1.4,5.8,0.1,8.5s-1.1,8.6-2.7,12c-1.6,3.4-5.1,6.8-6,8.1c-0.9,1.3,2.1-0.3,0.1,5.3c-1.9,5.6-4.9,5.5-5.4,9.4
		c-0.4,2.9-0.2,6.2-0.6,8.4c5.1-2.2,10.8-4.4,12.6-5c3.1-1.1,13.9-3.5,13.9-3.5s-1.5-3.8-3.7-8.7c-2.2-5-2.5-13.3-2.3-14.3
		s1.7-1,1.7-1c-1.8-4-4.5-23.4-5.7-28.9c-1.2-5.4-7-21.7-7.6-22.9c-0.6-1.2-2.9-7.4-5.3-11.6c-2.4-4.2-7.3-7.6-10.4-10
		c-3.1-2.4-2.7-4.6-3.9-6.5c-1.1-1.9-4.2-4.9-6.2-7.9s-1.7-3.5-3.7-5.4c-2-2-4.3-3.9-6.2-6.2c-1.9-2.4-5.7-4.1-4.7-6.8
		c1-2.7,7.2-2.1,9.9-1.5c2.7,0.5,6.9,3.9,8.9,6.4c2,2.5,3.8,4.3,4.9,5.3c1.1,1,1.6,0.5,3.3-0.1c1.8-0.7,4.9-4.9,6.4-7.1
		c1.6-2.2,2.1-6.6,2-9.6c-0.1-3,0.8-15.6,0.6-17.9c-0.1-2.3,0.4-10,4.4-13.1s5.4-0.4,5.4,1.7s-1.6,12.3-1.6,14.5
		c0,2.3,0.5,7.9,0.5,7.9s1.9-1.1,2.6-3.4s0.8-7.8,1.7-11.6c0.8-3.8,2.5-6.4,4.7-9.5c2.2-3.1,5.4-1.9,5.7-0.6
		c0.2,1.3-0.5,4.5-1.1,7.2c-0.6,2.6-1.3,7.8-1.3,7.8c0.7-1.8,3.1-2.9,5.1-2.5s2.2,2,2.2,2c0.6,1.4-0.8,6.1-2.3,8.6
		c-1.5,2.5-2.5,8.6-2.5,9c0,0.4,1.3,0.4,1.6,3.2c0.3,2.8,2.3,6.5,1.1,10.6c-1.2,4.1-5,6.5-6.1,9.4c-1.1,2.9-0.9,14.9-0.4,17.4
		c0.5,2.5,1.5,2.2,2.4,4.6c0.9,2.4,1.8,4.3,2.6,5.7c0.8,1.4-0.1,1.7,0.5,3.5s8.8,16.5,12.4,21.7c3.6,5.2,9.9,19,10.4,19.9
		c0.5,0.9,1.1-1,3.2-0.4c2.1,0.6,4,1.5,4.9,3.8c0.9,2.2,4.8,11.6,5.3,13.8c0.5,2.2,0.5,3.1-0.3,5.1c-0.8,2.1-0.2,4.6,1.5,10.4
		c1.8,5.7,1.4,27,1.8,29.9c0.4,2.9,2.7,4.8,4.6,8.6C847.4,303.6,847.2,308.5,846.7,311.9z M781.9,173.7c0.4-1-0.2-4.6,1-6.6
		c1.2-2,4.7-5.3,7.4-9.7s4.1-5.9,4.7-8c0.6-2.2,0.8-4.5-0.4-4.7c-1.2-0.2-4.2-4.6-2.2-7.8c2.1-3.2,5-12.6,4.6-12.3
		c-0.4,0.4-2.5,0.4-4.4,5.8c-1.9,5.4-5.7,12.9-4.2,6c1.5-7,3.3-11.7,3.8-15.6c0.5-3.9,2.5-10.2,0.8-7.5c-1.8,2.7-1.6-0.1-3.3,7.5
		c-1.8,7.5-5.2,17.2-6.1,14.5c-0.9-2.6-2.5-11.3-2.3-14.5c0.3-3.2,0.7-8.5-0.5-5.5c-1.2,3-1.5,3-1.4,9.4c0.2,6.4,0,11.7-2.9,16.5
		c-2.8,4.8-1.9,10-8.2,10c-6.4,0-7.2,1.2-10.1-2.9c-2.9-4.1-7.8-9.7-10.7-9.9c-2.8-0.2-7.2,1.7-3.7,2.8c1.3,0.4,6.5,1.8,8.3,5.6
		c1.9,3.8,2.7,7.3,6.2,10.6c3.4,3.3,3.6,5.2,10.6,9.8C776,171.8,781.6,174.7,781.9,173.7z M796.4,190.4c1.4-0.5,2-1,2.2-1.4
		c0,0,0,0,0,0c0.6,1.6,1.6,3.2,3.2,7.1c1.7,3.8,2,4.8,6,11.9c4,7.1,5.1,10.4,8.8,15.5c3.7,5.1,3.4,9.8,4.3,10.9
		c0.9,1.1,0.5,3.6,0.5,3.6s-0.6,1.1-3.6,2.5c-3,1.5-7.9,5.1-11.8,5.9c-3.8,0.8-6.3,2.9-6.3,2.9s6.2-1,9.6-1.5s10.1-5.3,14.3-7.9
		s1.5-2.1,1-4.7c-0.4-2.6-1.9-3.4-3.7-7.8c-1.8-4.4-2.9-7.8-6.9-13.5c-4-5.7-9.1-17.6-11.9-22.8c-2.8-5.1-6.9-12.5-6.9-12.5
		s-2.4,2.8-6.8,4.1c-4.4,1.3-6.7,1.5-7.2,1.6c-2.3,0.4-1.7,1.1-1.7,1.1s2.7,0.1,6-0.5c3.2-0.6,7.8-2.5,9.1-3s-0.2,2.2-4.5,4.4
		c-4.3,2.3-2.7,1.8-2.9,2.2c-0.2,0.4,9.2-2.8,9.9-2.3c0.7,0.6,0.1,1.5-1.7,2.5s-6.2,2.5-8.7,3.1c-2.5,0.7-5,1.1-5,1.1
		s2.3,0.5,5.8,0.3C791.1,193,792.4,191.8,796.4,190.4z M800.7,266c1.5,1.5-0.1,3,2.7,3.6c2.9,0.6,12.1-1.3,18-4.6
		c5.9-3.3,10.1-7.4,11.6-9.6c1.5-2.2,3.5-4.6,3.5-6.1c0-1.5-0.4-2.8-0.9-3.3c-0.4-0.5,0.4-2-0.4-3.2c-0.7-1.3-1.7-0.8-1.8-2.3
		s0.7-1.7-0.4-2.9c-1.2-1.2-1.4-1.3-1.7-2.6c-0.3-1.4-0.2-2.4-1.2-3.3c-1-1-3.5-2.4-3.2-2.1c0.3,0.4,2.4,3.7,2.1,5.5
		c-0.3,1.8-2.4,5.5-5.9,8.5c-3.5,2.9-10.8,8.8-14.3,9.6c-3.2,0.7-10.4-0.5-11.6-0.8c-1.4-0.4-2.8-0.8-2.9-0.7l0.1,0
		c-0.4,0.7-0.6,2.2,0.5,2.9c1.1,0.7,0,2.5,1,4c1,1.5,1-0.1,2.3,2.9C799.6,264.6,799.2,264.4,800.7,266z M812,286.7
		c-0.8-5.1-5.3-11-5.6-12c0,0-0.5,2.7-2.5,6.7c-2,3.9-3.5,10.4-5.7,20.6c-2.2,10.2,4.4,20.8,4.4,20.8s1.3-2.7,1.3-6.7
		c0-3.9,7.5-11.2,6.5-18.4C809.5,290.4,812.8,291.8,812,286.7z M768.7,282.9c-10.6,3.9-18.5,12-24.4,15.1
		c-1.4,0.7-13.5,0.8-13.8,0.8c-0.3,0,4.9,1.7,7.3,1.9c2.4,0.2,8.8,0,11.8,0s5.6-0.9,12.4-2.6c6.8-1.8,10.5-4.1,15.4-6
		c4.9-1.9,14.7-3.7,15.9-4c1.2-0.3-2.9,0-9.3,0s-8.2,0.5-17.9,4.4c-9.7,3.9-15.4,5.4-11.5,2.6c3.9-2.7,8.9-6,18.7-9.9
		c9.8-3.9,12.2-4.9,16-7.4c3.8-2.5,10.4-3.7,11.1-4.3s-4.6,1.3-13.4,3.1C777.9,278.4,779.3,278.9,768.7,282.9z M715.1,272.1
		c-0.1-2.1,1.1-5.2,1.5-6.4c0.4-1.2,38.4-0.8,39.5-0.5c1.1,0.3,0,3.1,0,5.1c0,2,0.8,3.6,0.9,3.7c0.1,0.1,0.3-4.3,0.5-6.6
		s1-3.9,1-3.9s-11.6-0.2-19.4,0c-7.7,0.2-23.4,0.1-23.9,0.4c0,0-0.7,1.2-0.9,2.3c-0.2,1.1-0.8,2.9-0.2,6.9c0.5,3.6,1.3,3.4,1.5,3.6
		c0,0.1,0,0.1,0,0.1c0,0,0-0.1,0-0.1C715.4,276.2,715.2,273.8,715.1,272.1z M710.5,250.3c0,1.1,3.8,8.1,5,8.8
		c1.2,0.7,7.5,0.4,7.5,0.4l-4.2-25.2c0,0-9.1,2.1-10.7,2.9c0,0,2.1,1.3,2.5,2.6C711,241.1,710.5,249.2,710.5,250.3z M709.1,248.6
		c0.1,0.3,0.1-3.5,0.4-5.2s-0.7-3.2-1.5-3.5c-0.7-0.3-4,1.5-5,2.1C703,242.1,708.9,248.3,709.1,248.6z M702.1,249.7
		c0,0.4-0.6,5.1,1,7.3c1.5,2.1,5,2.3,5,2C708,258.7,702.1,249.7,702.1,249.7z M722.7,234.1l3.2,25.6h21.7l4.4-24.5
		C752,235.2,739.1,231.7,722.7,234.1z M746.9,232c8.8,0.3,22,6.6,22,6.6s-7.7-5.1-13.2-6.1c-5.4-1-24.6-2.8-33.4-1.7
		c-8.8,1.1-17.1,3.5-18.5,4.1c0,0,13.1-2.9,17.9-3.2C726.4,231.5,738,231.7,746.9,232z M750,259.7c0.2-0.1,6.5,0.4,6.5,0.4l10.3-13
		c0,0-3.6,0.2-4.6-2.1c-1-2.2-1.5-4.6-0.9-5.8c0.6-1.2,0.6-1.2,0.6-1.2l-6.5-2C755.4,236,749.8,259.7,750,259.7z M760.6,261.9
		c0.3,0,5-0.5,6.9-1.8c1.9-1.3,3.6-7.8,3.6-7.8l-1.6,1.6c-0.9,0.8-5.1,4.7-6.7,6.2C761.3,261.5,760.3,261.9,760.6,261.9z
		 M774.4,230.1c-13.8-12.6-23.7-14.2-23.7-14.2c-30.9-8.4-49.3,10.4-49.3,10.4l2.8,7c31.5-13.4,65.3,2.7,65.3,2.7L774.4,230.1z
		 M748.1,268.6h-0.2c-0.7,0-1.3,0.6-1.3,1.3v6.5c0,0.7,0.6,1.3,1.3,1.3h0.2c0.7,0,1.3-0.6,1.3-1.3v-6.5
		C749.4,269.2,748.8,268.6,748.1,268.6z M740.5,268.7h-0.2c-0.7,0-1.3,0.6-1.3,1.3v8c0,0.7,0.6,1.3,1.3,1.3h0.2
		c0.7,0,1.3-0.6,1.3-1.3v-8C741.8,269.3,741.2,268.7,740.5,268.7z M731,268.7h-0.2c-0.7,0-1.3,0.6-1.3,1.3v8c0,0.7,0.6,1.3,1.3,1.3
		h0.2c0.7,0,1.3-0.6,1.3-1.3v-8C732.3,269.3,731.7,268.7,731,268.7z M724.2,268.8c-0.7,0-1.3,0.5-1.4,1.2l-0.3,6.5
		c0,0.7,0.5,1.3,1.2,1.4c0.7,0,1.3-0.5,1.4-1.2l0.3-6.5C725.5,269.4,724.9,268.8,724.2,268.8z M717.6,278.9c0,0,6.8,6.5,19.7,6
		c12.9-0.5,16.8-6.8,16.8-6.8C738.4,288.9,717.9,279,717.6,278.9z M773.8,258.3c0,0-2.3,3.5-3.7,5.1c-1.5,1.6-4.9,2.8-7.3,2.9
		c0,0,0.6,9,0.8,9.5c0.2,0.5,5.3,3.4,6.7,1.9c1.4-1.5,0.5-5.5,0.7-8c0.2-2.5,0.9-3.2,1.4-4.4C772.9,264.1,773.8,258.3,773.8,258.3z
		 M770.2,214.9c-2.1-1.5-5.3-3.3-5.3-3.3s2.2,2.1,5.3,4.4c3.1,2.4,5.9,4.4,7.4,5.5c1.5,1.1,3.6,3.6,3.6,3.6s-10.5-9-15.1-9.6
		c-0.2,0,6.2,3.1,9.2,6.1c3,3,4.2,5.4,4.3,5.6c0.1,0.2-1.4,1.5-0.9,2.8c0.5,1.3,3.5,4,0.5,5.1c-3,1.1-4.7,1.8-3.3,3.5
		c1.3,1.8,2.5,3.9,2.2,5.3c-0.3,1.4-1.8,4-3,4.6c-1.3,0.6-3.1,1.4-2.6,1.4c0.5,0,1.8,0.6,4.3-0.8c2.5-1.4,4.7-5.2,4.7-5.2
		s-0.9,3.4-1,3.6c-0.1,0.2-2.5,2.5-1.4,2.1c1-0.4,2.7-1,4-3.6c1.3-2.6,0-3.8-0.7-5c-0.7-1.2-2.2-2.4,0.3-4.5
		c2.5-2.2,1.5-2.9,1.4-4.3c-0.1-1.4,0.5-3.4,0.9-4.8s0.7-2.5-1.5-3.9C780.9,222.2,772.3,216.4,770.2,214.9z M699.1,207.1
		c21-21.9,36.8-19.8,36.8-19.8s-1.3,0.2-5.7,1.4c-4.5,1.2-10.6,5.4-10.8,5.7c-0.2,0.3,12.9-5.1,20.4-3.8c7.5,1.3,18.7,4.1,18.7,4.1
		s-2.1-1.8-6.4-3.9c-4.3-2.1-6.6-2.8-6.6-2.8c14.6,1.6,24.1,14.3,26.8,16.6c2.6,2.3,4.7,4.3,4.7,4.3l-1.9-3.6c0,0-12.8-20-37-20.6
		C713.7,184.2,698,208.3,699.1,207.1z M694.6,222.3c0,0.2,1-1.1,3.5-3.4c2.5-2.3,18.1-9.1,22.4-10c4.3-0.8,12.9-1,18.2-0.9
		s11.4,0.1,11.2,0c-0.1-0.1-5.9-1.3-12.1-2c-6.1-0.7-8.3-0.5-8.8-1c-0.5-0.5,0.5-2.2,2.5-2.2c1.9-0.1,6.8-1.1,10.7-1.1
		c3.9,0,4.5-1.3,4.5-1.3s-12.5,0.1-15.4,0.1c-2.9,0-1.4-2.2-3.1-2.8c-1.8-0.6-5.3,0.9-5.8,3.4c-0.4,1.8-0.2,4.4-0.1,5.8
		c-2.4,0.6-5.7,1.4-6.9,1.9c-1.8,0.7-6.9,3.1-5.8,1.8c1-1.3,2.5-3.5,2.8-4.3c0.3-0.8-1.5,0.9-3.5,2.4c-2,1.4-2.7,2.6-5,4.2
		c-2.3,1.6-4.4,3.3-6.2,4.9C695.7,219.4,694.6,222.1,694.6,222.3z M697.8,244.3c0.4-0.4,1.2-0.6,1.1-0.8c0-0.1-0.5-0.8-2.5-0.3
		c-2,0.5-2.8,0.8-3.4-0.3c-0.6-1.1-1.4-2.4-0.4-3.4c1-1,2.3-0.6,4.3-1.4c2.1-0.8,3.3-1.9,4.2-2.6c0.9-0.8,1.7-2.2,0.8-2
		c-0.9,0.1-2.6,0.1-2.5-1.1c0-1.2-0.7-0.8-1.6-3.7c-0.8-2.9,0.8-4.6,1.8-5.2c1-0.6,6.3-3.8,8.3-5.6c2.1-1.8,9.3-5.2,13-5.9
		c3.7-0.7,7.5-1.1,13.2-0.9c5.7,0.1,12.9,1.5,12.9,1.5s-8.8-4.3-23.7-2.4c-9.3,1.2-17.2,5.9-21.9,9.4c-2.2,1.2-4.6,2.6-5.5,3.5
		c-1.9,1.7-0.7,4.1,0,5.6s-0.5,2.6,0,3.7c0.4,1,3,2.3,1.6,3.8c-1.4,1.5-2.7,1.8-3.8,1.6c-1.1-0.2-4.5,3.4-2.2,5.6
		C693.9,245.5,697.4,244.7,697.8,244.3z M704.2,274.8c2.5,0.5,5.9-0.8,5.9-0.8s0.4-3.5,0.9-4.3s1.7-5,1.7-5.1s-1.5-1.4-2.3-1.6
		c-0.8-0.2-5.2,0.5-7.6-0.4c-2.4-0.9-3.9-5-3.9-5c0.1,0.3-0.6,6.4-0.3,9.4C698.8,270.1,701.6,274.3,704.2,274.8z M671.3,268.5
		c4.7,0.9,14.7,3.4,22.8,9.5c4.8,3.6,7.7,6.7,10.2,9.3c-3.7-2.1-8-4.6-9.4-5.6c-2.5-1.7-9.4-6.4-21.9-10.3h-0.5
		c0,0,7.3,4.5,10.6,6.6c3.3,2.1,6.8,4.7,10.6,7.4s9.4,4.8,11.1,5.3c0.8,0.2,2.2,0.3,3.4,0.3c0.5,0.4,1,0.7,1.5,1.1
		c5,3.3,17.1,6.8,16.8,6.7c-0.3-0.1-6.5-2-13.2-8.5s-9.6-8.9-15-12.9c-5.4-4-17.5-7.6-20.9-8.7C674,267.5,671.3,268.5,671.3,268.5z
		 M661.5,262c0,0,0.4,3.7-4.7,12.4c-5.1,8.6-11.4,18.2-11.4,18.2s9.6-9.8,13.1-15.3s3.5-9.2,5.3-8c1.8,1.2,4.1,3.3,4.9,8
		c0.8,4.7,1,6.3,2.9,11.4c2,5.1,0,20.2,0,20.2s3.1-11.6,2.9-18s-2.3-8.8-3-12.2c-0.8-3.3-0.9-8.2-2.5-9.7c-1.7-1.5-3.2-1.7-4.7-3.2
		C662.8,264.1,661.5,262,661.5,262z M671.1,163.2c0.5-0.5,1.6,1.1,3.5-3.8s2.7-7.3,4.8-7.3c2.1,0-2.5,9.7,2.2,10
		c4.7,0.3,6.6,0.4,12.2,0.3c5.6-0.1,12.5-1.2,15.2-1.8c2.6-0.6,7.5,0.3,6.9-0.9c-0.7-1.2-1.8-1.6-6.3-2.6c-4.5-1.1-7.4-1.9-7.8-5.2
		c-0.5-3.3-1.9-8.3-3-9.7c-1.2-1.4,4-11.1,4.3-12.1c0.3-1,0-1.5-2.4,1.1s-6.8,6.3-8,7.9c-1.3,1.7-1-5.3-1-7.6c0-2.4-1.2-4.5-1.7-2.2
		c-0.5,2.4-1.7,7.6-2.7,7.9c-1.1,0.3-2.4-0.8-3.3-3.1c-1-2.4-1.1-5.6-2.5-2.4c-1.4,3.2,2.1,6.9-2,6.6c-4-0.3-4.3-8.4-7.1-5.4
		c-1.2,1.3,1.5,8,0.4,12.6c-1.1,4.6-1.6,9.1-1.7,12.6S670.6,163.7,671.1,163.2z M632.2,255.1c0.4,3.3,1.4,10,1.4,7.3
		c0-2.7-0.4-10,1.2-12s7.5-1.2,8.6-2.2c1.2-1-5.7-1.6-2-8.4c3.7-6.9,3.9-12.4,4.9-16.1c1-3.7,7.8-3.3,8.8-4.1c1-0.8-0.1,0.4-1-5.5
		c-0.9-5.9-1.6-5.1,0-12c1.6-6.9,2-14.5,3.8-18c1.8-3.5,3.5-3.9,7.1-2.5c3.5,1.4,9.6,2.5,9.6,2.5s-1.3-1-3.5-2.4
		c-2.2-1.3-4.9-0.9-6.9-3.3c-2.1-2.4-4.7-3.9-5.3-5c-0.6-1.2-0.9-2.2-0.9-2.2s-1.2,6.3-0.1,7.3c0,0-6.5,13.3-8.6,21
		s-4.1,13.1-6.5,19.2c-2.4,6.1-6.7,16.1-8.6,22.4C632.2,247.3,631.8,251.8,632.2,255.1z M654.1,348.3c0,0-0.7-2.9-2.3-7.8
		c-1.6-4.9-4.3-7.8-4.7-12.7c-0.4-4.9-4.3-5.9,0.8-8c5.1-2.2,10-3.3,3.3-5.6c-6.7-2.3-7.5,0.3-9.2-3.2s-2-2.4-2.4-8.8
		c-0.4-6.5-2.7-9.8-2.9-13.7c-0.2-3.9-3.5-8.4-3.5-8.4c0,2.9,0,12.4,0,20.6c0,8.2,0.6,13.1,3.9,17.8c3.3,4.7,7.1,10.2,9.6,16.7
		C649.3,341.4,654.1,348.3,654.1,348.3z M670.6,428.1c-0.2,0.2-0.3,0.3-0.3,0.3s-2-22.2-2.3-26.4c-0.3-4.3,0-9.4-2.8-11.6
		c-2.8-2.2,0.6-17.6,2-22.5c1.5-4.9-2.2-0.4-6-0.7s12.6-26.7,12.6-26.7l0,0c0.8-1.9,1.6-3.8,2.2-5.5c2.4-6.6,4-11.9,5.4-18.7
		c1.5-6.8-0.1-24-3.6-32.6c-3.5-8.7-4.9-7.6-4.9-7.6s3.4,8.2,4.6,13.7s-0.6,25.6-6,39.6c-5.4,14-16.9,25.3-17.4,26
		c-0.4,0.7,1.5,6.5,1.9,12.2c0.4,5.7,1.5,4.1,2.8,10.4c1.3,6.3,1.2,7.1,2.1,12.6c0.9,5.6,1.6,4.7,1.9,11.3
		c0.3,6.6,4.3,15.9,4.9,17.5c0,0,2.4,7.9,2.6,9.1C670.4,428.6,670.5,428.5,670.6,428.1z M659.9,528.8c6.5,3.5,12.7,6.2,27.3,0.8
		c14.5-5.4,45.5-7.5,45.5-7.5s-9.2-3.3-30,0.8c-20.8,4.1-34,6.1-31,4.1c2.9-2,31-7.1,31-7.1l-27.7-0.2c0,0-2.4-7.6,7.3-10.2
		c9.6-2.5,13.3-2.7,19.2-1.6c5.9,1.2,12,1.6,4.7-2.7s-18-24.3-18-24.3s-1.2-5.3-2.9-15.3c-1.8-10-2.7-6.3-5.1-14.3
		c-2.4-8-4.7-19.6-4.7-19.6s-3.1,8.6,0.6,13.3c2.3,2.9-2,11.2-0.4,14.9c1.6,3.7,3.1,1.6,1.8,12.9c-1.4,11.4-0.8,14.9-4.7,20.4
		c-3.9,5.5-10.6,6.3-13.3,17.1C656.6,521.2,653.4,525.3,659.9,528.8z M691.2,650.6c6.3,9.4,10.3,20.9,10.3,20.9s2.3-6.8,0-11.5
		c-2.3-4.7-11.8-18.2-13.4-23.8c-1.6-5.6-3.3-8.5-3.9-15.3c-0.6-6.8-5.9-14.1-5.3-17.6c0.6-3.5,4.9-10,9.2-12.1
		c4.3-2.1,11.1-5,11.1-5s-1.9,0-11.1,0s-13.3-1.2-13.6-4.4c-0.3-3.2,3.6-4.3,1.9-10c-1.8-5.7-7.1-6.1-6.3-11.8
		c0.8-5.7-1.6-9.8,1.8-10.4s-1.8,2.5,7.5-0.8c9.3-3.3,8.3-5.8,14.9-8.4s11.6-5.9,19.9-6.5c8.3-0.6,8.2-1.4,16.5,0.3
		c8.2,1.7,22.3,2.6,22.3,2.6s-6.2-3-13.2-4.6c-6.9-1.6-15.5-2.6-25.2-2.5c-9.7,0.2-21.7,4.5-24,6.8c-2.4,2.3-9.7,9.9-17.1,9.5
		c-7.4-0.4-10.9-1.2-11.4-2.1c-0.5-0.9,2.1-0.6,5.7-1.1c3.6-0.5,11.3-2.8,11.3-2.8s-4.2,0-11.8-0.7c-7.5-0.7-13.1-3.8-13.1-3.8
		l-1.8-2.6c0,0-0.3,4,0.9,5.4c1.2,1.4,2.9,3,4,3.8s0.5,2.6,0.5,2.6l-1,1.3c0,0-2.6,18,3,27.2c5.6,9.1,8.5,16.8,10.8,25.6
		c2.4,8.8,6.8,30.3,10,35.6C683.9,639.7,684.9,641.2,691.2,650.6z M697.6,696.4c-0.3,0-2.8-1.6-4.1-2.9s-2.4-0.8-2.4-0.8
		s2.5,2.8,3.4,4c1,1.2,4.5,3,6.2,3.2c1.7,0.2,0-1.9,0-5c0-3.1-0.2-6.8-1.3-11.4c-1.1-4.6-1.5-5.8-3.1-9.1
		c-1.7-3.3-3.6-10.6-3.6-10.6s-0.3,8.7,1.8,12.5c2.1,3.8,1,2.5,1.8,6.1c0.9,3.6,0.6,7.4,1.2,10.2
		C698.1,695.5,697.9,696.4,697.6,696.4z M653,790.3c-0.1-1.1-0.6-8.3,1.1-14.2c1.8-6.5,13.1-28.1,13.1-28.1s-6.3,8.2-7.1,10.1
		c-0.8,1.9-6.2,11.2-7.1,15.6C652,777.8,652.9,788.9,653,790.3z M637.3,831.4c0,0,3.8-1.6,5.6-3.1s2.7-3.9,5-7c2.3-3,2.7-4.4,4-6.5
		c1.3-2.1,4.2-6.1,3.5-10.4c-0.7-4.3-1-4.6-1.6-7.8c-0.5-2.5-0.7-4.6-0.9-6.2c0,0,0,0,0,0c0-0.4-0.1-0.8-0.1-1.2
		c-0.2-1.6-0.7-8.4-0.7-8.4s-1.4,5-0.2,11.5c0.1,0.3,0,7.9,0,12.7c0,4.8-5.7,15.7-6.7,17.4C644.3,824.1,637.3,831.4,637.3,831.4z
		 M630.3,855c0.9,2.2,1.1,1.4,2,1.4c0.9,0,1.1,1.2,1.6,2.3c0.5,1.2-0.9,1.9-1.3,2.8c-0.4,0.9,0.7,2.6,1.3,4c0.6,1.4,2.2,0.1,2.4,0.8
		c0.2,0.6,0.8,2.4,0.8,5.1c0,2.7,1.8,8.6,1.8,8.6s-0.4-12-0.6-13.7c-0.1-1.7-1-1.6-1.6-1.6c-0.7,0-1.2-1.3-1.5-2.2s0.6-3.7,0.4-4.8
		c-0.2-1-1.7-2.3-2.4-2.4s-0.9-2-0.6-2.8c0.4-0.8,0.8-1.4,0.4-2.7c-0.4-1.3-0.4-6.8-0.4-6.8s-0.8,3.9-0.8,5.8c0,1.9-1,2.1-1.8,2.9
		C629.1,852.5,629.4,852.8,630.3,855z M606.6,888.4c8.7,6,8.3,8.8,11.6,16.8c3.3,8,7.3,15.9,7.3,15.9s-0.1-3.3-1.3-11.1
		c-1.2-7.8-0.9-10-2.2-13.5c-1.3-3.5-2.8-6.5-1-8.8c1.8-2.4,3.5-3.8,1-7.4c-2.5-3.5-5.7-8.6-3.9-10.5c1.8-1.9,1.7-4.5,1.7-5
		s-0.1-2.6,0.6,0c0.8,2.7,1.9,6.6,3.3,8.7c1.4,2.1,8.6,6.9,10.2,7.5c1.6,0.7,5.3,2.6,5,2.2c-0.3-0.5-2.6-2.7-6.3-5
		c-3.6-2.3-6-4-7.4-6.7c-1.3-2.6-1.9-3.7-2.4-7.4c-0.5-3.7,1.1-6.1,1.1-7.2c0-1-1.5-1.7-1.9,0c-0.4,1.7,0.1,2.5-1.1,2.3
		s-1.8-0.6-2.3,0.4c-0.4,0.9-1,0-1.8,0.1c-0.8,0.1-1.8,0.5-0.3,1.7c0,0,2.1,1,1.7,2.6c-0.4,1.7-5.2,3.6-6.5,4.4
		c-1.3,0.8-8.6,3.9-12.2,9.9C599.3,878.5,597.9,882.4,606.6,888.4z M659.8,965c-0.4,0.8-1.5,3-1.9,3.2c-0.4,0.2-1.4-0.5-2.5-0.6
		c-1-0.1-5.8-3.8-8.3-5.6c-2.5-1.8-5.5-3.3-8.2-6.3s-7-8.7-8.4-10.1c-1.4-1.5-4-4.7-5.3-8.8c-1.3-4-4.1-8.3-4.6-12.4
		c-0.6-4-3.1-9.8-4.8-13.5s-6.7-10.2-9.6-13.8s-6.2-8.1-7.5-9.9c-1.3-1.8-1.7-2.2-1.5-3.4c0.3-1.2-0.3-1.7,0.4-3.6c0,0-2.5,4-1,6.9
		c1.4,2.9,7.3,10,11.1,15.4s8.2,13.1,10,17.2s5.2,20.5,9.2,24.9c4,4.4,16.4,17.6,20.7,20.7c4.3,3.2,8.2,5.1,9.3,4.6
		c1-0.4,3.5-2.6,4.1-3.9c0.7-1.3,0.7-4.6,0-7.1c-0.7-2.5-5.8-12.7-5.8-12.7s-0.3,1.7,0.3,3.1c0.6,1.4,1.4,2.4,2.1,4.9
		c0.7,2.5,1.3,3.3,1.9,5.4C660.2,961.9,660.2,964.2,659.8,965z M643.1,915.4c0,0-1.9,1.3-2.4,2.2c-0.5,1-0.5,2.8,1.6,2.8
		c2.1,0,4.3-0.8,5.1-2.2c0.8-1.4,1.3-2.9,1.3-4.3c0-1.4,0.1-3.5-1-5.3c-0.1-0.1,0.7,2.1,0.1,5.1c-0.6,3-1.1,5-4.5,5.4
		C639.7,919.5,643.1,915.4,643.1,915.4z M650.2,910.6c0,0,0-0.2-0.1-0.6s-0.4-2-0.6-2.6c-0.3-0.6-2.3-2.2-2.6-2.2
		c-0.2,0-1.3,0-2.1,0.1c-0.7-0.2-1.6-0.4-2.3-0.5c-1.4-0.2-2.6,0.9-3.1,1.7c-0.5,0.7-0.3,2.2,0.6,2.8c1,0.6,2.6,0.8,2.6,0.8
		s-2.6-0.8-2.2-2.7c0.3-1.3,2.2-1.7,3.6-1.7c-0.1,0.5,2.1,0.8,2.1,1.5c0,0-0.2-0.1-2,2.1c-1.8,2.2-5.8,5.1-5.3,6
		c0.6,0.9,2,0.4,3.7-0.7c1.7-1.1,3.2-3.1,3.2-3.1s-2.2,1-3.2,1.7s-2.1,2.5-2,1.3c0.1-1.2,2-2.7,3.1-3.4c0.8-0.5,1.9-2.1,2.4-2.9
		c0,0,0,0,0,0c0.6,0.5,1.3,0,2.2-0.1c0.9-0.1,0.4,1.3,0.2,1.7c-0.2,0.4-0.3,0.7-0.1,1.5c0.2,0.8,1.5,0.4,1.7,0.9
		c0.2,0.5,0.6,1.3,1.4,2.4c0.7,1.1,0.1,1.3-0.2,1.8c-0.4,0.5-1,0.6-0.9,0.9c0.1,0.3,2.5-0.1,2.8,0.3c0.2,0.4,0.4,1.5,0.4,2.6
		c0,1.1-0.5,2.8-0.5,5.1c0,2.3,0.3,3.4,0,4.2s-0.4,1.5-0.4,1.5s1.3-1.1,1.3-1.6c0-0.5-0.3-2.8,0-4.3c0.3-1.5,1.1-6.8-0.4-9
		S650.2,910.6,650.2,910.6z M678,911.2c-1.2,2.5-2,6.5-10.1,3.8c-8.1-2.7-7.1-4.6-10.8-7.6c-3.7-3-8.2-6.8-9.4-8.8
		c-1.3-2-2.8-1-2.6-8c0.1-7-1.1-4.8-1.8-15.8c-0.7-11-2.2-15.7-4-20.1c-1.8-4.4-2.1-4.9-2.4-9.5c-0.3-4.6-0.4-6.6-0.4-8.7
		c0-2.1-0.2-4.1-0.2-4.1c-0.2,0.3-2.8,4.5-1.7,13c1.2,8.5,2.7,11,4.2,15.9c1.5,4.9,1.5,11.9,2.7,18c1.3,6.2,1.1,13.4,2.3,17
		c1.2,3.5,12.5,15.7,16.8,18.6c4.2,2.9,10,4.6,13.1,3.7s6.4-4.5,6.9-5.5c0.5-1,0.8-6.8,0.8-6.8S679.2,908.8,678,911.2z M668.6,870.6
		c1.2-0.5,2.1-0.9,2.6-1c0.9-0.2,2.3-0.8,2.7-2c0.4-1.2,0-1.2,0-1.2s-0.8,0.4-1.3,0.7c-0.5,0.2-2.7,1.3-3.2,1.6
		c-0.2,0.1-1.6,0.6-3,1c-0.5-0.2-0.9-0.4-1.5-0.6c-3.1-1.2-6.6-2.2-6.8-2.3c-0.5-0.2-1.7,0-1.7,0s0.3,0.4,1.3,1.1
		c0.9,0.6,1.7,0.7,3.9,1.7c0.6,0.3,1.4,0.6,2.1,1l-2,1.5c-1.7,0.7-2.8,1.1-3.1,1.8c-0.3,1.1,0.2,0.9,1.6,0.7
		c1.4-0.2,2.3-1.2,4.5-2.2c0.5-0.2,1-0.4,1.5-0.7c1.2,0.5,2.3,1.1,3.5,1.6c2.9,1.3,3.4,0.7,4.3,0.9c0.9,0.2,0.5-0.6,0.5-0.9
		s-1.6-0.8-3-1.3C670.9,871.7,669.8,871.2,668.6,870.6z M666.1,879.8c-0.1,0.1-0.3,0.2-0.4,0.2c-2.5,1.5-5.8,2.8-5.9,2.9
		c-0.7,1.5,0.1,0.9,1,0.9s2.2-1.3,3.6-1.8c1.1-0.4,2-1.1,3.5-1.8c0.1,0,0.2,0,0.3,0.1c2,0.5,5.1,2,5.9,2.3c0.8,0.3,1.8-0.2,1.8-0.2
		s-1.1-0.7-2.4-1.2c-1.1-0.5-2.4-0.8-4.5-1.4c2.1-1,3.5-1.9,4.3-2.3c0.8-0.4,0.7-0.9,0.7-1.2c0-0.3-0.9-0.5-1.9,0
		c-0.8,0.4-2.9,1.7-4.9,2.9c-2.8-0.8-7-1.7-7.2-1.7c-0.3,0-0.8,0-0.8,0.5c0,0.5,1.1,0.5,3.6,1.1
		C664.2,879.4,665.2,879.6,666.1,879.8z M678.9,843.5c-0.2-0.2-2.4,2.5-3,3.1c-0.7,0.6-2.1,0.7-1.8-0.1c0.2-0.8-0.7-1.3-2.9-2
		c-2.2-0.7-2.5,0.7-4.3,1c-0.9,0.2-1.1,0.3-1.2,0.4l-2.2-0.2c-2.8,0-6.6-1.8-9.9-3c-3.3-1.2-9.3-0.7-11.8,0c-2.4,0.7-4.6,3.2-3,4.9
		s7.4,2.6,9.9,3.1c2.5,0.4,7.6,2.1,9,2.4c0.4,0.1,0.8,0.1,1.2,0.2c0,0,0,0,0,0c1.3,0.1,2.7,0.3,4.1,0.2c-1.5,0.6-3.5,1.3-5.3,2.1
		c-3.3,1.4-4.8,3-4.8,3s2.6-0.7,5.2-1.9c2.6-1.1,8.4-3.1,8.9-3.4c0,0,0,0,0,0c-0.3,0.7-0.6,1.5-0.9,2.2c-0.2,0.7-0.4,1.3-0.6,1.8
		c-0.3,0.5-0.7,1-1.1,1.6c-1,1.7-3.2,2.5-4.4,2.5c-1.2,0-4-0.8-4-0.8s1.2,1.6,3.2,1.8c2,0.2,2.5,0.2,2.8,0.3
		c0.3,0.1,1.6-0.4,2.4-1.2c0.1,0.2,0.2,0.4,0.5,0.6c0.4,0.3,1,0.3,1.5,0.2c0.9,0.6,2,1.2,2.6,1.4c1.3,0.5,5.2,1.1,5.4,0.7
		c0.1-0.4-0.3-0.7-0.8-0.8c-0.5-0.1-1.9-0.4-3-0.8c-0.8-0.3-2.1-0.8-2.8-1.1c0.1-0.1,0.3-0.2,0.4-0.4c0.1,0,0.1,0,0.2,0
		c0.9-0.1,2.3,0.4,3.8,0.6s3,0.4,2.8-0.1c-0.2-0.4-1.3-0.8-2-0.8c-0.7,0-3.4-0.9-3.9-0.8c0,0,0,0,0,0c0-0.1,0.1-0.1,0.1-0.2
		c0.3-0.7,0.8-2.6,1.3-4.5c0,0,0,0,0,0c0.7,0.8,0.7,1.3,1.3,2.1c0.5,0.8,3.4,1.5,3.9,1.8c0.6,0.3,2,0.7,2,0.3c0-0.4-2.6-2.5-4.6-3.7
		c-2-1.2,0-1.8-0.1-3s1.1-0.7,1.8-0.9c0.7-0.2,2.1-0.5,2.2-1c0.1-0.4-1-0.4-2.6-0.5c-1.6-0.1-0.7-0.2-0.6-0.6c0.1-0.3,3.4-2.9,4.3-4
		S679.1,843.7,678.9,843.5z M679,833.1c-1.5-0.2-4-0.2-5.6-0.2c-1.7,0-6.1-1.8-8.2-2.3c-2.1-0.4-6-1.5-8.2-0.4
		c-2.3,1.1-3,4.3-4.1,4.7c-1,0.4-3.9-2.3-5-3.4c-1-1.1-3.2-1.1-2.9-0.8c0.2,0.2,6.5,6.8,6.8,7c0.3,0.2,0.9,0.7,2-1.3
		c1.1-2,3.5-4.2,4.2-4.4c0.7-0.2,5.2-0.5,8.3,0.4c3,0.9,5.2,1.7,6,1.9c0.9,0.2,3.4-0.2,4.1-0.2s3.5-0.1,3.5-0.1
		S680.5,833.3,679,833.1z M680.7,815.9c-0.1-2.2-3.7,1.5-10.4,1.1s-8.5-4.1-8.3-3.8c2.2,4.3,4.9,4.7,7.9,5.3
		c3.1,0.6,6.3-0.7,7.3-0.6c1,0.1,0.3,1.3,0,2.1c-0.3,0.8-0.3,1.7-0.2,2.6c0.1,1-0.7,0.6-1.8,0.7c-1.1,0.1-3.2,0.1-6.8-1
		c-3.5-1.1-4.1-1.9-4.7-2c-0.6-0.1,1,1.3,2.4,2c1.4,0.8,3.5,2.1,7.6,3.2c4.1,1.1,2.9,0.1,3.1,1c0.1,0.9,0.2,2.3-1,2.8
		c-1.2,0.5-2.7-0.4-5.1-1c-2.4-0.5-6-1.7-7.4-2.9c-1.4-1.2-4.3-3.2-4.3-3.2s4.6,5.3,7.5,6.8c2.9,1.5,9.8,2.8,11.6,2.3
		c1.8-0.5,0.7-0.5,0.8-1.7c0-1.2-0.3-3.2,0-4.1c0.3-0.9,1-2.6,1-5.4S680.8,818.1,680.7,815.9z M712.2,768.4l-2.5,1.7
		c0,0-9.3,10.3-13.4,17.2c-4.1,6.9-8.8,16.6-10.4,20.1c-1.6,3.5-4.1,13.7-4.1,13.7s3.4-7.4,4.3-9.4c0.9-2.1,3.1-7.1,5.7-11.2
		c2.6-4.1,8.7-16.1,11.2-19.1C705.5,778.5,712.2,768.4,712.2,768.4z M703.6,734.7c-8.6-5.7-11.9-17.2-12-16.1
		c-0.4,5.9,4.9,16.5,10,19.4c5.1,2.9,6.1,4.3,6.1,5.9c0,1.6-3.1,4.7-5.1,4c-2-0.7-7.3-3.2-11.8-6.8c-4.5-3.5-9.6-6.9-9.6-6.9
		s10.8,16.5,17.8,18.6c7.1,2.2,3.5,3.9,2.7,6.7c-0.8,2.7-2.9,5.3-3.9,7.6c-1,2.3-9.6,5.3-16.7,1.9c-7.1-3.4-14.1-12.7-14.1-12.7
		s2.2,5.7,4.8,10.8c2.6,5.1,11.7,7.3,13.8,9.6c2.2,2.4,0.8,3.5,2.3,8.6c1.6,5.1-2.5,4.7-9.1,11.8c-6.6,7.1-2.8,9.4-1.9,12.4
		c1,2.9-4.5,2.5-9,1.8c-4.5-0.8-8.3-4.3-8.3-4.3c8.8,14.1,18.7,7.5,20.2,5.5c1.5-2,2.2-3.9,3.2-6.5c1-2.5,1.8-5.5,2.5-8.4
		c0.8-2.9,4.7-6.7,5.9-10.6s3.7-7.1,7.5-13.3c3.7-6.3,7.1-6.7,8.8-11c1.8-4.3,5.1-8.2,5.5-13.3c0.4-5.1,2.4-3.9,2.9-6.3
		C716.9,740.8,712.2,740.4,703.6,734.7z M744.2,684.1c0,0-3.3-1.8-5.3-2.6s-10.1-2.7-14.2-3.6c-4.1-0.9-13.8,1.3-13.8,1.3
		s4.1,1.4,6.8,2c2.6,0.6,2.5,2.1,1.7,4.1c-0.9,2.1,0.1,3.5,2.6,6.8c2.5,3.2,0.8,6.4,1.1,9.1c0.3,2.7,2.9,4.4,6.7,4.8
		c3.7,0.4,3.9-2.5,4.6-5.3c0.7-2.7,1.6-3,4.9-6.3c3.3-3.2-1.4-2.7-0.9-3.7c0.5-1,1.1-2.3,2-4.3C741.2,684.2,744.2,684.1,744.2,684.1
		z M749.3,679.1c0,0,2.4-10.7,0-22.6c-2.4-12-3.2-12.7-4.4-20.6c-0.3-2.1-0.7-4.3-1-6.6c0,0,6.5-10.5,9.5-16
		c2.9-5.5,9.6-12.2,12-16.7c2.4-4.5,5.7-11.2,5.7-12c0-0.8-8.8,6.1-8.8,6.1s0-1.8,2.2-5.1c2.2-3.3,4.9-15.9,5.1-25.1
		c0.2-9.2-1.6-14.5-1.6-14.5s0,5.9,0,9.5s-0.4,16.4-7.5,27.4c-5.8,9-13.8,7.9-17.4,7.7c-0.6-6.1-1.8-13.9-2.7-18.6
		c-1.5-6.9-3.5-16.5-3.5-16.5s-0.6,5.3,0.4,8.5c1,3.2,1.2,7.2,1.2,7.2l-6.3-7.6c0,0-1.2,1.2,2.2,6.5c3.4,5.3,4.7,11.6,4.9,19.6
		c0.1,5.1,1.1,10.7,1.4,14.6l-0.3,4.6c0,0.1-0.1,0.1-0.1,0.2c-1.5,2.2-5.9,1-11.9,1c-6,0-15.7,2.2-15.7,2.2s2.2,0.4,10.3,0.3
		c8.1-0.1,13.7-0.3,14.7,0.4c1,0.7,2.2,2.4,2.2,4.3c-0.1,0.8,0,1.5,0,2.3c0.1,3.4,0.4,9.3,1.1,14.2c1,6.3,2.5,12.1,3.8,16.6
		c1.3,4.6,1.9,8.7,1.9,15.1c0,6.5,0.4,9.1-1,10.2c-1.5,1.1-3.8,0.8-8.6-0.4c-4.8-1.2-8.7-2.5-11.9-2.7c-3.1-0.2-8.4-0.6-12.7,1.2
		s-9.3,5.3-9.3,5.3s12.6-4.1,19-4c6.3,0.1,8.8,1.2,14.6,2.6C742.4,679.3,749.3,679.1,749.3,679.1z M786.5,537.2
		c-0.4-2.3-0.3-2.3,0.1-3.7c0.4-1.5,0.4-3.1,0.4-3.7s-1.9,1.5-2.8,2c-1,0.5-6.4,3.5-9.2,4.8c-2.8,1.3-13,3.2-18.9,3.4
		c-5.9,0.2-11.1,0.4-11.1,0.4s0,0,10.5,1.2c10.5,1.2,25.4-4.5,26-5c0.7-0.5,0.3,13.2,0.3,18.5c0,5.3,0,7,0,14.4s1,22.5,1,26
		c0,3.5,0.5,11.7-2,19.2c-2.5,7.5-4.4,20.8-6.8,24.6c-2.4,3.8-4,6.9-5.7,9.8c-1.7,2.9-3,2-4.8,2.3c-1.8,0.3-4.3-1.4-8.6-3.8
		c-4.3-2.5-6.3-2.3-6.3-2.3s7.4,6.7,10.7,8.1c3.2,1.5,4.4,0.5,4.9,1.1c0.5,0.6-2.8,4.8-3.8,6.7c-1,1.9-3.7,7.5-5,10.3
		c-1.2,2.8-2.3,8.2-3.2,9.5c-0.9,1.3-2.5,4.5-2.5,4s-0.6-1.9-1-2.5c-0.4-0.6,0,8.8,0,9.2c0,0.4,3.1-6.4,4.7-10.1
		c1.6-3.7,2-5.6,5.8-12c3.8-6.4,5.9-10.9,8.6-15.4s3.3-5.6,6.5-10.5c3.1-4.9,4.1-5.2,5.6-11.3c1.5-6.1,4.8-21.1,4.8-28.7
		s0.3-12.4,0-30.6c-0.1-8.6-0.1-16.7-0.1-22.8c0.2-0.7,0.3-1.4,0.3-1.9c0-1.6,1.1-3.3,2-6.1C787.8,539.7,786.9,539.4,786.5,537.2z
		 M796.4,430.8c0-5.7-1.6-13.5-1.6-13.5s-1.6,10.6-1.8,13.3c-0.2,2.7-2.2,5.5-3.5,12.5c-1.4,7.1-2.2,4.5-4.7,15.7
		c-2.5,11.2-3.7,17.5-8.6,14.3c-4.9-3.1-15.3-12.2-17.8-13.9s10.8,14.9,18.2,25.5c7.5,10.6,3.9,5.4,2.7,11.5
		c-1.2,6.1-1.8,13.9-1.8,14.5c0,0.6-4.7-3.9-11.4-12.2s-24.4-37.8-24.4-37.8s3.1,6.7,12.4,28.4s18.2,29.2,22.7,31.6
		c4.5,2.4-0.6,4.1-5.7,4.1s-18.8-2-28.2-6.7c-9.4-4.7-19.2-5.5-19.2-5.5s11.6,4.3,21.3,9.8c9.7,5.5,12.6,6.3,19.7,7.1
		c7.1,0.8,18.4-0.7,20-2.4c1.6-1.8-1-14.7-1-19s0.8-8.4,1-13.1c0.2-4.7,1.4-4.1,2.7-8.6c1.3-4.5,0.4-5.9,1.2-8c0.8-2.2,2-6.3,1-13.1
		c-1-6.9,0.8-1.8,0.6-6.9c-0.2-5.1-0.2-4.3,1.4-7.3c1.6-2.9,1.4-10.4,1.6-11.6C793,439.6,796.4,436.5,796.4,430.8z M819.1,359
		c0,0-2.4,0.8-5.1-4.3c-2.7-5.1-2.4-5.9-5.1-10.4c-2.7-4.5-4.7-13.9-7.6-20.4c-2.9-6.5-3.3-8.2-3.3-12.5s-2.7-10.2-2.2-14.1
		c0.6-3.9,0.8-7.1,0.8-7.1s-2,4.3-1.8,10.8c0,1.4-0.4,1.4,0,15.7c0.4,14.3,1.2,17.5,1.6,27.6c0.4,10.2-3.7,30.6-3.7,30.6
		s2.5-6.3,5.1-15.1c2.5-8.8,2-20.6,2.2-19.2c0.2,1.4,4.7,9.2,9,16.3c4.3,7.1,3.3,16.3,3.1,18c-0.2,1.8-13.3,0.6-11.4,3.1
		c2,2.5,5.3,4.7,3.3,8.6c-2,3.9-4.1,5.9-1.5,7.3c2.5,1.4,1.6,5.9,0,7.8c-1.6,2-4.5,2.9-3,10c1.6,7.1,0.4,19.8,2,17.6
		c1.6-2.2,6.3-12.9,7.6-19.2c1.4-6.3,0.1-10.4,3.2-18s3.9-10.2,4.9-14.9c1-4.7,2.2-9.4,2.9-11.9C820.9,362.8,819.1,359,819.1,359z
		 M840.3,301.6c-1.4-6.9-2.4-7.3-2.4-14.7c0-7.5-1.4-22.9-1.4-22.9s-2.9,20-3.1,24.7c-0.2,4.7,2,7.8,1.4,12.4
		c-0.6,4.5-2.2,8.2-2.7,15.7c-0.6,7.5-1,1.8-7.3,8.6c-6.3,6.9,1.2,12.2-2.2,17.1c-3.3,4.9-5.5,2.5-7.3-0.8c-1.8-3.3-4.9-5.7-4.9-5.7
		s2.5,10,3.5,13.7c1,3.7,9,8,10.4,10.3c1.4,2.3,0.8-4.2,1.5-8c0.7-3.7,3.4-6.9,6.4-13.5c2.9-6.7,7.1-8.2,7.5-11s-0.7-7.1,2.1-13.3
		C844.6,307.9,841.7,308.4,840.3,301.6z M811.6,259.5c-2.3,0.7-3.8,1.1-4.8,1.2c0.7,0.4,1.8,0.8,3.4,1.1c4,0.6-1.8,1.4-4.4,2.6
		c-2.6,1.3,0.4,1,3.2,0.1c2.7-0.8,7.2-2.7,14.3-6.5c7.1-3.8,9.3-6.8,9.9-9.3c0.7-2.6-3.4,1.9-4.9,3.4
		C826.9,253.5,820.3,256.8,811.6,259.5z M806.3,258.3c2.6-0.9,6.5-2.1,9.1-3c4.5-1.5,9.6-5.4,12.2-8.4c2.6-3,0.4-3,0.4-3
		s-7.9,6.5-10.9,7.9c-2.6,1.2-8.9,3.4-12.2,3.9c-0.2,0.3-0.3,0.7-0.2,1C805,257.4,806.1,257.8,806.3,258.3z M708,222.3l6,6.7
		c2.9-0.6,12.5-1.9,12.5-1.9l-7.9-10.1C716.4,217.5,708,222.3,708,222.3z M721.4,216.4l7.6,10.8l5.9-0.5l-5.5-11.8
		C729.5,214.9,721.9,216.4,721.4,216.4z M731.7,214.9l5,11.8l4.2,0.5l-3.6-12.7L731.7,214.9z M702.3,71.3
		c-1.8-15.7,3.5-26.9,9.6-32.7c6.1-5.9,22.4-10.2,36.5-6.9c14.1,3.3,23.3,15.1,24.3,20.6c1,5.5,6.1,18.2-12.2,38.6
		c0,0-21.1,11.8-40.7,1.9C719.8,92.8,704,87,702.3,71.3z M714.4,38.3c0,0,6-1.3,10.1-0.4c4.1,0.9,2.8,2.1,6.6,2.2
		c3.7,0.1,6.6-1.5,13-0.8c6.5,0.7,4.7-0.4,9.8,1.6c5.1,2,10.4,1.7,10.4,1.7s-14.6-9.1-25.8-10.8c-11.2-1.7-21.5,4.6-21.8,4.9
		L714.4,38.3z M706.1,76.7c0,0,0.2,1.2,1.4,4.1c1.2,2.9,11.4,10.7,15.2,12c3.8,1.2,11,2.5,11,2.5s-3.4-2.5-6.7-4
		c-3.2-1.5-6.2-1.7-7.6-4c-1.5-2.4-2.5-4-2.9-5.2c-0.4-1.2,0.3-3.6-0.2-5.4c-0.5-1.9-2.1-3.7-2.1-4.4c0-0.5,1.7-1.9,2.8-2.8
		c5.8,10.9,21.1,21.1,21.1,21.1s-13.8-14.8-15.2-19.3l-0.9-2.3c0,0,28.8-19.5,43.5-20.8c0,0-18-2.2-45,16.6c0,0-5.7-4-6.7-24
		c0,0-2.3,15,2,26C713.7,68.5,708.4,72.9,706.1,76.7z"/>
	<path class="st0" d="M685.5,315.4h10.1v3.1h-2.7v13.4h-4.7v-13.4h-2.7V315.4z M700.1,315.4h5.1l3.2,2.4v11.7l-3,2.4h-5.3l-3.1-2.4
		v-11.7L700.1,315.4z M701.7,318.5v10.3h2v-10.3H701.7z M717.5,328.8v-13.4h4.8v14.1l-3.1,2.4h-5.4l-3.1-2.4v-14.1h4.8v13.4H717.5z
		 M731.4,325.3h-2v6.6h-4.8v-16.5h8.1l3.2,2.4v4.3l-2.4,1.6l2.4,1.6v6.6h-4.6V325.3z M731.4,318.5h-2v3.7h2V318.5z M745.3,315.4
		h10.1v3.1h-2.7v13.4H748v-13.4h-2.7V315.4z M756.7,315.4h8.8v3.1h-4v3.1h3.3v3.1h-3.3v4.1h4.1v3.1h-8.9V315.4z M772.2,327.1
		l-1.8,4.8h-4.8l3.9-8.6l-3.8-7.9h4.9l1.6,4.7l1.6-4.7h4.8l-3.6,7.9l3.9,8.6h-4.8L772.2,327.1z M778.6,315.4h10.1v3.1H786v13.4h-4.7
		v-13.4h-2.7V315.4z M695.2,346.2h22.2l13.9,10.4V407l-12.9,10.3h-23.1L681.6,407v-50.4L695.2,346.2z M702.2,359.6v44.3h8.8v-44.3
		H702.2z M752.3,346.2h22.2l13.9,10.4V407l-12.9,10.3h-23.1L738.7,407v-50.4L752.3,346.2z M759.2,359.6v44.3h8.8v-44.3H759.2z"/>
</g>
</svg>
