<?xml version="1.0" encoding="UTF-8" standalone="no"?>
<!-- Generator: Adobe Illustrator 16.0.0, SVG Export Plug-In . SVG Version: 6.00 Build 0)  -->

<svg
   version="1.0"
   id="Layer_1"
   x="0px"
   y="0px"
   width="737.008px"
   height="737.008px"
   viewBox="0 0 737.008 737.008"
   enable-background="new 0 0 737.008 737.008"
   xml:space="preserve"
   sodipodi:docname="tightend_071722.svg"
   inkscape:version="1.2.1 (9c6d41e4, 2022-07-14)"
   xmlns:inkscape="http://www.inkscape.org/namespaces/inkscape"
   xmlns:sodipodi="http://sodipodi.sourceforge.net/DTD/sodipodi-0.dtd"
   xmlns="http://www.w3.org/2000/svg"
   xmlns:svg="http://www.w3.org/2000/svg"><defs
   id="defs1363" /><sodipodi:namedview
   id="namedview1361"
   pagecolor="#ffffff"
   bordercolor="#000000"
   borderopacity="0.25"
   inkscape:showpageshadow="2"
   inkscape:pageopacity="0.0"
   inkscape:pagecheckerboard="0"
   inkscape:deskcolor="#d1d1d1"
   showgrid="false"
   inkscape:zoom="0.68133482"
   inkscape:cx="378.66845"
   inkscape:cy="361.05596"
   inkscape:window-width="1440"
   inkscape:window-height="728"
   inkscape:window-x="0"
   inkscape:window-y="25"
   inkscape:window-maximized="0"
   inkscape:current-layer="g1284" />





<g
   id="g1286"
   transform="matrix(2.6035574,0,0,2.4971637,-1219.3851,-816.37823)">
	<g
   id="g1284"
   transform="matrix(1.1466174,0,0,1.1223063,-101.80381,-55.826711)">
		<path
   fill-rule="evenodd"
   clip-rule="evenodd"
   fill="#2e3192"
   d="m 607.79,412.843 c -0.471,2.326 0.302,3.822 0.111,5.535 -1.95,0.373 -2.82,0.764 -4.97,1.017 0.148,-2.953 2.254,-6.154 4.859,-6.552 z"
   id="path1088" />
		<path
   fill-rule="evenodd"
   clip-rule="evenodd"
   d="m 570.065,416.006 c 3.544,2.047 8.433,4.991 12.875,7.228 1.074,0.541 4.607,2.002 4.63,2.824 0.021,0.74 -2.919,2.124 -3.729,2.711 -2.409,1.748 -4.389,2.263 -6.211,4.066 -3.165,-4.394 -5.587,-10.906 -8.695,-16.039 0.272,-0.496 0.863,-0.169 1.13,-0.79 z m 10.278,9.487 c 0.272,1.156 0.582,2.275 1.241,3.049 1.747,-1.266 5.305,-1.766 2.257,-3.275 -3.583,-1.775 -9.085,-5.211 -12.649,-6.549 1.493,3.795 5.92,5.071 9.151,6.775 z m -2.373,5.196 c 0.778,-0.503 1.907,-0.653 2.373,-1.47 -0.31,-0.533 -0.594,-1.529 -0.792,-2.484 -2.024,-0.912 -3.669,-2.203 -5.648,-3.162 1.269,2.66 2.414,4.797 4.067,7.116 z"
   id="path1090" />
		<path
   fill-rule="evenodd"
   clip-rule="evenodd"
   fill="#ed1c24"
   d="m 565.66,418.038 c 0.305,0.372 0.368,0.986 0.788,1.242 -6.469,1.862 -11.636,2.639 -19.087,3.391 3.192,-4.197 12.467,-2.977 18.299,-4.633 z"
   id="path1092" />
		<path
   fill-rule="evenodd"
   clip-rule="evenodd"
   fill="#ed1c24"
   d="m 571.192,418.718 c 3.564,1.338 9.066,4.773 12.649,6.549 3.048,1.51 -0.51,2.01 -2.257,3.275 -0.659,-0.773 -0.969,-1.893 -1.241,-3.049 -3.231,-1.704 -7.658,-2.98 -9.151,-6.775 z"
   id="path1094" />
		<path
   fill-rule="evenodd"
   clip-rule="evenodd"
   fill="#8f5d30"
   d="m 613.322,418.718 c -0.796,2.698 -4.364,3.691 -6.889,4.178 1.179,1.299 3.61,0.483 5.083,0.564 -1.577,2.182 -7.508,1.775 -9.939,2.824 1.905,1.543 3.783,1.693 6.89,1.805 -2.191,1.222 -9.236,2.149 -10.167,-0.45 -0.538,-1.51 0.972,-2.869 0.113,-5.081 4.516,-2.887 10.495,-1.299 14.909,-3.84 z"
   id="path1096" />
		<path
   fill-rule="evenodd"
   clip-rule="evenodd"
   fill="#fcbc86"
   d="m 564.417,438.596 c -0.179,-0.354 0.235,-1.563 -0.227,-1.921 -0.356,0.054 -0.399,-0.202 -0.79,-0.113 -0.37,0.451 0.221,0.699 0.225,1.131 -0.933,5.157 -7.73,3.792 -8.132,-0.791 -0.308,-3.525 3.731,-3.792 6.099,-2.373 -4.031,-2.592 -7.931,-5.322 -9.035,-10.844 4.858,-0.86 9.636,-1.905 14.795,-2.822 0.753,1.916 1.559,3.48 2.486,5.309 0.936,1.846 3.468,5.346 3.162,7.002 -0.204,1.115 -3.199,2.069 -4.292,2.599 -1.637,0.792 -2.709,2.235 -4.291,2.823 z m -5.535,-8.359 c 0.109,-0.279 0.432,0.154 0.789,0 0.026,-3.549 2.247,-5.683 4.745,-7.115 -3.444,0.547 -5.459,3.499 -6.778,6.551 0.48,0.226 1.163,0.142 1.244,0.564 z m 4.066,1.129 c -0.37,-3.698 -3.651,1.348 0,0 z"
   id="path1098" />
		<path
   fill-rule="evenodd"
   clip-rule="evenodd"
   d="m 620.664,433.173 c 0.036,0.585 0.574,1.504 0,1.693 0.347,0.483 0.66,0.996 0.679,1.809 -1.601,0.694 -3.524,2.098 -5.085,1.809 -0.389,-1.272 -0.99,-2.119 -1.692,-3.277 1.169,-0.963 0.012,-2.941 -0.227,-3.84 -0.355,0.372 -0.456,0.43 -1.017,0.451 -1.946,-1.838 -1.04,-4.131 -0.226,-6.438 1.041,-0.075 1.936,-1.094 3.161,-0.902 0.561,2.699 1.805,5.533 2.599,8.357 0.577,0.193 1.205,-0.512 1.694,0.111 -1.275,-2.006 -2.51,-4.759 -2.937,-7.34 -0.771,-4.668 8.214,-6.393 7.681,-0.452 -1.257,1.221 -2.979,2.289 -3.952,0.226 -0.179,0.633 0.493,1.389 0.677,2.033 1.277,0.252 1.757,-1.02 2.824,-1.017 1.364,0.006 3.031,4.494 2.485,5.985 -0.73,1.994 -6.196,3.4 -6.664,0.792 z m 2.373,0.113 c 3.343,0.338 3.461,-3.813 1.807,-5.76 -3.492,3.369 -7.018,-3.803 -2.371,-3.615 -0.016,0.203 0.112,0.265 0.339,0.227 -0.282,0.365 0.081,0.838 0.111,1.242 0.512,-0.105 0.983,-0.144 1.243,-0.226 0.196,-0.817 -0.371,-1.698 -0.678,-2.373 -7.778,-2.792 -3.294,10.22 -0.451,10.505 z m -9.263,-3.162 c 0.145,-0.422 0.667,-0.464 1.016,-0.678 1.03,1.244 1.259,3.628 2.147,5.309 -0.177,0.275 -0.608,0.295 -0.68,0.677 0.125,0.669 0.397,1.188 0.68,1.694 1.002,-0.427 1.827,-1.033 2.936,-1.354 -0.253,-0.355 -0.175,-0.898 -0.337,-1.694 -0.399,0.016 -0.508,0.323 -0.905,0.338 -1.8,-2.49 -2.454,-5.967 -3.274,-8.697 -2.252,0.228 -2.376,2.984 -1.583,4.405 z"
   id="path1100" />
		<path
   fill-rule="evenodd"
   clip-rule="evenodd"
   fill="#ed1c24"
   d="m 623.488,422.781 c 0.307,0.675 0.874,1.556 0.678,2.373 -0.26,0.082 -0.731,0.12 -1.243,0.226 -0.03,-0.404 -0.394,-0.877 -0.111,-1.242 -0.227,0.038 -0.354,-0.023 -0.339,-0.227 -4.646,-0.188 -1.121,6.984 2.371,3.615 1.654,1.947 1.536,6.098 -1.807,5.76 -2.843,-0.285 -7.327,-13.297 0.451,-10.505 z m -0.677,9.49 c 2.452,0.799 2.74,-3.469 0.45,-3.502 -2.515,-0.038 -2.054,2.978 -0.45,3.502 z"
   id="path1102" />
		<path
   fill-rule="evenodd"
   clip-rule="evenodd"
   fill="#fcbc86"
   d="m 590.846,429.333 c 0.082,-0.184 -0.225,-0.492 -0.226,-0.227 1.681,-1.739 0.911,-4.723 -1.356,-5.76 3.937,-2.283 5.339,5.118 1.582,5.987 z"
   id="path1104" />
		<path
   fill-rule="evenodd"
   clip-rule="evenodd"
   fill="#fcbc86"
   d="m 573.903,423.573 c 1.979,0.959 3.624,2.25 5.648,3.162 0.198,0.955 0.482,1.951 0.792,2.484 -0.466,0.816 -1.595,0.967 -2.373,1.47 -1.653,-2.319 -2.798,-4.456 -4.067,-7.116 z"
   id="path1106" />
		<path
   fill-rule="evenodd"
   clip-rule="evenodd"
   fill="#ed1c24"
   d="m 615.356,425.718 c 0.82,2.73 1.475,6.207 3.274,8.697 0.397,-0.015 0.506,-0.322 0.905,-0.338 0.162,0.796 0.084,1.339 0.337,1.694 -1.108,0.321 -1.934,0.928 -2.936,1.354 -0.282,-0.506 -0.555,-1.025 -0.68,-1.694 0.071,-0.382 0.503,-0.401 0.68,-0.677 -0.889,-1.681 -1.117,-4.064 -2.147,-5.309 -0.349,0.214 -0.871,0.256 -1.016,0.678 -0.792,-1.42 -0.668,-4.176 1.583,-4.405 z"
   id="path1108" />
		<path
   fill-rule="evenodd"
   clip-rule="evenodd"
   d="m 623.261,428.769 c 2.29,0.033 2.002,4.301 -0.45,3.502 -1.604,-0.524 -2.065,-3.54 0.45,-3.502 z m 0.114,2.373 c 0.228,0 0.454,0 0.679,0 0.034,-0.639 -0.17,-1.039 -0.792,-1.018 -0.165,0.199 0.07,0.682 0.113,1.018 z"
   id="path1110" />
		<path
   fill-rule="evenodd"
   clip-rule="evenodd"
   d="m 562.948,431.366 c -3.651,1.348 -0.37,-3.698 0,0 z"
   id="path1112" />
		<path
   fill-rule="evenodd"
   clip-rule="evenodd"
   fill="#ffffff"
   d="m 623.261,430.124 c 0.622,-0.021 0.826,0.379 0.792,1.018 -0.225,0 -0.451,0 -0.679,0 -0.042,-0.336 -0.277,-0.819 -0.113,-1.018 z"
   id="path1114" />
		<path
   fill-rule="evenodd"
   clip-rule="evenodd"
   fill="#fcbc86"
   d="m 596.719,430.349 c 1.146,4.608 2.655,9.911 5.422,13.781 -2.773,-0.926 -5.091,-3.196 -7.68,-4.406 0.192,-0.618 0.589,-1.563 0.451,-2.146 -1.142,0.816 -1.52,2.396 -2.938,2.938 0.664,-2.07 0.6,-4.187 0.678,-7.117 1.963,-0.411 2.848,-1.896 4.067,-3.05 z"
   id="path1116" />
		<path
   fill-rule="evenodd"
   clip-rule="evenodd"
   fill="#fcbc86"
   d="m 588.249,434.302 c 0.509,3.489 -0.892,6.322 -1.581,9.49 -1.712,0.744 -3.182,2.048 -5.422,1.354 3.007,-3.246 0.117,-6.78 -0.902,-10.391 2.636,-2.889 4.588,-0.789 7.905,-0.453 z"
   id="path1118" />
		<path
   fill-rule="evenodd"
   clip-rule="evenodd"
   fill="#ffffff"
   d="m 591.072,433.966 c 0.387,3.039 0.688,8.03 -2.936,8.81 0.736,-2.904 1.669,-5.287 1.354,-8.474 0.53,-0.239 0.886,-0.148 1.582,-0.336 z"
   id="path1120" />
		<path
   fill-rule="evenodd"
   clip-rule="evenodd"
   fill="#fcbc86"
   d="m 573.453,438.596 c -1.044,3.963 -3.791,7.202 -7.343,9.035 -0.062,-1.416 -1.166,-2.097 -0.903,-3.839 2.583,-1.898 5.509,-3.453 8.246,-5.196 z"
   id="path1122" />
		<path
   fill-rule="evenodd"
   clip-rule="evenodd"
   fill="#ed1c24"
   d="m 630.717,438.596 c 0.285,0.465 0.623,1.453 0.79,2.371 -3.56,0.427 -10.153,2.625 -13.102,0.34 4.064,-1.13 9.283,-0.77 12.312,-2.711 z"
   id="path1124" />
		<path
   fill-rule="evenodd"
   clip-rule="evenodd"
   fill="#ffffff"
   d="m 616.711,441.871 c 0.669,2.079 1.522,3.975 3.05,5.194 -0.036,0.267 -0.393,0.211 -0.339,0.565 -1.238,-0.796 -2.601,-1.466 -3.501,-2.598 -6.94251,2.93195 4.05762,10.92417 5.193,7.342 0.742,-0.39 1.194,-1.068 1.808,-1.582 0.52,0.161 1.063,0.295 1.695,0.339 1.44,2.202 -1.44,2.83 -1.356,3.954 0.123,1.626 2.983,1.087 4.067,1.806 1.11,0.741 4.276,7.227 1.241,5.761 -7.82853,-5.63868 -26.71701,-10.02739 -15.473,-19.427 1.302,-1.108 2.079,-2.52 3.615,-1.354 z"
   id="path1126"
   sodipodi:nodetypes="cccccccccccc" />
		<path
   fill-rule="evenodd"
   clip-rule="evenodd"
   fill="#808285"
   d="m 590.731,442.434 c 0.236,1.927 -2.885,4.157 -5.081,3.277 2.119,-0.665 3.636,-1.937 5.081,-3.277 z"
   id="path1128" />
		<path
   fill-rule="evenodd"
   clip-rule="evenodd"
   fill="#ed1c24"
   d="m 634.556,445.824 c -3.416,1.46 -9.667,2.943 -12.311,0.563 3.277,0.219 8.237,-0.25 11.183,-1.805 0.661,0.127 0.883,0.697 1.128,1.242 z"
   id="path1130" />
		<path
   fill-rule="evenodd"
   clip-rule="evenodd"
   fill="#2e3192"
   d="m 619.873,448.873 c 0.314,-0.36 0.135,-0.667 0.452,-1.128 2.146,0.938 0.799,4.04 -0.789,4.179 -1.837,0.158 -3.72,-2.826 -5.197,-3.275 1.261,-4.081 3.27,1.031 5.534,0.224 z"
   id="path1132" />
		<path
   fill-rule="evenodd"
   clip-rule="evenodd"
   fill="#ffffff"
   d="m 568.369,456.214 c -0.416,0.299 -0.728,0.978 -1.129,1.584 -3.141,-3.184 -6.365,-6.287 -9.374,-9.603 2.497,-2.655 4.742,1.521 6.438,3.389 1.698,1.869 3.061,3.109 4.065,4.63 z"
   id="path1134" />
		<path
   fill-rule="evenodd"
   clip-rule="evenodd"
   fill="#ffffff"
   d="m 634.782,447.179 c -1.626,3.894 -8.504,4.063 -12.083,1.581 3.504,0.426 8.867,-0.044 12.083,-1.581 z"
   id="path1136" />
		<path
   fill-rule="evenodd"
   clip-rule="evenodd"
   fill="#2e3192"
   d="m 637.042,447.292 c 1.961,3.309 4.343,6.197 8.696,7.115 1.831,1.722 1.88,4.902 4.181,6.326 -1.598,1.844 -8.185,6.018 -8.698,0.451 0.657,-1.075 2.426,-1.58 2.71,-2.937 0.847,-4.012 -4.117,-4.033 -5.759,-6.098 -0.657,-0.826 -0.505,-2.57 -1.583,-3.164 0.256,-0.461 0.505,-0.922 0.453,-1.693 z"
   id="path1138" />
		<path
   fill-rule="evenodd"
   clip-rule="evenodd"
   fill="#fcbc86"
   d="m 635.123,450.004 c 2.421,4.127 4.45,9.671 5.194,14.909 0.365,0.124 0.579,0.401 1.131,0.339 -0.154,1.387 -1.721,1.788 -2.598,1.806 -3.612,4.519 -9.891,6.687 -16.039,8.922 -0.249,1.033 -1.342,1.22 -1.923,1.922 -1.311,-1.172 -2.928,-2.04 -3.162,-4.293 5.371,-3.52 11.982,-6.987 14.232,-12.875 -0.494,-0.119 -0.371,0.382 -0.79,0.339 -0.484,-4.442 -4.6,-5.62 -5.195,-9.603 3.938,0.734 6.645,0.686 9.15,-1.466 z"
   id="path1140" />
		<path
   fill-rule="evenodd"
   clip-rule="evenodd"
   fill="#ffffff"
   d="m 597.509,468.979 c -4.109,-0.205 -11.091,-0.797 -15.698,-0.113 0.501,-0.693 -5.46255,-4.20501 -5.52655,-4.39601 -1.50558,-4.59492 -0.65592,-0.90025 -1.25145,-6.44699 -0.61,-2.627 0.727,-5.728 3.501,-4.744 4.158,7.401 10.178,12.939 18.975,15.7 z"
   id="path1142"
   sodipodi:nodetypes="cccccc"
   style="fill:#2e3192" />
		<path
   fill-rule="evenodd"
   clip-rule="evenodd"
   fill="#ffffff"
   d="m 638.85,453.843 c 3.154,0.915 5.375,3.922 1.92,5.988 -0.78,-1.987 -1.014,-4.015 -1.92,-5.988 z"
   id="path1144" />
		<path
   fill-rule="evenodd"
   clip-rule="evenodd"
   fill="#ffffff"
   d="m 600.56,453.956 c 1.646,1.197 3.152,2.54 4.969,3.275 7.046,-0.124 13.104,4.366 16.943,8.925 1.1,-0.297 1.516,-1.274 2.486,-1.697 0.604,0.409 1.169,0.863 1.579,1.47 -2.56,0.933 -4.223,5.086 -7.115,3.503 2.829,-2.167 -1.42,-4.13 -3.501,-5.083 -2.008,-0.922 -5.442,-1.913 -8.358,-2.712 -1.571,-0.431 -2.719,-1.95 -3.728,-2.146 -0.889,-0.173 -1.487,1.578 -2.485,1.807 -2.311,0.533 -4.282,-3.318 -3.954,-4.632 0.351,-1.389 2.529,-1.192 3.164,-2.71 z"
   id="path1146" />
		<path
   fill-rule="evenodd"
   clip-rule="evenodd"
   fill="#ed1c24"
   d="m 579.779,466.945 c -74.2837,-93.34854 -37.14185,-46.67427 0,0 z"
   id="path1148"
   sodipodi:nodetypes="cc" />
		
		
		<path
   fill-rule="evenodd"
   clip-rule="evenodd"
   fill="#ed1c24"
   d="m 593.445,469.884 c -4.136,1.35 -8.463,1.826 -12.877,2.03 -0.049,-0.715 0.198,-0.525 0.225,-1.241 5.158,0.017 8.639,-1.867 12.652,-0.789 z"
   id="path1154" />
		<path
   fill-rule="evenodd"
   clip-rule="evenodd"
   fill="#ffffff"
   d="m 595.364,471.123 c -3.692,1.983 -8.251,3.432 -13.104,4.293 -0.487,-0.53 -1.191,-1.441 -1.352,-1.92 4.42,0.458 9.72,-1.877 14.456,-2.373 z"
   id="path1156" />
		<path
   fill-rule="evenodd"
   clip-rule="evenodd"
   fill="#ffffff"
   d="m 611.628,474.062 c -0.238,2.908 1.556,4.668 2.824,6.438 -0.762,1.804 -1.669,3.069 -3.728,3.729 1.61,4.048 -5.768,5.033 -7.004,2.596 -1.356,0.417 -2.329,0 -3.161,-0.79 0.146,0.092 -0.666,-1.031 -0.451,-1.694 -0.634,-0.154 -1.624,-0.653 -2.034,-0.338 -2.207,-3.649 3.12,-6.847 5.083,-9.262 -2.853,0.868 -4.884,2.857 -6.891,4.969 0.767,-7.462 9.69,-8.244 15.362,-5.648 z"
   id="path1158" />
		<path
   fill-rule="evenodd"
   clip-rule="evenodd"
   fill="#ed1c24"
   d="m 594.12,472.705 c -2.143,4.225 -8.187,5.285 -12.874,6.213 0.165,-0.664 0.306,-1.351 0.677,-1.808 4.218,-0.238 8.1,-2.782 12.197,-4.405 z"
   id="path1160" />
		<path
   fill-rule="evenodd"
   clip-rule="evenodd"
   fill="#ffffff"
   d="m 616.373,473.835 c 0.437,2.274 0.843,4.576 2.938,5.194 -3.587,2.862 -5.909,-1.925 -6.101,-5.081 0.839,-0.24 1.75,-0.063 3.163,-0.113 z"
   id="path1162" />
		<path
   fill-rule="evenodd"
   clip-rule="evenodd"
   fill="#fcbc86"
   d="m 586.101,490.325 c -0.236,-0.102 -0.04,-0.637 -0.337,-0.677 -0.451,4.765 0.866,12.986 -2.032,17.055 -1.165,4.73 -3.922,8.791 -5.537,13.439 -1.325,-0.721 -3.291,-1.055 -5.308,-0.902 0.922,-5.355 2.68,-10.129 3.5,-15.247 0.511,0.014 0.29,0.766 0.339,1.242 0.753,-6.512 0.146,-15.7 3.954,-21.234 4.134,1.176 7.808,-1.558 10.392,-3.502 -0.705,2.9 -3.127,6.944 -4.971,9.826 z"
   id="path1164" />
		<path
   fill-rule="evenodd"
   clip-rule="evenodd"
   fill="#ffffff"
   d="m 666.633,485.47 c -0.494,2.719 -4.455,4.025 -5.872,5.983 0.073,0.116 0.26,0.118 0.225,0.341 1.212,-0.708 2.87,-0.972 3.953,-1.809 -3.868,12.509 -16.248,16.511 -21.008,28.126 -11.33,-2.369 -3.168,-17.211 -1.128,-23.835 -1.618,1.549 -2.501,3.825 -3.842,5.647 -1.252,-4.258 1.632,-7.945 2.824,-11.066 3.245,1.76 8.486,1.128 12.989,1.018 -3.953,-0.332 -7.507,-0.974 -10.956,-2.034 6.573,-0.5 15.796,0.531 22.815,-2.371 z"
   id="path1166" />
		<path
   fill-rule="evenodd"
   clip-rule="evenodd"
   fill="#2e3192"
   d="m 628.681,495.633 c -4.234,-1.446 -9.401,-1.905 -13.892,-0.903 0.02,-0.888 -0.416,-1.784 -0.451,-2.936 4.676,-0.894 13.039,-0.899 14.343,3.839 z"
   id="path1168" />
		<path
   fill-rule="evenodd"
   clip-rule="evenodd"
   fill="#ffffff"
   d="m 629.363,496.988 c 0.299,0.339 0.231,1.049 0.449,1.468 -4.624,-0.595 -9.163,-0.793 -14.795,-0.112 -0.413,-0.377 -0.194,-1.387 -0.452,-1.92 4.684,-1.367 10.66,-0.567 14.798,0.564 z"
   id="path1170" />
		<path
   fill-rule="evenodd"
   clip-rule="evenodd"
   fill="#ffffff"
   d="m 631.056,504.331 c 0.123,0.63 0.258,1.246 0.227,2.033 -5.022,0.213 -9.944,-0.736 -14.686,0.564 -0.266,-1.034 -0.408,-1.528 -0.676,-2.598 4.555,-1.194 9.968,-0.064 15.135,0.001 z"
   id="path1172" />
		<path
   fill-rule="evenodd"
   clip-rule="evenodd"
   fill="#2e3192"
   d="m 652.175,508.962 c 0.522,0.27 0.849,0.736 1.694,0.679 -2.334,2.938 -4.302,6.531 -4.968,10.277 -1.036,-0.356 -2.034,-0.754 -3.163,-1.018 0.671,-4.461 3.795,-7.111 6.437,-9.938 z"
   id="path1174" />
		<path
   fill-rule="evenodd"
   clip-rule="evenodd"
   fill="#ffffff"
   d="m 665.842,511.899 c -2.815,2.719 -4.262,6.807 -5.76,10.843 -0.763,-0.286 -1.81,-0.486 -2.71,-0.68 2.045,-3.873 3.603,-12.342 8.47,-10.163 z"
   id="path1176" />
		<path
   fill-rule="evenodd"
   clip-rule="evenodd"
   fill="#2e3192"
   d="m 669.571,513.367 c -2.224,3.154 -4.621,6.543 -5.309,10.392 -0.985,-0.244 -1.488,-0.279 -2.372,-0.565 1.013,-4.728 2.938,-7.849 5.535,-10.955 0.783,0.308 1.413,0.768 2.146,1.128 z"
   id="path1178" />
		<path
   fill-rule="evenodd"
   clip-rule="evenodd"
   fill="#ffffff"
   d="m 577.744,521.386 c -0.346,1.009 -0.704,2.009 -1.018,3.051 -1.874,-0.383 -3.204,-0.666 -4.968,-0.34 0.152,-1.053 0.614,-1.796 0.677,-2.936 1.786,-0.778 3.529,-0.384 5.309,0.225 z"
   id="path1180" />
		<path
   fill-rule="evenodd"
   clip-rule="evenodd"
   fill="#bcbec0"
   d="m 703.117,527.485 c 3.352,0.612 2.167,4.261 0.452,5.874 -0.224,0.153 -0.645,0.107 -0.903,0.226 -0.753,1.02 -1.948,1.592 -2.485,2.821 -1.063,1.384 -2.333,1.86 -3.389,3.166 -3.58,4.418 -2.04,13.769 -9.826,13.553 -1.626,-0.046 -5.386,-0.439 -7.229,-0.565 -1.771,-0.12 -4.288,0.798 -5.422,-0.225 -2.862,-2.583 3.619,-6.255 6.438,-5.421 1.647,0.484 3.05,1.347 4.065,2.822 2.841,1.307 6.123,0.309 7.454,-1.694 1.559,-2.344 0.124,-3.905 0.113,-6.324 -0.019,-3.619 1.532,-6.698 4.631,-8.021 3.135,-1.336 6.135,-1.621 6.101,-6.212 z"
   id="path1182" />
		<path
   fill-rule="evenodd"
   clip-rule="evenodd"
   fill="#636466"
   d="m 689.45,530.985 c -2.64,4.96 6.819,18.121 -2.484,17.623 -1.057,-0.058 -1.81,-0.783 -2.487,-1.47 2.798,-0.935 2.643,-5.19 3.617,-8.585 0.716,-2.493 0.148,-5.204 -1.13,-6.438 0.317,-0.726 1.469,-0.726 2.484,-1.13 z"
   id="path1184" />
		<path
   fill-rule="evenodd"
   clip-rule="evenodd"
   fill="#ffffff"
   d="m 684.706,531.665 c -0.157,0.947 0.776,0.805 1.017,1.354 -0.186,1.019 -1.641,0.771 -2.258,1.356 -0.595,-0.498 -1.158,-1.028 -1.582,-1.696 0.522,-1.29 1.434,-1.072 2.823,-1.014 z"
   id="path1186" />
		<path
   fill-rule="evenodd"
   clip-rule="evenodd"
   fill="#ffffff"
   d="m 561.931,533.473 c 0.073,3.515 -5.498,5.479 -3.615,9.486 -0.24,0.185 -0.714,-0.121 -1.129,-0.113 -0.354,-4.664 2.732,-6.716 4.744,-9.373 z"
   id="path1188" />
		<path
   fill-rule="evenodd"
   clip-rule="evenodd"
   fill="#ffffff"
   d="m 686.289,537.652 c -0.727,0.13 -1.337,-0.249 -2.373,-0.116 -0.031,-3.047 4.408,-3.523 2.373,0.116 z"
   id="path1190" />
		<path
   fill-rule="evenodd"
   clip-rule="evenodd"
   fill="#ffffff"
   d="m 702.779,535.167 c 0.902,0.449 1.357,1.604 0.338,2.258 -1.308,-0.258 -1.508,-1.726 -0.338,-2.258 z"
   id="path1192" />
		<path
   fill-rule="evenodd"
   clip-rule="evenodd"
   fill="#ffffff"
   d="m 624.166,536.406 c 0.444,0.199 0.43,0.854 0.793,1.13 -1.847,0.756 -2.672,2.524 -3.955,3.842 -0.595,-0.232 -1.198,-0.457 -1.468,-1.018 2.53,-0.311 3.391,-2.134 4.63,-3.954 z"
   id="path1194" />
		<path
   fill-rule="evenodd"
   clip-rule="evenodd"
   fill="#bcbec0"
   d="m 623.829,552.56 c -2.607,0.321 -6.003,0.636 -8.812,0.226 7.818,-3.512 10.154,-12.51 17.959,-16.037 2.22,-0.499 1.865,2.851 0.904,4.066 -3.004,3.787 -9.461,5.666 -10.051,11.745 z"
   id="path1196" />
		<path
   fill-rule="evenodd"
   clip-rule="evenodd"
   fill="#ffffff"
   d="m 567.127,541.041 c 0.186,-0.746 0.124,-1.826 -0.452,-2.375 1.378,-1.704 2.08,2.125 0.452,2.375 z"
   id="path1198" />
		<path
   fill-rule="evenodd"
   clip-rule="evenodd"
   fill="#636466"
   d="m 626.877,539.12 c -3.447,5.665 -8.005,10.217 -14.12,13.215 -1.688,-0.648 -2.794,-1.875 -3.952,-3.052 6.3,-0.634 12.128,-1.912 13.667,-7.682 1.262,-0.888 2.154,-2.472 3.501,-2.936 0.328,0.125 0.423,0.481 0.904,0.455 z"
   id="path1200" />
		<path
   fill-rule="evenodd"
   clip-rule="evenodd"
   fill="#ffffff"
   d="m 564.755,538.78 c 0.791,0.375 1.233,1.102 1.581,1.92 -0.696,0.052 -1.104,-0.525 -1.92,-0.79 -0.001,-0.49 0.225,-0.755 0.339,-1.13 z"
   id="path1202" />
		<path
   fill-rule="evenodd"
   clip-rule="evenodd"
   fill="#ffffff"
   d="m 683.689,538.895 c 0.715,0 1.431,0 2.146,0 -0.193,0.944 -0.449,1.271 -0.564,2.146 -0.652,-0.026 -0.955,-0.399 -1.581,-0.455 -0.001,-0.563 -0.001,-1.129 -0.001,-1.691 z"
   id="path1204" />
		<path
   fill-rule="evenodd"
   clip-rule="evenodd"
   fill="#ffffff"
   d="m 567.351,542.732 c -0.021,0.507 -0.412,0.642 -0.563,1.018 -0.886,-0.303 -1.515,-2.08 -2.937,-1.808 0.287,-1.609 2.703,0.041 3.5,0.79 z"
   id="path1206" />
		<path
   fill-rule="evenodd"
   clip-rule="evenodd"
   fill="#ffffff"
   d="m 617.726,541.378 c 1.156,0.348 1.438,0.642 2.599,1.354 -0.462,0.818 -1.032,1.529 -1.581,2.259 -1.29,-0.619 -1.894,-1.464 -2.822,-2.259 0.543,-0.51 1.389,-0.714 1.804,-1.354 z"
   id="path1208" />
		<path
   fill-rule="evenodd"
   clip-rule="evenodd"
   fill="#636466"
   d="m 625.861,552.222 c 1.205,-5.006 5.217,-7.208 8.47,-10.166 4.95,5.281 -3.245,10.09 -8.47,10.166 z"
   id="path1210" />
		<path
   fill-rule="evenodd"
   clip-rule="evenodd"
   fill="#ffffff"
   d="m 683.577,542.282 c 0.639,0.039 1.234,0.118 1.693,0.339 -0.19,0.651 0.255,1.794 -0.339,2.259 -0.578,0.065 -1.067,-0.87 -1.807,-1.018 0.157,-0.734 0.555,-0.776 0.453,-1.58 z"
   id="path1212" />
		<path
   fill-rule="evenodd"
   clip-rule="evenodd"
   fill="#ffffff"
   d="m 617.5,545.896 c -0.744,0.159 -1.809,0.67 -2.711,1.018 -0.563,-0.453 -1.069,-0.966 -1.579,-1.47 1.323,-1.884 3.126,-1.273 4.29,0.452 z"
   id="path1214" />
		<path
   fill-rule="evenodd"
   clip-rule="evenodd"
   fill="#ffffff"
   d="m 682.785,546.348 c -0.617,-0.444 -1.768,-1.144 -2.71,-0.564 -0.397,-2.736 5.103,0.075 2.71,0.564 z"
   id="path1216" />
		<path
   fill-rule="evenodd"
   clip-rule="evenodd"
   fill="#ffffff"
   d="m 612.757,547.251 c -1.383,0.157 -2.772,0.698 -3.162,-0.677 1.368,-0.38 2.652,-0.678 3.162,0.677 z"
   id="path1218" />
		<path
   fill-rule="evenodd"
   clip-rule="evenodd"
   fill="#ffffff"
   d="m 608.692,547.93 c -0.518,-0.029 -0.827,0.151 -1.017,0.45 -0.625,-0.055 -0.928,-0.427 -1.581,-0.45 0.778,-0.841 2.108,-1.288 2.598,0 z"
   id="path1220" />
		<path
   fill-rule="evenodd"
   clip-rule="evenodd"
   fill="#ffffff"
   d="m 679.057,554.027 c 0.06,0.473 -0.117,1.297 -0.451,1.921 -0.612,-0.253 -0.873,-0.858 -0.902,-1.694 0.373,-0.153 0.902,-0.15 1.353,-0.227 z"
   id="path1222" />
		<path
   fill-rule="evenodd"
   clip-rule="evenodd"
   fill="#ffffff"
   d="m 684.142,554.142 c 0.635,0.002 1.136,0.09 1.468,0.112 0.127,0.299 -0.273,0.892 -0.565,1.13 -0.684,-0.034 -0.798,-0.632 -0.903,-1.242 z"
   id="path1224" />
		<path
   fill-rule="evenodd"
   clip-rule="evenodd"
   fill="#ffffff"
   d="m 633.201,555.043 c 1.357,2.224 -2.065,3.272 -2.259,1.018 0.602,-0.489 1.459,-0.725 2.259,-1.018 z"
   id="path1226" />
		<path
   fill-rule="evenodd"
   clip-rule="evenodd"
   fill="#ffffff"
   d="m 606.433,556.854 c -0.196,1.601 -2.685,1.854 -2.938,0.224 0.797,-0.168 1.838,0.151 2.938,-0.224 z"
   id="path1228" />
		<path
   fill-rule="evenodd"
   clip-rule="evenodd"
   fill="#ffffff"
   d="m 610.611,557.191 c 0.697,0.133 1.76,0.498 2.485,0.225 0.227,2.05 -2.707,1.549 -2.485,-0.225 z"
   id="path1230" />
		<path
   fill-rule="evenodd"
   clip-rule="evenodd"
   fill="#ed1c24"
   d="m 585.425,431.817 c 0.793,-0.711 1.923,-1.088 2.823,-1.693 5.399,2.916 9.42,-6.631 3.276,-8.583 -5.916,1.156 -9.988,-3.382 -14.571,-5.422 -3.635,-1.618 -6.825,-4.612 -10.844,-3.842 -5.907,1.134 -12.632,1.415 -18.409,2.937 -0.86,-14.394 6.901,-25.719 16.941,-30.043 7.163,-4.501 22.07,-5.439 30.043,-0.904 8.425,4.793 13.737,14.984 13.104,26.204 -3.157,2.308 -6.217,5.298 -7.005,9.602 -1.723,0.685 -3.31,0.348 -4.742,1.128 4.28,6.136 -4.186,14.782 -10.616,10.616 z"
   id="path1232" />
		<path
   fill-rule="evenodd"
   clip-rule="evenodd"
   fill="#ffffff"
   d="m 569.498,460.283 c -0.215,0.384 0.215,0.064 0.567,0.224 -0.425,0.394 -1.463,-0.03 -1.696,-0.113 1.304,-5.008 6.744,-10.555 9.375,-15.811 0.557,-1.109 2.017,-1.84 1.469,-3.276 -0.709,-1.865 -2.814,-4.095 -3.051,-6.101 -7.102,3.997 -12.944,9.857 -21.235,12.539 -0.894,-1.072 2.226,-2.97 3.39,-3.615 5.47,-3.031 11.334,-7.364 17.056,-10.053 -2.841,-6.252 -6.378,-12.348 -9.487,-17.958 -7.062,2.425 -15.564,2.297 -22.59,3.728 -0.354,-0.422 -1.1,-0.978 -0.902,-1.582 0.707,-0.897 2.919,-1.688 4.178,-0.904 2.878,-0.557 5.797,-1.51 9.036,-2.146 4.197,-0.826 9.928,-2.662 13.214,-1.806 3.474,0.905 7.069,3.69 10.731,5.646 3.27,1.75 8.073,3.316 10.164,5.988 0.966,1.233 0.119,2.557 -0.788,3.388 -2.938,2.683 -8.086,3.606 -10.844,6.437 0.987,2.519 3.947,5.73 2.937,8.248 -2.352,5.849 -7.928,11.766 -10.618,17.053 -0.529,0.019 -0.376,0.29 -0.906,0.114 z m -0.563,-43.487 c 3.108,5.133 5.53,11.646 8.695,16.039 1.822,-1.804 3.802,-2.318 6.211,-4.066 0.81,-0.587 3.75,-1.971 3.729,-2.711 -0.022,-0.822 -3.556,-2.283 -4.63,-2.824 -4.442,-2.236 -9.331,-5.181 -12.875,-7.228 -0.267,0.621 -0.858,0.294 -1.13,0.79 z"
   id="path1234" />
		<path
   fill-rule="evenodd"
   clip-rule="evenodd"
   fill="#ffffff"
   d="m 627.103,436.11 c 0.13,0.206 0.295,0.382 0.453,0.564 0.885,-0.355 1.031,-1.452 1.579,-2.146 0.922,0.32 1.077,1.408 1.355,2.373 -0.245,0.437 -0.737,0.23 -0.903,0.903 -4.348,-0.037 -9.689,3.713 -13.215,2.032 -3.453,-1.644 -6.443,-7.298 -5.762,-11.859 0.606,-0.524 1.495,-0.768 1.922,-1.469 -2.085,0.01 -4.4,1.053 -6.552,0.34 5.374,-0.697 8.738,-4.152 13.214,-6.1 -2.176,-0.328 -4.828,1.831 -7.341,1.469 1.143,-0.784 2.859,-1.449 3.051,-3.5 3.85,-1.873 6.353,-4.541 9.827,-1.469 2.242,1.984 4.619,6.402 4.176,10.504 -0.08,0.754 -0.992,1.675 -0.901,2.258 0.12,0.777 1.585,1.225 1.581,2.033 -0.004,1.349 -2.127,3.059 -2.484,4.067 z m -13.78,-4.291 c -96.64636,-69.93121 -48.32318,-34.9656 0,0 z"
   id="path1236"
   sodipodi:nodetypes="ccccccccccccccccccc"
   style="fill:#2e3192" />
		<path
   fill-rule="evenodd"
   clip-rule="evenodd"
   d="m 557.638,429.673 c 1.319,-3.052 3.334,-6.004 6.778,-6.551 -2.498,1.433 -4.719,3.566 -4.745,7.115 -0.357,0.154 -0.68,-0.279 -0.789,0 -0.081,-0.422 -0.764,-0.338 -1.244,-0.564 z"
   id="path1238" />
		<path
   fill-rule="evenodd"
   clip-rule="evenodd"
   fill="#fcbc86"
   d="m 575.598,437.918 c 0.944,2.194 2.913,4.849 0.902,6.665 -0.417,-0.413 -1.074,-0.584 -1.129,-1.357 -0.944,1.456 -1.992,3.786 -3.953,3.502 -0.61,-2.892 3.329,-5.431 4.18,-8.81 z"
   id="path1240" />
		<path
   fill-rule="evenodd"
   clip-rule="evenodd"
   fill="#ffffff"
   d="m 633.314,440.74 c 5.383,1.19 6.439,7.34 11.068,9.827 5.295,0.037 5.734,5.472 8.586,8.134 -2.915,3.899 -3.823,-3.021 -5.534,-4.745 -1.287,-1.293 -3.372,-1.033 -4.631,-1.806 -2.105,-1.295 -3.95,-4.995 -5.537,-6.779 -1.416,-1.597 -3.173,-2.704 -3.952,-4.631 z"
   id="path1242" />
		<path
   fill-rule="evenodd"
   clip-rule="evenodd"
   fill="#2e3192"
   d="m 625.294,454.407 c 0.284,-0.313 0.337,0.562 0.566,0.679 -0.231,0.261 -0.443,-0.454 -0.566,-0.679 z"
   id="path1244" />
		<path
   fill-rule="evenodd"
   clip-rule="evenodd"
   d="m 568.82,541.602 c 2.124,4.951 -9.074,7.135 -10.504,3.052 -0.592,-0.096 -1.105,0.063 -1.468,-0.113 -0.534,-0.256 -0.617,-0.963 -1.242,-1.128 -0.04,-9.394 7.429,-12.363 13.554,-16.941 1.885,-1.411 2.432,-8.245 3.162,-11.297 1.518,-6.328 3.377,-12.479 3.164,-18.298 -0.117,-3.168 0.795,-7.3 2.032,-10.053 0.487,-1.082 2.096,-2.54 2.259,-3.612 0.124,-0.814 -0.884,-1.97 -1.016,-2.712 -0.405,-2.302 3.6,-5.401 -0.339,-7.117 0.2,-1.338 0.914,-2.847 1.582,-4.065 -3.416,-2.382 -6.317,-7.038 -6.44,-11.294 -1.471,1.426 -3.277,5.917 -6.324,3.841 -0.743,-0.506 -0.307,-1.896 -0.564,-2.711 -0.474,-1.498 -3.521,-3.749 -4.97,-5.196 -1.96,-1.959 -3.628,-3.552 -5.082,-4.97 -6.653,1.62 -1.929,-5.788 1.921,-6.438 -3.671,-1.181 -6.451,-7.672 -2.147,-9.829 -2.452,-2.322 -4.151,-5.221 -5.422,-8.47 -1.817,-0.395 -7.582,1.192 -4.97,-2.709 -2.668,-0.206 -5.125,0.164 -5.422,-2.712 -0.123,-1.174 0.506,-2.738 1.695,-3.049 1.01,-0.266 3.477,0.004 3.84,-0.451 0.415,-0.525 -0.457,-2.24 -0.452,-2.938 0.027,-4.626 1.801,-8.595 3.162,-12.198 4.137,-10.935 15.967,-20.793 30.157,-20.105 2.695,0.132 5.259,-0.33 7.455,-0.113 12.66,1.255 22.519,13.1 22.929,25.415 0.151,4.56 -0.567,8.488 0.339,13.215 3.098,-0.481 4.407,-2.749 6.437,-4.292 -0.222,0.803 0.242,1.516 0,2.258 6.914,-7.283 16.21,3.939 13.895,12.537 3.413,1.08 6.562,3.367 8.358,6.44 10.569,0.912 14.8,12.848 23.265,16.604 5.12,2.269 8.79,5.302 12.087,9.486 5.003,6.353 -0.034,18.009 -4.063,21.912 -0.227,1.828 -1.615,3.418 -2.825,4.63 -0.392,9.213 -9.156,12.759 -13.216,19.654 2.023,0.031 5.203,0.68 8.245,0.904 10.513,0.771 17.121,11.248 26.77,12.873 1.55,0.262 1.406,-0.445 2.371,-0.789 1.971,-0.701 3.159,-0.008 5.195,0.789 2.359,0.925 6.096,0.2 6.214,3.616 2.015,1.165 4.464,1.796 4.969,4.404 0.542,2.805 -2.729,3.506 -2.824,4.972 -0.08,1.249 1.605,4.591 -2.033,4.178 -0.562,-0.063 -0.961,-0.535 -1.469,-0.904 -6.78,2.841 -4.024,17.44 -13.441,16.83 -0.879,2.654 -4.769,3.389 -5.081,-0.225 -0.459,0.046 -0.813,0.09 -1.355,0 0.104,2.948 -5.517,4.272 -5.083,0.111 -7.051,-0.839 -2.811,-10.064 1.921,-9.263 -0.219,-0.398 0.004,-0.653 0,-1.127 1.009,-0.817 2.211,-1.031 3.5,-1.244 1.455,-1.531 -0.129,-3.815 0.79,-6.553 -1.352,-1.255 -3.339,-4.7 -1.242,-6.209 -8.432,-4.587 -22.197,-4.875 -32.188,-8.472 -1.56,-0.563 -3.01,-1.883 -4.52,-2.261 -0.531,-0.133 -1.764,0.157 -2.372,0 -2.423,-0.621 -3.426,-2.676 -5.421,-3.838 -2.355,-3.782 1.017,-7.769 1.355,-11.521 0.214,-2.377 -1.143,-4.319 -1.017,-6.665 0.188,-3.494 2.664,-6.274 3.389,-9.262 -3.448,0.108 -5.247,1.376 -8.583,1.807 -0.802,1.228 -0.912,2.615 -2.711,2.599 8.156,11.749 -1.108,28.943 4.632,42.13 0.799,0.991 2.175,1.55 2.708,2.822 0.571,1.36 -0.762,2.183 -0.564,3.278 0.163,0.899 1.191,1.489 1.468,2.258 0.639,1.766 -0.56,3.21 -0.451,5.423 0.102,2.012 1.439,4.616 -0.902,6.438 -0.566,-0.04 -0.79,0.264 -1.356,0.225 1.582,4.582 -4.463,4.89 -4.856,1.47 -5.149,1.442 -9.939,0.964 -14.795,0.789 0.344,4.317 -5.473,3.317 -5.535,0.226 -2.047,-0.146 -2.851,2.405 -5.534,2.147 -1.054,-0.101 -1.549,-1.6 -1.694,-3.389 -1.9,-0.547 -3.37,-1.525 -4.745,-2.598 -3.216,-8.504 9.393,-7.127 14.232,-9.376 1.536,-0.714 5.064,-4.012 6.437,-5.421 1.604,-1.646 0.947,-4.785 2.485,-6.55 h 1.019 c -0.782,-13.186 -7.596,-24.144 -8.247,-37.048 -0.135,-2.678 -1.397,-4.651 -2.372,-6.891 -2.351,1.103 -7.138,2.515 -8.47,-0.225 -3.632,-0.675 -6.195,-2.973 -6.892,-6.213 -3.194,-5.005 2.777,-10.323 7.456,-11.181 4.573,-0.841 8.553,3.5 12.537,1.581 -0.332,-0.348 -0.701,-0.655 -1.017,-1.017 -2.551,0.7 -5.989,-0.923 -6.324,-3.162 -3.088,0.71 -5.691,1.735 -8.924,1.015 -6.217,4.839 -5.887,15.872 -11.747,21.12 1.403,10.007 -3.199,18.211 -6.55,26.544 -1.389,3.449 -3.228,7.416 -2.937,11.296 0.095,1.295 0.676,2.816 0.678,4.18 0.003,2.834 -4.57,9.273 1.243,10.276 -0.531,7.952 -10.636,0.997 -10.054,-4.293 -0.348,-0.029 -0.508,-0.244 -0.791,-0.337 0.816,0.919 0.669,2.773 -0.344,3.5 z M 596.042,421.2 c 1.433,-0.78 3.02,-0.443 4.742,-1.128 0.788,-4.304 3.848,-7.294 7.005,-9.602 0.633,-11.22 -4.68,-21.411 -13.104,-26.204 -7.973,-4.535 -22.88,-3.597 -30.043,0.904 -10.04,4.324 -17.802,15.649 -16.941,30.043 5.777,-1.521 12.502,-1.803 18.409,-2.937 4.019,-0.771 7.209,2.224 10.844,3.842 4.583,2.04 8.655,6.578 14.571,5.422 6.144,1.952 2.123,11.499 -3.276,8.583 -0.9,0.605 -2.03,0.982 -2.823,1.693 6.429,4.167 14.895,-4.479 10.616,-10.616 z m 6.889,-1.805 c 2.149,-0.253 3.02,-0.644 4.97,-1.017 0.19,-1.713 -0.582,-3.209 -0.111,-5.535 -2.605,0.398 -4.711,3.599 -4.859,6.552 z m -32.529,40.772 c 2.69,-5.287 8.267,-11.204 10.618,-17.053 1.011,-2.518 -1.949,-5.729 -2.937,-8.248 2.758,-2.83 7.906,-3.754 10.844,-6.437 0.907,-0.831 1.754,-2.154 0.788,-3.388 -2.091,-2.672 -6.895,-4.238 -10.164,-5.988 -3.662,-1.955 -7.258,-4.74 -10.731,-5.646 -3.286,-0.856 -9.017,0.979 -13.214,1.806 -3.239,0.637 -6.158,1.59 -9.036,2.146 -1.259,-0.783 -3.471,0.007 -4.178,0.904 -0.197,0.604 0.548,1.16 0.902,1.582 7.025,-1.431 15.528,-1.303 22.59,-3.728 3.109,5.61 6.646,11.706 9.487,17.958 -5.722,2.688 -11.586,7.021 -17.056,10.053 -1.164,0.646 -4.283,2.543 -3.39,3.615 8.291,-2.682 14.134,-8.542 21.235,-12.539 0.236,2.006 2.342,4.235 3.051,6.101 0.548,1.437 -0.912,2.167 -1.469,3.276 -2.631,5.256 -8.071,10.803 -9.375,15.811 0.233,0.083 1.271,0.507 1.696,0.113 -0.353,-0.159 -0.782,0.16 -0.567,-0.224 0.532,0.178 0.379,-0.093 0.906,-0.114 z m 59.185,-28.123 c 0.004,-0.809 -1.461,-1.256 -1.581,-2.033 -0.091,-0.583 0.821,-1.504 0.901,-2.258 0.443,-4.102 -1.934,-8.52 -4.176,-10.504 -3.475,-3.072 -5.978,-0.404 -9.827,1.469 -0.191,2.051 -1.908,2.716 -3.051,3.5 2.513,0.362 5.165,-1.797 7.341,-1.469 -4.476,1.947 -7.84,5.402 -13.214,6.1 2.151,0.713 4.467,-0.33 6.552,-0.34 -0.427,0.701 -1.315,0.944 -1.922,1.469 -0.682,4.562 2.309,10.216 5.762,11.859 3.525,1.681 8.867,-2.069 13.215,-2.032 0.166,-0.673 0.658,-0.467 0.903,-0.903 -0.278,-0.965 -0.434,-2.053 -1.355,-2.373 -0.548,0.694 -0.694,1.791 -1.579,2.146 -0.158,-0.183 -0.323,-0.358 -0.453,-0.564 0.357,-1.009 2.48,-2.719 2.484,-4.067 z m -82.226,-9.373 c 7.451,-0.752 12.618,-1.528 19.087,-3.391 -0.42,-0.256 -0.483,-0.87 -0.788,-1.242 -5.832,1.656 -15.107,0.436 -18.299,4.633 z m 51.052,-0.113 c 0.858,2.212 -0.651,3.571 -0.113,5.081 0.931,2.6 7.976,1.672 10.167,0.45 -3.106,-0.111 -4.984,-0.262 -6.89,-1.805 2.432,-1.049 8.362,-0.643 9.939,-2.824 -1.473,-0.081 -3.904,0.734 -5.083,-0.564 2.524,-0.486 6.093,-1.479 6.889,-4.178 -4.414,2.541 -10.393,0.953 -14.909,3.84 z m -29.705,13.213 c 1.093,-0.529 4.088,-1.483 4.292,-2.599 0.306,-1.656 -2.227,-5.156 -3.162,-7.002 -0.928,-1.828 -1.733,-3.393 -2.486,-5.309 -5.159,0.917 -9.937,1.962 -14.795,2.822 1.104,5.521 5.004,8.252 9.035,10.844 -2.367,-1.419 -6.406,-1.152 -6.099,2.373 0.401,4.583 7.199,5.948 8.132,0.791 -0.004,-0.432 -0.595,-0.68 -0.225,-1.131 0.391,-0.089 0.434,0.167 0.79,0.113 0.462,0.358 0.048,1.566 0.227,1.921 1.582,-0.586 2.654,-2.029 4.291,-2.823 z m 20.556,-12.424 c 2.268,1.037 3.037,4.021 1.356,5.76 10e-4,-0.266 0.308,0.043 0.226,0.227 3.757,-0.87 2.355,-8.271 -1.582,-5.987 z m 9.035,6.777 c 0.331,3.454 2.07,7.88 3.729,11.183 0.417,0.83 3.21,4.034 3.05,4.856 -0.265,1.344 -3.934,-0.649 -4.63,-1.018 -2.262,-1.19 -4.775,-3.146 -6.328,-4.518 -0.295,0.568 -0.955,0.774 -1.467,1.13 -0.354,3.626 -4.303,7.755 -8.132,5.987 -1.774,1.011 -3.847,2.703 -5.195,4.517 5.513,8.472 15.185,18.634 27.673,14.909 0.676,-0.759 0.416,-2.09 0.677,-3.049 0.183,0.167 0.567,-0.098 1.017,0 -0.737,6.545 5.65,5.065 9.261,7.679 0.5,-0.25 0.67,-0.836 1.358,-0.901 -1.738,-1.045 -1.855,-1.921 -0.229,-3.164 -1.279,-0.526 -2.474,-1.76 -3.841,-2.483 -2.334,-1.237 -7.03,-1.887 -9.6,-3.051 -0.738,-0.336 -1.464,-1.193 -2.032,-1.129 -0.978,0.112 -1.697,1.93 -2.485,1.919 -3.598,-0.041 -3.937,-4.095 -5.422,-6.663 0.29,-0.277 0.387,-0.743 0.564,-1.131 1.645,0.708 2.888,-3.569 4.857,-3.16 1.44,0.297 2.816,3.021 4.518,3.612 3.896,1.357 8.106,1.098 11.295,3.503 2.038,1.535 3.664,3.496 5.762,4.743 0.589,-0.202 0.461,-1.119 1.016,-1.354 1.561,0.05 2.725,1.996 4.292,2.032 -3.877,-3.693 -9.368,-6.413 -14.344,-9.261 -3.142,-1.798 -7.473,-3.51 -8.021,-7.455 2.644,-2.458 5.343,-5.012 7.906,-7.229 -3.022,-0.933 -5.232,-2.674 -7.229,-4.629 1.579,1.242 3.693,1.951 6.1,2.37 -1.798,-2.282 -3.484,-5.917 -3.613,-9.375 -3.009,1.803 -7.069,1.861 -10.507,1.13 z m -5.646,3.275 c -0.078,2.931 -0.014,5.047 -0.678,7.117 1.418,-0.542 1.796,-2.122 2.938,-2.938 0.138,0.582 -0.259,1.527 -0.451,2.146 2.589,1.21 4.906,3.48 7.68,4.406 -2.767,-3.87 -4.275,-9.173 -5.422,-13.781 -1.22,1.154 -2.105,2.639 -4.067,3.05 z m 39.872,5.873 c 5.351,0.309 7.688,4.754 10.39,8.473 1.065,1.464 4.086,1.063 5.874,2.259 2.094,1.397 2.671,3.949 3.728,6.098 3.354,3.788 7.126,-1.871 12.313,-0.452 -9.778,-3.599 -14.042,-13.897 -24.059,-17.507 -0.02,0.811 0.521,1.455 0.451,1.921 -3.114,-2.533 -5.386,-5.91 -8.812,-8.134 -1.435,2.54 -0.223,4.056 0.115,7.342 z m -52.182,-4.517 c 1.02,3.61 3.909,7.145 0.902,10.391 2.24,0.694 3.71,-0.609 5.422,-1.354 0.689,-3.168 2.09,-6.001 1.581,-9.49 -3.316,-0.336 -5.268,-2.436 -7.905,0.453 z m 9.147,-0.453 c 0.315,3.187 -0.617,5.569 -1.354,8.474 3.624,-0.779 3.322,-5.771 2.936,-8.81 -0.696,0.188 -1.052,0.097 -1.582,0.336 z m -18.072,12.426 c 1.961,0.284 3.009,-2.046 3.953,-3.502 0.055,0.773 0.712,0.944 1.129,1.357 2.011,-1.816 0.042,-4.471 -0.902,-6.665 -0.851,3.379 -4.79,5.918 -4.18,8.81 z m -6.211,-2.936 c -0.263,1.742 0.842,2.423 0.903,3.839 3.552,-1.833 6.299,-5.072 7.343,-9.035 -2.737,1.743 -5.663,3.298 -8.246,5.196 z m 53.199,-2.485 c 2.948,2.285 9.542,0.087 13.102,-0.34 -0.167,-0.918 -0.505,-1.906 -0.79,-2.371 -3.03,1.941 -8.249,1.581 -12.312,2.711 z m 18.86,4.064 c 1.587,1.784 3.432,5.484 5.537,6.779 1.259,0.772 3.344,0.513 4.631,1.806 1.711,1.725 2.619,8.645 5.534,4.745 -2.852,-2.662 -3.291,-8.097 -8.586,-8.134 -4.629,-2.487 -5.686,-8.637 -11.068,-9.827 0.779,1.927 2.536,3.034 3.952,4.631 z m -24.17,-2.145 c -2.691,2.294 -6.822,4.372 -4.179,7.682 3.858,2.361 7.767,4.897 11.746,7.115 2.626,1.464 5.312,3.378 7.906,4.63 3.035,1.466 -0.131,-5.02 -1.241,-5.761 -1.084,-0.719 -3.944,-0.18 -4.067,-1.806 -0.084,-1.124 2.797,-1.752 1.356,-3.954 -0.632,-0.044 -1.176,-0.178 -1.695,-0.339 -0.613,0.514 -1.065,1.192 -1.808,1.582 -0.846,3.936 -9.414,-3.351 -8.245,-5.083 1.286,-0.04 1.924,-1.685 3.052,-2.259 0.9,1.132 2.263,1.802 3.501,2.598 -0.054,-0.354 0.303,-0.299 0.339,-0.565 -1.527,-1.22 -2.381,-3.115 -3.05,-5.194 -1.536,-1.167 -2.313,0.245 -3.615,1.354 z m 18.862,-0.902 c -3.493,1.326 -8.213,1.581 -12.423,1.126 1.089,3.74 10.69,1.007 13.44,0.342 -0.153,-0.674 -0.578,-1.078 -1.017,-1.468 z m -46.308,3.387 c 2.196,0.88 5.317,-1.351 5.081,-3.277 -1.445,1.34 -2.962,2.612 -5.081,3.277 z m 47.778,-1.128 c -2.945,1.555 -7.905,2.023 -11.183,1.805 2.644,2.38 8.895,0.896 12.311,-0.563 -0.245,-0.546 -0.467,-1.116 -1.128,-1.242 z m -72.061,1.58 c 2.436,3.1 5.268,5.801 8.02,8.583 2.204,-3.007 4.604,-5.7 6.326,-8.922 -0.35,-0.03 -0.51,-0.247 -0.793,-0.338 -0.339,2.342 -3.756,3.292 -5.195,1.241 -1.468,0.916 -2.459,2.739 -4.856,2.372 -0.173,-1.389 -0.793,-3.304 -1.355,-4.292 -0.645,0.526 -1.239,1.096 -2.147,1.356 z m 16.151,5.083 c 0.431,-0.101 0.721,0.183 0.904,0 1.068,-1.793 2.841,-2.881 4.066,-4.519 -3.564,-0.645 -3.335,2.924 -4.97,4.519 z m 36.82,-2.598 c 1.478,0.449 3.36,3.434 5.197,3.275 1.588,-0.139 2.935,-3.24 0.789,-4.179 -0.317,0.461 -0.138,0.768 -0.452,1.128 -2.263,0.808 -4.272,-4.304 -5.534,-0.224 z m -50.035,2.936 c -1.695,-1.867 -3.94,-6.044 -6.438,-3.389 3.009,3.315 6.233,6.419 9.374,9.603 0.401,-0.606 0.713,-1.285 1.129,-1.584 -1.003,-1.521 -2.366,-2.761 -4.065,-4.63 z m 58.396,-2.824 c 3.579,2.482 10.457,2.313 12.083,-1.581 -3.216,1.537 -8.579,2.007 -12.083,1.581 z m 13.89,0.226 c 1.078,0.594 0.926,2.338 1.583,3.164 1.642,2.064 6.605,2.086 5.759,6.098 -0.284,1.356 -2.053,1.861 -2.71,2.937 0.514,5.566 7.101,1.393 8.698,-0.451 -2.301,-1.424 -2.35,-4.604 -4.181,-6.326 -4.354,-0.918 -6.735,-3.807 -8.696,-7.115 0.052,0.77 -0.197,1.231 -0.453,1.693 z m -10.616,2.484 c 0.596,3.982 4.711,5.16 5.195,9.603 0.419,0.043 0.296,-0.458 0.79,-0.339 -2.25,5.888 -8.861,9.355 -14.232,12.875 0.234,2.253 1.852,3.121 3.162,4.293 0.581,-0.702 1.674,-0.889 1.923,-1.922 6.148,-2.235 12.427,-4.403 16.039,-8.922 0.877,-0.018 2.443,-0.419 2.598,-1.806 -0.552,0.063 -0.766,-0.215 -1.131,-0.339 -0.744,-5.238 -2.773,-10.782 -5.194,-14.909 -2.505,2.152 -5.212,2.2 -9.15,1.466 z m -47.439,1.808 c -2.774,-0.983 -3.35823,5.88426 -2.74823,8.51126 1.68109,2.48623 0.70499,1.7553 2.86425,4.2536 0,0 3.66198,2.12814 3.16098,2.82214 4.607,-0.684 11.589,-0.092 15.698,0.113 -8.797,-2.76 -14.817,-8.298 -18.975,-15.7 z m 62.236,6.553 c 3.455,-2.066 1.234,-5.073 -1.92,-5.988 0.906,1.973 1.14,4.001 1.92,5.988 z m -43.374,-3.166 c -0.328,1.313 1.644,5.165 3.954,4.632 0.998,-0.229 1.597,-1.979 2.485,-1.807 1.009,0.196 2.156,1.716 3.728,2.146 2.916,0.799 6.351,1.79 8.358,2.712 2.081,0.953 6.33,2.916 3.501,5.083 2.893,1.583 4.556,-2.57 7.115,-3.503 -0.41,-0.606 -0.975,-1.061 -1.579,-1.47 -0.971,0.423 -1.387,1.4 -2.486,1.697 -3.839,-4.559 -9.897,-9.049 -16.943,-8.925 -1.816,-0.735 -3.322,-2.078 -4.969,-3.275 -0.635,1.519 -2.813,1.322 -3.164,2.71 z m 28.465,-1.579 c -0.229,-0.117 -0.282,-0.991 -0.566,-0.679 0.122,0.225 0.334,0.94 0.566,0.679 z m 4.516,32.077 c 0.58,-0.018 0.692,0.991 1.13,1.13 1.042,0.33 4.845,-1.458 7.003,-1.58 1.077,-0.064 1.941,-0.122 3.05,-0.34 2.813,-0.555 5.941,0.5 8.47,0.111 5.963,-0.914 13.728,-0.064 18.073,-3.614 8.651,-7.066 7.53,-28.217 -7.454,-25.299 -0.224,3.994 4.452,3.873 4.855,7.342 0.514,4.399 -3.311,7.389 -6.778,9.713 -1.903,1.276 -5.673,2.548 -8.356,2.598 -9.599,0.173 -12.084,9.594 -21.007,7.567 -0.024,4.539 -7.709,0.151 -5.761,5.874 1.551,0.352 2.428,0.695 3.613,1.356 -0.029,-0.653 -0.646,-1.658 -0.112,-2.146 0.529,0.335 0.941,0.788 1.578,1.015 1.767,-0.214 0.277,-3.683 1.696,-3.727 z m 26.43,-23.72 c 0.839,0.525 3.788,-0.104 4.405,1.58 1.341,3.659 -4.586,5.709 -6.777,6.44 -3.09,1.03 -7.688,1.009 -11.521,2.709 -2.479,1.103 -3.349,2.801 -5.309,4.405 -1.818,1.492 -4.861,3.369 -7.34,2.824 -0.949,-0.208 -1.367,-1.547 -1.92,-1.694 -3.187,-0.838 -2.452,3.753 -4.744,4.18 -1.159,0.217 -1.64,-0.721 -2.373,-0.677 -2.563,0.15 -1.223,5.305 -1.13,6.664 0.594,0.158 1.171,0.335 1.92,0.337 -1.484,-3.448 1.927,-5.214 4.292,-4.292 1.162,-2.074 2.881,-4.112 5.196,-2.032 5.435,0.157 7.128,-4.438 11.521,-6.44 3.711,-1.689 7.521,-1.555 10.957,-2.596 3.236,-0.981 7.457,-3.549 9.486,-6.1 4.214,-5.293 -6.061,-5.238 -4.18,-10.617 h -0.226 c -3.593,-0.354 -4.162,4.117 -2.257,5.309 z m -16.037,6.553 c 0.874,-1.685 1.675,-2.976 2.937,-4.406 -0.438,-0.06 -0.552,0.203 -1.017,0.113 0.148,1.42 -0.962,1.46 -1.809,2.032 -5.203,3.52 -10.058,6.68 -16.149,9.375 -1.35,0.599 -2.274,2.236 -3.844,2.372 -1.407,1.491 -3.712,2.686 -6.211,2.711 -0.68,0.978 -1.195,2.117 -2.259,2.712 -0.115,1.998 0.248,4.392 1.13,5.76 1.632,-0.611 3.473,-1.061 5.534,-0.903 -1.953,-3.875 0.008,-10.135 4.405,-7.342 1.046,-3.22 5.117,-6.356 7.454,-2.261 1.414,-0.369 2.725,-1.163 4.405,-1.694 4.719,-7.993 19.009,-5.073 24.059,-12.65 -0.233,-0.029 -0.225,-0.3 -0.34,-0.449 -3.582,0.296 -5.512,-2.451 -4.742,-5.534 -4.664,2.039 -9.031,6.894 -13.553,10.164 z m -59.978,0.677 c -0.026,0.716 -0.273,0.526 -0.225,1.241 4.414,-0.204 8.741,-0.681 12.877,-2.03 -4.012,-1.078 -7.493,0.806 -12.652,0.789 z m 0.117,2.823 c 0.16,0.479 0.864,1.39 1.352,1.92 4.853,-0.861 9.411,-2.31 13.104,-4.293 -4.737,0.496 -10.037,2.831 -14.456,2.373 z m 15.358,6.212 c 2.007,-2.111 4.038,-4.101 6.891,-4.969 -1.963,2.415 -7.29,5.612 -5.083,9.262 0.41,-0.315 1.4,0.184 2.034,0.338 -0.215,0.663 0.598,1.786 0.451,1.694 0.832,0.79 1.805,1.207 3.161,0.79 1.236,2.438 8.614,1.452 7.004,-2.596 2.059,-0.659 2.966,-1.925 3.728,-3.729 -1.269,-1.77 -3.063,-3.529 -2.824,-6.438 -5.673,-2.594 -14.596,-1.812 -15.362,5.648 z m -14.345,-2.598 c -0.371,0.457 -0.512,1.144 -0.677,1.808 4.688,-0.928 10.731,-1.988 12.874,-6.213 -4.096,1.623 -7.978,4.167 -12.197,4.405 z m 31.288,-3.162 c 0.191,3.156 2.514,7.943 6.101,5.081 -2.096,-0.618 -2.502,-2.92 -2.938,-5.194 -1.413,0.05 -2.324,-0.127 -3.163,0.113 z m -20.332,2.486 c -3.892,1.293 -7.503,3.85 -12.086,4.405 -0.094,0.732 0.382,0.899 0.453,1.468 4.61,-0.106 8.644,-2.402 11.633,-5.873 z m -1.806,4.065 c -2.584,1.944 -6.258,4.678 -10.392,3.502 -3.809,5.534 -3.201,14.723 -3.954,21.234 -0.049,-0.477 0.172,-1.229 -0.339,-1.242 -0.82,5.118 -2.578,9.892 -3.5,15.247 2.017,-0.152 3.982,0.182 5.308,0.902 1.615,-4.648 4.372,-8.709 5.537,-13.439 2.898,-4.068 1.581,-12.29 2.032,-17.055 0.297,0.04 0.101,0.575 0.337,0.677 1.844,-2.882 4.266,-6.926 4.971,-9.826 z m 52.747,7.342 c 3.449,1.061 7.003,1.702 10.956,2.034 -4.503,0.11 -9.744,0.742 -12.989,-1.018 -1.192,3.121 -4.076,6.809 -2.824,11.066 1.341,-1.822 2.224,-4.099 3.842,-5.647 -2.04,6.624 -10.202,21.466 1.128,23.835 4.76,-11.615 17.14,-15.617 21.008,-28.126 -1.083,0.837 -2.741,1.101 -3.953,1.809 0.035,-0.223 -0.151,-0.225 -0.225,-0.341 1.417,-1.958 5.378,-3.265 5.872,-5.983 -7.02,2.902 -16.243,1.871 -22.815,2.371 z m -29.481,3.953 c 0.035,1.151 0.471,2.048 0.451,2.936 4.49,-1.002 9.657,-0.543 13.892,0.903 -1.304,-4.738 -9.667,-4.733 -14.343,-3.839 z m 0.227,4.63 c 0.258,0.533 0.039,1.543 0.452,1.92 5.632,-0.681 10.171,-0.482 14.795,0.112 -0.218,-0.419 -0.15,-1.129 -0.449,-1.468 -4.138,-1.131 -10.114,-1.931 -14.798,-0.564 z m 0.564,3.728 c 0.145,0.721 0.34,1.39 0.452,2.146 5.086,-0.813 10.519,-0.334 15.248,0.564 0.004,-0.767 -0.417,-1.961 -0.678,-2.825 -5.318,-0.37 -9.927,-0.717 -15.022,0.115 z m 0.792,4.179 c 0.268,1.069 0.41,1.563 0.676,2.598 4.741,-1.301 9.663,-0.352 14.686,-0.564 0.031,-0.787 -0.104,-1.403 -0.227,-2.033 -5.167,-0.066 -10.58,-1.196 -15.135,-10e-4 z m 1.127,4.066 c 0.381,0.976 0.539,2.172 0.904,3.162 4.287,-0.219 9.554,-0.986 13.104,-0.113 0.266,-1.2 0.371,-2.642 0.227,-3.5 -3.607,-0.457 -9.938,-0.261 -14.235,0.451 z m 28.691,10.503 c 1.129,0.264 2.127,0.661 3.163,1.018 0.666,-3.746 2.634,-7.34 4.968,-10.277 -0.846,0.058 -1.172,-0.409 -1.694,-0.679 -2.643,2.827 -5.767,5.477 -6.437,9.938 z m 4.857,1.468 c 0.618,0.248 1.481,0.25 2.147,0.453 0.799,-4.469 2.402,-8.136 4.969,-10.843 -5.152,0.213 -6.335,6.208 -7.116,10.39 z m 3.614,0.68 c 0.265,0.448 1.109,0.322 1.693,0.45 1.141,-3.67 3.26,-8.032 5.986,-10.841 -5.953,-1.036 -6.169,6.225 -7.679,10.391 z m 3.163,1.015 c 0.9,0.193 1.947,0.394 2.71,0.68 1.498,-4.036 2.944,-8.124 5.76,-10.843 -4.868,-2.18 -6.426,6.289 -8.47,10.163 z m 10.052,-9.825 c -2.598,3.106 -4.522,6.228 -5.535,10.955 0.884,0.286 1.387,0.321 2.372,0.565 0.688,-3.849 3.085,-7.237 5.309,-10.392 -0.733,-0.359 -1.363,-0.819 -2.146,-1.128 z m -48.795,1.016 c 2.003,6.247 3.938,12.734 4.292,19.426 3.031,2.049 5.912,7.771 9.149,2.261 -1.007,-5.995 -2.55,-14.747 -1.242,-21.911 -3.894,-0.772 -8.104,-0.308 -12.199,0.224 z m 52.409,1.015 c -2.332,2.695 -4.908,5.975 -4.968,9.941 6.146,1.237 12.677,2.649 17.394,5.646 1.241,-0.325 4.62,-0.545 6.212,-1.805 0.086,-1.458 -0.713,-3.135 -0.451,-4.745 -7.333,-2.03 -12.514,-5.651 -18.187,-9.037 z m -98.604,6.892 c -0.063,1.14 -0.524,1.883 -0.677,2.936 1.764,-0.326 3.094,-0.043 4.968,0.34 0.313,-1.042 0.672,-2.042 1.018,-3.051 -1.78,-0.609 -3.523,-1.003 -5.309,-0.225 z m 122.211,11.181 c -0.372,-3.265 1.654,-9.069 -0.339,-10.504 -1.204,-0.061 -2.965,0.161 -3.501,1.129 1.879,3.485 -0.531,9.455 0.225,14.007 1.442,-1.724 3.843,-2.647 3.615,-4.632 z m 2.259,-8.697 c -0.419,3.207 -0.688,6.38 -0.451,8.922 5.129,-0.191 7.439,-10.099 0.451,-8.922 z m -125.713,2.373 c -0.773,3.24 -5.972,3.467 -7.906,6.662 -0.594,0.984 -0.592,2.692 -1.015,3.727 -0.742,1.815 -2.38,3.031 -2.6,4.858 -0.5,4.168 2.498,4.641 5.196,3.389 0.529,-2.161 -2.56,-1.583 -3.84,-1.13 0.082,-0.307 -0.224,-0.228 -0.226,-0.451 0.933,-2.078 3.152,-2.872 3.275,-5.761 -0.035,-0.194 -0.394,0.147 -0.338,-0.338 0.072,-0.343 0.174,-0.653 0.563,-0.679 1.97,1.844 3.396,-0.163 4.744,-0.34 2.586,-0.339 2.772,4.417 3.952,6.327 0.994,1.606 3.481,2.907 5.31,2.371 0.573,-1.523 -1.274,-1.108 -2.261,-1.808 -1.582,-1.124 -1.211,-4.854 -1.129,-6.324 3.519,-1.023 1.129,-7.955 1.355,-10.616 -1.177,-0.161 -3.564,-0.765 -5.08,0.113 z m 125.825,7.679 c -3.099,1.322 -4.649,4.401 -4.631,8.021 0.011,2.419 1.445,3.98 -0.113,6.324 -1.331,2.003 -4.613,3.001 -7.454,1.694 -1.016,-1.476 -2.418,-2.338 -4.065,-2.822 -2.819,-0.834 -9.301,2.838 -6.438,5.421 1.134,1.022 3.651,0.104 5.422,0.225 1.843,0.126 5.603,0.52 7.229,0.565 7.786,0.216 6.246,-9.135 9.826,-13.553 1.056,-1.306 2.326,-1.782 3.389,-3.166 0.537,-1.229 1.732,-1.802 2.485,-2.821 0.259,-0.118 0.68,-0.072 0.903,-0.226 1.715,-1.613 2.899,-5.262 -0.452,-5.874 0.033,4.591 -2.967,4.876 -6.101,6.212 z m -10.052,-1.582 c 1.278,1.234 1.846,3.945 1.13,6.438 -0.975,3.395 -0.819,7.65 -3.617,8.585 0.678,0.687 1.431,1.412 2.487,1.47 9.304,0.498 -0.155,-12.663 2.484,-17.623 -1.014,0.404 -2.166,0.404 -2.484,1.13 z m -5.083,0.565 c 0.424,0.668 0.987,1.198 1.582,1.696 0.617,-0.586 2.072,-0.338 2.258,-1.356 -0.24,-0.55 -1.174,-0.407 -1.017,-1.354 -1.388,-0.059 -2.3,-0.277 -2.823,1.014 z m -124.695,10.166 c 0.415,-0.008 0.889,0.298 1.129,0.113 -1.883,-4.008 3.688,-5.972 3.615,-9.486 -2.012,2.657 -5.098,4.709 -4.744,9.373 z m 63.252,-4.18 c 1.41,-0.942 2.412,-2.808 1.58,-4.63 -1.35,0.646 -1.28,3.314 -1.58,4.63 z m 63.477,-1.13 c 1.036,-0.133 1.646,0.246 2.373,0.116 2.035,-3.639 -2.404,-3.163 -2.373,-0.116 z m 19.201,-0.111 c 1.02,-0.653 0.564,-1.809 -0.338,-2.258 -1.17,0.532 -0.97,2 0.338,2.258 z m -83.581,2.935 c 0.27,0.561 0.873,0.785 1.468,1.018 1.283,-1.317 2.108,-3.086 3.955,-3.842 -0.363,-0.275 -0.349,-0.931 -0.793,-1.13 -1.239,1.82 -2.1,3.643 -4.63,3.954 z m 14.344,0.454 c 0.961,-1.216 1.315,-4.565 -0.904,-4.066 -7.805,3.527 -10.141,12.525 -17.959,16.037 2.809,0.41 6.204,0.096 8.812,-0.226 0.59,-6.078 7.047,-7.957 10.051,-11.745 z m -67.205,-2.148 c 0.576,0.549 0.638,1.629 0.452,2.375 1.628,-0.25 0.926,-4.079 -0.452,-2.375 z m 59.298,0 c -1.347,0.464 -2.239,2.048 -3.501,2.936 -1.539,5.77 -7.367,7.048 -13.667,7.682 1.158,1.177 2.265,2.403 3.952,3.052 6.115,-2.998 10.673,-7.55 14.12,-13.215 -0.481,0.025 -0.576,-0.331 -0.904,-0.455 z m -61.556,1.244 c 0.816,0.265 1.224,0.842 1.92,0.79 -0.348,-0.818 -0.79,-1.545 -1.581,-1.92 -0.115,0.375 -0.341,0.64 -0.339,1.13 z m 119.272,0.676 c 0.626,0.056 0.929,0.429 1.581,0.455 0.115,-0.876 0.371,-1.202 0.564,-2.146 h -2.146 c 10e-4,0.562 10e-4,1.128 10e-4,1.691 z m -119.838,1.356 c 1.422,-0.272 2.051,1.505 2.937,1.808 0.151,-0.376 0.543,-0.511 0.563,-1.018 -0.797,-0.749 -3.213,-2.399 -3.5,-0.79 z m 52.07,0.79 c 0.929,0.795 1.532,1.64 2.822,2.259 0.549,-0.729 1.119,-1.44 1.581,-2.259 -1.161,-0.713 -1.442,-1.007 -2.599,-1.354 -0.414,0.64 -1.26,0.844 -1.804,1.354 z m 18.41,-0.676 c -3.253,2.958 -7.265,5.16 -8.47,10.166 5.225,-0.076 13.42,-4.885 8.47,-10.166 z m 48.794,1.806 c 0.739,0.147 1.229,1.083 1.807,1.018 0.594,-0.465 0.148,-1.607 0.339,-2.259 -0.459,-0.221 -1.055,-0.3 -1.693,-0.339 0.101,0.804 -0.297,0.846 -0.453,1.58 z m -69.915,1.582 c 0.51,0.504 1.016,1.017 1.579,1.47 0.902,-0.348 1.967,-0.858 2.711,-1.018 -1.164,-1.725 -2.967,-2.336 -4.29,-0.452 z m 66.865,0.339 c 0.942,-0.579 2.093,0.12 2.71,0.564 2.393,-0.488 -3.107,-3.299 -2.71,-0.564 z m -70.48,0.791 c 0.39,1.375 1.779,0.834 3.162,0.677 -0.51,-1.355 -1.794,-1.057 -3.162,-0.677 z m -3.501,1.356 c 0.653,0.023 0.956,0.396 1.581,0.45 0.189,-0.299 0.499,-0.479 1.017,-0.45 -0.49,-1.288 -1.82,-0.841 -2.598,0 z m 6.212,5.985 c -4.011,-1.414 -7.268,-7.736 -12.313,-4.97 -1.125,0.618 -1.965,2.011 -1.694,3.276 1.321,1.393 3.343,2.077 5.084,3.049 8.22,0.88 18.814,1.669 27.221,-1.129 2.325,-0.774 6.03,-0.711 5.421,-3.841 -5.834,2.781 -16.216,6.262 -23.719,3.615 z m 65.398,0.339 c 0.029,0.836 0.29,1.441 0.902,1.694 0.334,-0.624 0.511,-1.448 0.451,-1.921 -0.451,0.077 -0.98,0.074 -1.353,0.227 z m 7.34,1.13 c 0.292,-0.238 0.692,-0.831 0.565,-1.13 -0.332,-0.022 -0.833,-0.11 -1.468,-0.112 0.106,0.61 0.22,1.208 0.903,1.242 z m -54.102,0.677 c 0.193,2.255 3.616,1.206 2.259,-1.018 -0.8,0.293 -1.657,0.529 -2.259,1.018 z m -27.446,1.016 c 0.253,1.63 2.741,1.377 2.938,-0.224 -1.101,0.376 -2.142,0.057 -2.938,0.224 z m 9.6,0.339 c -0.726,0.273 -1.788,-0.092 -2.485,-0.225 -0.222,1.774 2.712,2.275 2.485,0.225 z"
   id="path1246"
   sodipodi:nodetypes="ccccccccccccccccccccccccccccccccccccccccccccccccccccccccccccccccccccccccccccccccsccccccccccccccccccccccccccscccccccccccccccccccccccccccccccccccccccccccccccccccccccccccccccccccccccccccccccccccccccccccccccccccccccccccccccccccccccccccccccccccccccccccccccccccccccccccccccccccccccccccccccccccccccccccccccccccccccccccccccccccccccccccccccccccccccccccccccccccccccsccccccccccccccsscccccccccccccccccsccccccccccccccccccccccccccccccccccccccccccccccccccccccccccccccccccccccccccccccccccccccccccccccccccccccccccccccccccccccccccccccccccccccccccccccccccccccccccccccccccccccccccsccccccccccccccccccccccccccccccccccccccccccccccccccccccccccccccccccccccccccccccccccccccccccccccccccccccccc" />
		<path
   fill-rule="evenodd"
   clip-rule="evenodd"
   fill="#2e3192"
   d="m 631.283,507.946 c 0.145,0.858 0.039,2.3 -0.227,3.5 -3.55,-0.873 -8.816,-0.105 -13.104,0.113 -0.365,-0.99 -0.523,-2.187 -0.904,-3.162 4.297,-0.712 10.628,-0.908 14.235,-0.451 z"
   id="path1248" />
		<path
   fill-rule="evenodd"
   clip-rule="evenodd"
   fill="#ffffff"
   d="m 622.019,534.036 c 0.832,1.822 -0.17,3.688 -1.58,4.63 0.3,-1.316 0.23,-3.984 1.58,-4.63 z"
   id="path1250" />
		<path
   fill-rule="evenodd"
   clip-rule="evenodd"
   fill="#ffffff"
   d="m 632.976,443.792 c -2.75,0.665 -12.352,3.398 -13.44,-0.342 4.21,0.455 8.93,0.2 12.423,-1.126 0.438,0.39 0.863,0.794 1.017,1.468 z"
   id="path1252" />
		<path
   fill-rule="evenodd"
   clip-rule="evenodd"
   fill="#2e3192"
   d="m 608.805,428.994 c 0.129,3.458 1.815,7.093 3.613,9.375 -2.406,-0.419 -4.521,-1.128 -6.1,-2.37 1.997,1.955 4.207,3.696 7.229,4.629 -2.563,2.218 6.41754,-0.71796 3.77454,1.74004 2.80828,4.94202 4.60129,7.37912 7.74329,9.17712 4.80214,8.64881 7.60059,9.63495 3.04501,13.6915 -3.24496,-1.70073 0.14862,0.0947 -1.85699,0.90459 -0.67952,0.60762 -1.85715,1.12512 -2.74066,2.67997 -0.688,0.065 -5.05919,2.72878 -5.55919,2.97878 -3.61,-2.613 -9.998,-1.134 -9.261,-7.679 -0.449,-0.098 -0.834,0.167 -1.017,0 -0.261,0.959 -10e-4,2.29 -0.677,3.049 -12.488,3.725 -22.16,-6.438 -27.673,-14.909 1.349,-1.813 3.421,-3.506 5.195,-4.517 3.829,1.768 7.777,-2.361 8.132,-5.987 0.512,-0.355 1.172,-0.562 1.467,-1.13 1.553,1.372 4.066,3.327 6.328,4.518 0.696,0.368 4.365,2.361 4.63,1.018 0.16,-0.822 -2.633,-4.026 -3.05,-4.856 -1.658,-3.303 -3.397,-7.729 -3.729,-11.183 3.439,0.731 7.499,0.673 10.507,-1.13 z"
   id="path1254"
   sodipodi:nodetypes="cccccccccccccccccccccc" />
		<path
   fill-rule="evenodd"
   clip-rule="evenodd"
   fill="#2e3192"
   d="m 632.41,431.93 c 3.426,2.224 5.697,5.601 8.812,8.134 0.07,-0.466 -0.471,-1.11 -0.451,-1.921 10.017,3.609 14.28,13.908 24.059,17.507 -5.187,-1.419 -8.958,4.24 -12.313,0.452 -1.057,-2.148 -1.634,-4.7 -3.728,-6.098 -1.788,-1.196 -4.809,-0.795 -5.874,-2.259 -2.702,-3.719 -5.039,-8.164 -10.39,-8.473 -0.338,-3.286 -1.55,-4.802 -0.115,-7.342 z"
   id="path1256" />
		<path
   fill-rule="evenodd"
   clip-rule="evenodd"
   fill="#ed1c24"
   d="m 659.066,458.135 c 0.075,0 0.151,0 0.226,0 -1.881,5.379 8.394,5.324 4.18,10.617 -2.029,2.551 -6.25,5.118 -9.486,6.1 -3.436,1.041 -7.246,0.906 -10.957,2.596 -4.393,2.003 -6.086,6.598 -11.521,6.44 -2.315,-2.08 -4.034,-0.042 -5.196,2.032 -2.365,-0.922 -5.776,0.844 -4.292,4.292 -0.749,-0.002 -1.326,-0.179 -1.92,-0.337 -0.093,-1.359 -1.433,-6.514 1.13,-6.664 0.733,-0.044 1.214,0.894 2.373,0.677 2.292,-0.427 1.558,-5.018 4.744,-4.18 0.553,0.147 0.971,1.486 1.92,1.694 2.479,0.545 5.521,-1.332 7.34,-2.824 1.96,-1.604 2.83,-3.303 5.309,-4.405 3.832,-1.7 8.431,-1.679 11.521,-2.709 2.191,-0.731 8.118,-2.781 6.777,-6.44 -0.617,-1.685 -3.566,-1.055 -4.405,-1.58 -1.907,-1.193 -1.338,-5.664 2.257,-5.309 z"
   id="path1258" />
		<path
   fill-rule="evenodd"
   clip-rule="evenodd"
   fill="#ffffff"
   d="m 654.324,459.831 c -0.77,3.083 1.16,5.83 4.742,5.534 0.115,0.149 0.106,0.42 0.34,0.449 -5.05,7.577 -19.34,4.657 -24.059,12.65 -1.681,0.531 -2.991,1.325 -4.405,1.694 -2.337,-4.096 -6.408,-0.959 -7.454,2.261 -4.397,-2.793 -6.358,3.467 -4.405,7.342 -2.062,-0.157 -3.902,0.292 -5.534,0.903 -0.882,-1.368 -1.245,-3.762 -1.13,-5.76 1.063,-0.595 1.579,-1.734 2.259,-2.712 2.499,-0.025 4.804,-1.22 6.211,-2.711 1.569,-0.136 2.494,-1.773 3.844,-2.372 6.092,-2.695 10.946,-5.855 16.149,-9.375 0.847,-0.572 1.957,-0.612 1.809,-2.032 0.465,0.09 0.579,-0.173 1.017,-0.113 -1.262,1.431 -2.063,2.722 -2.937,4.406 4.521,-3.269 8.888,-8.124 13.553,-10.164 z"
   id="path1260" />
		<path
   fill-rule="evenodd"
   clip-rule="evenodd"
   fill="#ffffff"
   d="m 581.246,482.307 c -0.071,-0.568 -0.547,-0.735 -0.453,-1.468 4.583,-0.556 8.194,-3.112 12.086,-4.405 -2.99,3.471 -7.024,5.767 -11.633,5.873 z"
   id="path1262" />
		<path
   fill-rule="evenodd"
   clip-rule="evenodd"
   fill="#ffffff"
   d="m 628.681,490.89 c -0.637,-0.227 -1.049,-0.68 -1.578,-1.015 -0.534,0.488 0.083,1.493 0.112,2.146 -1.186,-0.661 -2.063,-1.005 -3.613,-1.356 -1.948,-5.723 5.736,-1.335 5.761,-5.874 8.923,2.026 11.408,-7.395 21.007,-7.567 2.684,-0.05 6.453,-1.321 8.356,-2.598 3.468,-2.324 7.292,-5.313 6.778,-9.713 -0.403,-3.469 -5.079,-3.348 -4.855,-7.342 14.984,-2.918 16.105,18.232 7.454,25.299 -4.346,3.55 -12.11,2.7 -18.073,3.614 -2.528,0.389 -5.657,-0.666 -8.47,-0.111 -1.108,0.218 -1.973,0.275 -3.05,0.34 -2.158,0.122 -5.961,1.91 -7.003,1.58 -0.438,-0.139 -0.55,-1.147 -1.13,-1.13 -1.419,0.044 0.071,3.513 -1.696,3.727 z"
   id="path1264" />
		<path
   fill-rule="evenodd"
   clip-rule="evenodd"
   fill="#2e3192"
   d="m 630.152,500.038 c 0.261,0.864 0.682,2.059 0.678,2.825 -4.729,-0.898 -10.162,-1.377 -15.248,-0.564 -0.112,-0.757 -0.308,-1.426 -0.452,-2.146 5.094,-0.833 9.703,-0.486 15.022,-0.115 z"
   id="path1266" />
		<path
   fill-rule="evenodd"
   clip-rule="evenodd"
   fill="#ffffff"
   d="m 657.712,509.979 c -2.566,2.707 -4.17,6.374 -4.969,10.843 -0.666,-0.203 -1.529,-0.205 -2.147,-0.453 0.781,-4.183 1.964,-10.178 7.116,-10.39 z"
   id="path1268" />
		<path
   fill-rule="evenodd"
   clip-rule="evenodd"
   fill="#2e3192"
   d="m 661.89,510.657 c -2.727,2.809 -4.846,7.171 -5.986,10.841 -0.584,-0.128 -1.429,-0.002 -1.693,-0.45 1.509,-4.166 1.725,-11.427 7.679,-10.391 z"
   id="path1270" />
		<path
   fill-rule="evenodd"
   clip-rule="evenodd"
   fill="#bcbec0"
   d="m 691.031,536.974 c -0.756,-4.552 1.654,-10.521 -0.225,-14.007 0.536,-0.968 2.297,-1.189 3.501,-1.129 1.993,1.435 -0.033,7.239 0.339,10.504 0.228,1.985 -2.173,2.908 -3.615,4.632 z"
   id="path1272" />
		<path
   fill-rule="evenodd"
   clip-rule="evenodd"
   fill="#636466"
   d="m 696.454,532.566 c -0.236,-2.542 0.032,-5.715 0.451,-8.922 6.988,-1.176 4.678,8.732 -0.451,8.922 z"
   id="path1274" />
		<path
   fill-rule="evenodd"
   clip-rule="evenodd"
   fill="#ffffff"
   d="m 689.225,523.307 c -0.262,1.61 0.537,3.287 0.451,4.745 -1.592,1.26 -4.971,1.479 -6.212,1.805 -4.717,-2.997 -11.248,-4.409 -17.394,-5.646 0.06,-3.967 2.636,-7.246 4.968,-9.941 5.674,3.385 10.855,7.006 18.187,9.037 z"
   id="path1276" />
		<path
   fill-rule="evenodd"
   clip-rule="evenodd"
   fill="#ffffff"
   d="m 630.83,513.029 c -1.308,7.164 0.235,15.916 1.242,21.911 -3.237,5.51 -6.118,-0.212 -9.149,-2.261 -0.354,-6.691 -2.289,-13.179 -4.292,-19.426 4.094,-0.531 8.304,-0.995 12.199,-0.224 z"
   id="path1278" />
		<path
   fill-rule="evenodd"
   clip-rule="evenodd"
   fill="#ffffff"
   d="m 576.275,525.905 c -0.227,2.661 2.163,9.593 -1.355,10.616 -0.082,1.47 -0.453,5.2 1.129,6.324 0.986,0.699 2.834,0.284 2.261,1.808 -1.828,0.536 -4.315,-0.765 -5.31,-2.371 -1.18,-1.91 -1.366,-6.666 -3.952,-6.327 -1.348,0.177 -2.774,2.184 -4.744,0.34 -0.39,0.025 -0.491,0.336 -0.563,0.679 -0.056,0.485 0.303,0.144 0.338,0.338 -0.123,2.889 -2.343,3.683 -3.275,5.761 0.002,0.224 0.308,0.145 0.226,0.451 1.28,-0.453 4.369,-1.031 3.84,1.13 -2.698,1.252 -5.696,0.779 -5.196,-3.389 0.22,-1.827 1.857,-3.043 2.6,-4.858 0.423,-1.034 0.421,-2.742 1.015,-3.727 1.935,-3.195 7.133,-3.422 7.906,-6.662 1.513,-0.878 3.9,-0.274 5.08,-0.113 z"
   id="path1280" />
		<path
   fill-rule="evenodd"
   clip-rule="evenodd"
   fill="#bcbec0"
   d="m 636.025,550.301 c 0.609,3.13 -3.096,3.066 -5.421,3.841 -8.406,2.798 -19.001,2.009 -27.221,1.129 -1.741,-0.972 -3.763,-1.656 -5.084,-3.049 -0.271,-1.266 0.569,-2.658 1.694,-3.276 5.045,-2.767 8.302,3.556 12.313,4.97 7.503,2.646 17.885,-0.835 23.719,-3.615 z"
   id="path1282" />
	</g>
</g>






</svg>
